<svg version="1.1" id="Layer_1" xmlns="http://www.w3.org/2000/svg" xmlns:xlink="http://www.w3.org/1999/xlink" x="0px" y="6px" width="100px" height="87px" viewBox="0 6 100 87" enable-background="0 6 100 87" xml:space="preserve"><desc>Copyright Opto 22</desc> <p id="title">Blower</p><desc>Created with Snap</desc><defs><linearGradient x1="27.2012" y1="52.8758" x2="27.408" y2="53.5183" gradientUnits="userSpaceOnUse" id="Sizk498bc1mo"><stop offset="0%" stop-color="#c6e2ff"/><stop offset="37.63%" stop-color="#e0efff"/><stop offset="100%" stop-color="#4c5e70"/></linearGradient><linearGradient x1="31.5635" y1="48.438" x2="32.6514" y2="51.8165" gradientUnits="userSpaceOnUse" id="Sizk498bc1mv"><stop offset="0%" stop-color="#c6e2ff"/><stop offset="37.63%" stop-color="#e0efff"/><stop offset="100%" stop-color="#4c5e70"/></linearGradient><linearGradient x1="61.0123" y1="49.4725" x2="62.1673" y2="52.1675" gradientUnits="userSpaceOnUse" id="Sizk498bc1n2"><stop offset="0%" stop-color="#c6e2ff"/><stop offset="37.63%" stop-color="#e0efff"/><stop offset="100%" stop-color="#4c5e70"/></linearGradient><linearGradient x1="4.3781" y1="71.2322" x2="2.7807" y2="89.3924" gradientUnits="userSpaceOnUse" id="Sizk498bc1n8"><stop offset="1.06%" stop-color="#c6e2ff"/><stop offset="77.25%" stop-color="#4c5e70"/></linearGradient><linearGradient x1="25.0381" y1="72.4517" x2="23.3727" y2="91.3841" gradientUnits="userSpaceOnUse" id="Sizk498bc1nd"><stop offset="1.06%" stop-color="#c6e2ff"/><stop offset="77.25%" stop-color="#4c5e70"/></linearGradient><linearGradient x1="70.6641" y1="27.4651" x2="71.8002" y2="33.9979" gradientUnits="userSpaceOnUse" id="Sizk498bc1ni"><stop offset="12.93%" stop-color="#c6e2ff"/><stop offset="100%" stop-color="#4c5e70"/></linearGradient><linearGradient x1="65.4051" y1="7.1391" x2="42.0463" y2="7.1391" gradientUnits="userSpaceOnUse" id="Sizk498bc1nn"><stop offset="0%" stop-color="#c6e2ff"/><stop offset="100%" stop-color="#4c5e70"/></linearGradient><linearGradient x1="21.7043" y1="49.1433" x2="24.8936" y2="56.534" gradientUnits="userSpaceOnUse" id="Sizk498bc1nt"><stop offset="0%" stop-color="#c6e2ff"/><stop offset="37.63%" stop-color="#e0efff"/><stop offset="100%" stop-color="#4c5e70"/></linearGradient><linearGradient x1="58.2238" y1="50.5238" x2="58.5303" y2="51.2392" gradientUnits="userSpaceOnUse" id="Sizk498bc1o0"><stop offset="0%" stop-color="#c6e2ff"/><stop offset="37.63%" stop-color="#e0efff"/><stop offset="100%" stop-color="#4c5e70"/></linearGradient><linearGradient x1="52.6983" y1="50.7103" x2="56.1965" y2="57.6192" gradientUnits="userSpaceOnUse" id="Sizk498bc1o7"><stop offset="0%" stop-color="#c6e2ff"/><stop offset="37.63%" stop-color="#e0efff"/><stop offset="100%" stop-color="#4c5e70"/></linearGradient><radialGradient cx="47.1542" cy="77.6098" r="9.1845" gradientUnits="userSpaceOnUse" id="Sizk498bc1oe"><stop offset="0%" stop-color="#c6e2ff"/><stop offset="100%" stop-color="#4c5e70"/></radialGradient><linearGradient x1="27.2012" y1="52.8758" x2="27.408" y2="53.5183" gradientUnits="userSpaceOnUse" id="Sizk498bc1oh"><stop offset="0%" stop-color="#96c9eb"/><stop offset="37.63%" stop-color="#b0dfff"/><stop offset="100%" stop-color="#547387"/></linearGradient><linearGradient x1="31.5635" y1="48.438" x2="32.6514" y2="51.8165" gradientUnits="userSpaceOnUse" id="Sizk498bc1ol"><stop offset="0%" stop-color="#96c9eb"/><stop offset="37.63%" stop-color="#b0dfff"/><stop offset="100%" stop-color="#547387"/></linearGradient><linearGradient x1="61.0123" y1="49.4725" x2="62.1673" y2="52.1675" gradientUnits="userSpaceOnUse" id="Sizk498bc1op"><stop offset="0%" stop-color="#96c9eb"/><stop offset="37.63%" stop-color="#b0dfff"/><stop offset="100%" stop-color="#547387"/></linearGradient><linearGradient x1="4.3781" y1="71.2322" x2="2.7807" y2="89.3924" gradientUnits="userSpaceOnUse" id="Sizk498bc1ot"><stop offset="1.06%" stop-color="#96c9eb"/><stop offset="77.25%" stop-color="#547387"/></linearGradient><linearGradient x1="25.0381" y1="72.4517" x2="23.3727" y2="91.3841" gradientUnits="userSpaceOnUse" id="Sizk498bc1ow"><stop offset="1.06%" stop-color="#96c9eb"/><stop offset="77.25%" stop-color="#547387"/></linearGradient><linearGradient x1="70.6641" y1="27.4651" x2="71.8002" y2="33.9979" gradientUnits="userSpaceOnUse" id="Sizk498bc1oz"><stop offset="12.93%" stop-color="#96c9eb"/><stop offset="100%" stop-color="#547387"/></linearGradient><linearGradient x1="65.4051" y1="7.1391" x2="42.0463" y2="7.1391" gradientUnits="userSpaceOnUse" id="Sizk498bc1p2"><stop offset="0%" stop-color="#96c9eb"/><stop offset="100%" stop-color="#547387"/></linearGradient><linearGradient x1="21.7043" y1="49.1433" x2="24.8936" y2="56.534" gradientUnits="userSpaceOnUse" id="Sizk498bc1p5"><stop offset="0%" stop-color="#96c9eb"/><stop offset="37.63%" stop-color="#b0dfff"/><stop offset="100%" stop-color="#547387"/></linearGradient><linearGradient x1="58.2238" y1="50.5238" x2="58.5303" y2="51.2392" gradientUnits="userSpaceOnUse" id="Sizk498bc1p9"><stop offset="0%" stop-color="#96c9eb"/><stop offset="37.63%" stop-color="#b0dfff"/><stop offset="100%" stop-color="#547387"/></linearGradient><linearGradient x1="52.6983" y1="50.7103" x2="56.1965" y2="57.6192" gradientUnits="userSpaceOnUse" id="Sizk498bc1pd"><stop offset="0%" stop-color="#96c9eb"/><stop offset="37.63%" stop-color="#b0dfff"/><stop offset="100%" stop-color="#547387"/></linearGradient><radialGradient cx="47.1542" cy="77.6098" r="9.1845" gradientUnits="userSpaceOnUse" id="Sizk498bc1ph"><stop offset="0%" stop-color="#96c9eb"/><stop offset="100%" stop-color="#547387"/></radialGradient></defs><g xmlns="http://www.w3.org/2000/svg">
<g id="shape">
	<path fill="#808080" d="M43.433,93.433C19.484,93.433,0,73.949,0,50S19.484,6.567,43.433,6.567H100v33.051H85.606
		c0.837,3.4,1.26,6.884,1.26,10.381C86.866,73.949,67.382,93.433,43.433,93.433z"></path>
</g>
<g id="light">
	<g>
		<path fill="#CCCCCC" d="M59.161,9.48C71.3,14.208,80.807,24.232,84.823,36.706h12.265V9.48H59.161z"></path>
		<path fill="#CCCCCC" d="M81.761,36.706h-0.106C76.142,20.9,61.096,9.523,43.433,9.523V9.48C21.09,9.48,2.913,27.657,2.913,50
			c0,22.343,18.177,40.52,40.521,40.52c22.343,0,40.52-18.177,40.52-40.52c0-3.862-0.554-7.707-1.645-11.428L81.761,36.706z
			 M43.433,67.729c-9.775,0-17.728-7.953-17.728-17.729s7.953-17.728,17.728-17.728c9.775,0,17.728,7.953,17.728,17.728
			S53.208,67.729,43.433,67.729z"></path>
	</g>
</g>
<g id="shadow">
	<path fill="#333333" d="M43.433,32.272c-9.775,0-17.728,7.953-17.728,17.728s7.953,17.729,17.728,17.729
		c9.775,0,17.728-7.953,17.728-17.729S53.208,32.272,43.433,32.272z"></path>
</g>
<g id="dark">
	<path fill="#808080" d="M43.433,69.729c-10.878,0-19.728-8.851-19.728-19.729s8.85-19.728,19.728-19.728
		c10.878,0,19.728,8.85,19.728,19.728S54.312,69.729,43.433,69.729z M43.433,32.272c-9.775,0-17.728,7.953-17.728,17.728
		s7.953,17.729,17.728,17.729c9.775,0,17.728-7.953,17.728-17.729S53.208,32.272,43.433,32.272z"></path>
	<rect x="25.705" y="49" fill="#808080" width="6.128" height="2"></rect>
	<rect x="55.033" y="49" fill="#808080" width="6.128" height="2"></rect>
	<rect x="42.433" y="61.6" fill="#808080" width="2" height="6.129"></rect>
	<rect x="42.433" y="32.272" fill="#808080" width="2" height="6.128"></rect>
	
		<rect x="32.064" y="57.305" transform="matrix(0.7071 0.7071 -0.7071 0.7071 52.3714 -5.6984)" fill="#808080" width="2" height="6.128"></rect>
	
		<rect x="52.802" y="36.567" transform="matrix(0.7071 0.7071 -0.7071 0.7071 43.7817 -26.4363)" fill="#808080" width="2" height="6.128"></rect>
	
		<rect x="50.738" y="59.369" transform="matrix(0.7071 0.7071 -0.7071 0.7071 58.4454 -20.3624)" fill="#808080" width="6.128" height="2"></rect>
	
		<rect x="30" y="38.631" transform="matrix(0.7071 0.7071 -0.7071 0.7071 37.7077 -11.7722)" fill="#808080" width="6.128" height="2"></rect>
</g>
</g></svg>