<svg version="1.1" id="Layer_1" xmlns="http://www.w3.org/2000/svg" xmlns:xlink="http://www.w3.org/1999/xlink" x="31px" y="0px" width="36px" height="99px" viewBox="31 0 36 99" enable-background="31 0 36 99" xml:space="preserve"><desc>Copyright Opto 22</desc> <p id="title">Dial calipers</p><desc>Created with Snap</desc><defs><linearGradient x1="27.2012" y1="52.8758" x2="27.408" y2="53.5183" gradientUnits="userSpaceOnUse" id="Sizk498bc1mo"><stop offset="0%" stop-color="#c6e2ff"/><stop offset="37.63%" stop-color="#e0efff"/><stop offset="100%" stop-color="#4c5e70"/></linearGradient><linearGradient x1="31.5635" y1="48.438" x2="32.6514" y2="51.8165" gradientUnits="userSpaceOnUse" id="Sizk498bc1mv"><stop offset="0%" stop-color="#c6e2ff"/><stop offset="37.63%" stop-color="#e0efff"/><stop offset="100%" stop-color="#4c5e70"/></linearGradient><linearGradient x1="61.0123" y1="49.4725" x2="62.1673" y2="52.1675" gradientUnits="userSpaceOnUse" id="Sizk498bc1n2"><stop offset="0%" stop-color="#c6e2ff"/><stop offset="37.63%" stop-color="#e0efff"/><stop offset="100%" stop-color="#4c5e70"/></linearGradient><linearGradient x1="4.3781" y1="71.2322" x2="2.7807" y2="89.3924" gradientUnits="userSpaceOnUse" id="Sizk498bc1n8"><stop offset="1.06%" stop-color="#c6e2ff"/><stop offset="77.25%" stop-color="#4c5e70"/></linearGradient><linearGradient x1="25.0381" y1="72.4517" x2="23.3727" y2="91.3841" gradientUnits="userSpaceOnUse" id="Sizk498bc1nd"><stop offset="1.06%" stop-color="#c6e2ff"/><stop offset="77.25%" stop-color="#4c5e70"/></linearGradient><linearGradient x1="70.6641" y1="27.4651" x2="71.8002" y2="33.9979" gradientUnits="userSpaceOnUse" id="Sizk498bc1ni"><stop offset="12.93%" stop-color="#c6e2ff"/><stop offset="100%" stop-color="#4c5e70"/></linearGradient><linearGradient x1="65.4051" y1="7.1391" x2="42.0463" y2="7.1391" gradientUnits="userSpaceOnUse" id="Sizk498bc1nn"><stop offset="0%" stop-color="#c6e2ff"/><stop offset="100%" stop-color="#4c5e70"/></linearGradient><linearGradient x1="21.7043" y1="49.1433" x2="24.8936" y2="56.534" gradientUnits="userSpaceOnUse" id="Sizk498bc1nt"><stop offset="0%" stop-color="#c6e2ff"/><stop offset="37.63%" stop-color="#e0efff"/><stop offset="100%" stop-color="#4c5e70"/></linearGradient><linearGradient x1="58.2238" y1="50.5238" x2="58.5303" y2="51.2392" gradientUnits="userSpaceOnUse" id="Sizk498bc1o0"><stop offset="0%" stop-color="#c6e2ff"/><stop offset="37.63%" stop-color="#e0efff"/><stop offset="100%" stop-color="#4c5e70"/></linearGradient><linearGradient x1="52.6983" y1="50.7103" x2="56.1965" y2="57.6192" gradientUnits="userSpaceOnUse" id="Sizk498bc1o7"><stop offset="0%" stop-color="#c6e2ff"/><stop offset="37.63%" stop-color="#e0efff"/><stop offset="100%" stop-color="#4c5e70"/></linearGradient><radialGradient cx="47.1542" cy="77.6098" r="9.1845" gradientUnits="userSpaceOnUse" id="Sizk498bc1oe"><stop offset="0%" stop-color="#c6e2ff"/><stop offset="100%" stop-color="#4c5e70"/></radialGradient><linearGradient x1="27.2012" y1="52.8758" x2="27.408" y2="53.5183" gradientUnits="userSpaceOnUse" id="Sizk498bc1oh"><stop offset="0%" stop-color="#96c9eb"/><stop offset="37.63%" stop-color="#b0dfff"/><stop offset="100%" stop-color="#547387"/></linearGradient><linearGradient x1="31.5635" y1="48.438" x2="32.6514" y2="51.8165" gradientUnits="userSpaceOnUse" id="Sizk498bc1ol"><stop offset="0%" stop-color="#96c9eb"/><stop offset="37.63%" stop-color="#b0dfff"/><stop offset="100%" stop-color="#547387"/></linearGradient><linearGradient x1="61.0123" y1="49.4725" x2="62.1673" y2="52.1675" gradientUnits="userSpaceOnUse" id="Sizk498bc1op"><stop offset="0%" stop-color="#96c9eb"/><stop offset="37.63%" stop-color="#b0dfff"/><stop offset="100%" stop-color="#547387"/></linearGradient><linearGradient x1="4.3781" y1="71.2322" x2="2.7807" y2="89.3924" gradientUnits="userSpaceOnUse" id="Sizk498bc1ot"><stop offset="1.06%" stop-color="#96c9eb"/><stop offset="77.25%" stop-color="#547387"/></linearGradient><linearGradient x1="25.0381" y1="72.4517" x2="23.3727" y2="91.3841" gradientUnits="userSpaceOnUse" id="Sizk498bc1ow"><stop offset="1.06%" stop-color="#96c9eb"/><stop offset="77.25%" stop-color="#547387"/></linearGradient><linearGradient x1="70.6641" y1="27.4651" x2="71.8002" y2="33.9979" gradientUnits="userSpaceOnUse" id="Sizk498bc1oz"><stop offset="12.93%" stop-color="#96c9eb"/><stop offset="100%" stop-color="#547387"/></linearGradient><linearGradient x1="65.4051" y1="7.1391" x2="42.0463" y2="7.1391" gradientUnits="userSpaceOnUse" id="Sizk498bc1p2"><stop offset="0%" stop-color="#96c9eb"/><stop offset="100%" stop-color="#547387"/></linearGradient><linearGradient x1="21.7043" y1="49.1433" x2="24.8936" y2="56.534" gradientUnits="userSpaceOnUse" id="Sizk498bc1p5"><stop offset="0%" stop-color="#96c9eb"/><stop offset="37.63%" stop-color="#b0dfff"/><stop offset="100%" stop-color="#547387"/></linearGradient><linearGradient x1="58.2238" y1="50.5238" x2="58.5303" y2="51.2392" gradientUnits="userSpaceOnUse" id="Sizk498bc1p9"><stop offset="0%" stop-color="#96c9eb"/><stop offset="37.63%" stop-color="#b0dfff"/><stop offset="100%" stop-color="#547387"/></linearGradient><linearGradient x1="52.6983" y1="50.7103" x2="56.1965" y2="57.6192" gradientUnits="userSpaceOnUse" id="Sizk498bc1pd"><stop offset="0%" stop-color="#96c9eb"/><stop offset="37.63%" stop-color="#b0dfff"/><stop offset="100%" stop-color="#547387"/></linearGradient><radialGradient cx="47.1542" cy="77.6098" r="9.1845" gradientUnits="userSpaceOnUse" id="Sizk498bc1ph"><stop offset="0%" stop-color="#96c9eb"/><stop offset="100%" stop-color="#547387"/></radialGradient></defs><g xmlns="http://www.w3.org/2000/svg">
<g id="linear">

	<linearGradient class="linear" id="SVGID_1_" gradientUnits="userSpaceOnUse" x1="0" y1="0.4025" x2="0" y2="90" gradientTransform="matrix(-1 0 0 1 -187.7129 0)">
		<stop offset="0" style="stop-color:#E6E6E6"></stop>
		<stop offset="1" style="stop-color:#B3B3B3"></stop>
	</linearGradient>
	<rect class="linear" x="52.944" y="5.306" fill="url(#SVGID_1_)" width="10.522" height="87.291"></rect>
	
	<linearGradient class="linear" id="SVGID_2_" gradientUnits="userSpaceOnUse" x1="30" y1="26.2279" x2="70" y2="28.392" gradientTransform="matrix(-1 0 0 1 -187.7129 0)">
		<stop offset="0" style="stop-color:#E6E6E6"></stop>
		<stop offset="1" style="stop-color:#B3B3B3"></stop>
	</linearGradient>
	<rect class="linear" x="49.794" y="19.038" fill="url(#SVGID_2_)" width="14.952" height="17.86"></rect>
	
	<linearGradient class="linear" id="SVGID_3_" gradientUnits="userSpaceOnUse" x1="30" y1="2.132" x2="70" y2="5.7374" gradientTransform="matrix(-1 0 0 1 -187.7129 0)">
		<stop offset="0" style="stop-color:#E6E6E6"></stop>
		<stop offset="1" style="stop-color:#B3B3B3"></stop>
	</linearGradient>
	<polygon class="linear" fill="url(#SVGID_3_)" points="31.087,6.641 65.351,6.641 65.351,0.723 48.236,0.723 31.087,3.838 	"></polygon>
	<linearGradient class="linear" id="SVGID_4_" gradientUnits="userSpaceOnUse" x1="30" y1="14.7161" x2="70" y2="18.201" gradientTransform="matrix(-1 0 0 1 -187.7129 0)">
		<stop offset="0" style="stop-color:#E6E6E6"></stop>
		<stop offset="1" style="stop-color:#B3B3B3"></stop>
	</linearGradient>
	<polygon class="linear" fill="url(#SVGID_4_)" points="31.087,14.767 65.351,14.767 65.351,20.686 48.236,20.686 31.087,17.571 	"></polygon>

</g>
<g id="dark">
	<circle fill="#808080" cx="56.197" cy="27.726" r="8.791"></circle>
	<circle fill="#808080" cx="63.673" cy="24.23" r="3.599"></circle>
	<rect x="31.086" y="6.141" fill="#808080" width="34.264" height="0.5"></rect>
	<rect x="49.794" y="36.648" fill="#808080" width="14.952" height="0.5"></rect>
	<rect x="52.943" y="92.097" fill="#808080" width="10.522" height="0.5"></rect>
</g>
<g id="shadow">
	<path d="M55.439,28.485c0.419,0.419,1.098,0.419,1.517,0c0.419-0.419,0.419-1.098,0-1.518c-0.419-0.419-5.555-4.038-5.555-4.038
		S55.019,28.066,55.439,28.485z"></path>
	<polygon points="57.197,14.767 59.346,14.767 59.346,14.639 60.143,14.639 60.143,13.93 59.346,13.93 59.346,13.347 60.143,13.347 
		60.143,12.638 59.346,12.638 59.346,12.055 60.143,12.055 60.143,11.346 59.346,11.346 59.346,10.763 60.143,10.763 60.143,10.054 
		59.346,10.054 59.346,9.47 60.143,9.47 60.143,8.761 59.346,8.761 59.346,8.178 60.143,8.178 60.143,7.469 59.346,7.469 
		59.346,6.886 57.197,6.886 57.197,7.469 56.405,7.469 56.405,8.178 57.197,8.178 57.197,8.761 56.405,8.761 56.405,9.47 
		57.197,9.47 57.197,10.054 56.405,10.054 56.405,10.763 57.197,10.763 57.197,11.346 56.405,11.346 56.405,12.055 57.197,12.055 
		57.197,12.638 56.405,12.638 56.405,13.347 57.197,13.347 57.197,13.93 56.405,13.93 56.405,14.639 57.197,14.639 	"></polygon>
	<polygon points="59.346,36.898 57.197,36.898 57.197,37.191 56.405,37.191 56.405,37.9 57.197,37.9 57.197,38.483 56.405,38.483 
		56.405,39.192 57.197,39.192 57.197,39.775 56.405,39.775 56.405,40.484 57.197,40.484 57.197,41.068 56.405,41.068 56.405,41.777 
		57.197,41.777 57.197,42.36 56.405,42.36 56.405,43.069 57.197,43.069 57.197,43.652 56.405,43.652 56.405,44.361 57.197,44.361 
		57.197,44.944 56.405,44.944 56.405,45.653 57.197,45.653 57.197,46.237 56.405,46.237 56.405,46.946 57.197,46.946 57.197,47.529 
		56.405,47.529 56.405,48.238 57.197,48.238 57.197,48.821 56.405,48.821 56.405,49.53 57.197,49.53 57.197,50.113 56.405,50.113 
		56.405,50.822 57.197,50.822 57.197,51.406 56.405,51.406 56.405,52.115 57.197,52.115 57.197,52.698 56.405,52.698 56.405,53.407 
		57.197,53.407 57.197,53.99 56.405,53.99 56.405,54.699 57.197,54.699 57.197,55.282 56.405,55.282 56.405,55.991 57.197,55.991 
		57.197,56.575 56.405,56.575 56.405,57.284 57.197,57.284 57.197,57.867 56.405,57.867 56.405,58.576 57.197,58.576 57.197,59.159 
		56.405,59.159 56.405,59.868 57.197,59.868 57.197,60.452 56.405,60.452 56.405,61.16 57.197,61.16 57.197,61.744 56.405,61.744 
		56.405,62.453 57.197,62.453 57.197,63.036 56.405,63.036 56.405,63.745 57.197,63.745 57.197,64.328 56.405,64.328 56.405,65.037 
		57.197,65.037 57.197,65.621 56.405,65.621 56.405,66.329 57.197,66.329 57.197,66.913 56.405,66.913 56.405,67.622 57.197,67.622 
		57.197,68.205 56.405,68.205 56.405,68.914 57.197,68.914 57.197,69.497 56.405,69.497 56.405,70.206 57.197,70.206 57.197,70.79 
		56.405,70.79 56.405,71.498 57.197,71.498 57.197,72.082 56.405,72.082 56.405,72.791 57.197,72.791 57.197,73.374 56.405,73.374 
		56.405,74.083 57.197,74.083 57.197,74.666 56.405,74.666 56.405,75.375 57.197,75.375 57.197,75.959 56.405,75.959 56.405,76.667 
		57.197,76.667 57.197,77.251 56.405,77.251 56.405,77.96 57.197,77.96 57.197,78.543 56.405,78.543 56.405,79.252 57.197,79.252 
		57.197,79.835 56.405,79.835 56.405,80.544 57.197,80.544 57.197,81.128 56.405,81.128 56.405,81.836 57.197,81.836 57.197,82.42 
		56.405,82.42 56.405,83.129 57.197,83.129 57.197,83.712 56.405,83.712 56.405,84.421 57.197,84.421 57.197,85.004 56.405,85.004 
		56.405,85.713 57.197,85.713 57.197,86.297 59.346,86.297 59.346,85.713 60.143,85.713 60.143,85.004 59.346,85.004 59.346,84.421 
		60.143,84.421 60.143,83.712 59.346,83.712 59.346,83.129 60.143,83.129 60.143,82.42 59.346,82.42 59.346,81.836 60.143,81.836 
		60.143,81.128 59.346,81.128 59.346,80.544 60.143,80.544 60.143,79.835 59.346,79.835 59.346,79.252 60.143,79.252 60.143,78.543 
		59.346,78.543 59.346,77.96 60.143,77.96 60.143,77.251 59.346,77.251 59.346,76.667 60.143,76.667 60.143,75.959 59.346,75.959 
		59.346,75.375 60.143,75.375 60.143,74.666 59.346,74.666 59.346,74.083 60.143,74.083 60.143,73.374 59.346,73.374 59.346,72.791 
		60.143,72.791 60.143,72.082 59.346,72.082 59.346,71.498 60.143,71.498 60.143,70.79 59.346,70.79 59.346,70.206 60.143,70.206 
		60.143,69.497 59.346,69.497 59.346,68.914 60.143,68.914 60.143,68.205 59.346,68.205 59.346,67.622 60.143,67.622 60.143,66.913 
		59.346,66.913 59.346,66.329 60.143,66.329 60.143,65.621 59.346,65.621 59.346,65.037 60.143,65.037 60.143,64.328 59.346,64.328 
		59.346,63.745 60.143,63.745 60.143,63.036 59.346,63.036 59.346,62.453 60.143,62.453 60.143,61.744 59.346,61.744 59.346,61.16 
		60.143,61.16 60.143,60.452 59.346,60.452 59.346,59.868 60.143,59.868 60.143,59.159 59.346,59.159 59.346,58.576 60.143,58.576 
		60.143,57.867 59.346,57.867 59.346,57.284 60.143,57.284 60.143,56.575 59.346,56.575 59.346,55.991 60.143,55.991 60.143,55.282 
		59.346,55.282 59.346,54.699 60.143,54.699 60.143,53.99 59.346,53.99 59.346,53.407 60.143,53.407 60.143,52.698 59.346,52.698 
		59.346,52.115 60.143,52.115 60.143,51.406 59.346,51.406 59.346,50.822 60.143,50.822 60.143,50.113 59.346,50.113 59.346,49.53 
		60.143,49.53 60.143,48.821 59.346,48.821 59.346,48.238 60.143,48.238 60.143,47.529 59.346,47.529 59.346,46.946 60.143,46.946 
		60.143,46.237 59.346,46.237 59.346,45.653 60.143,45.653 60.143,44.944 59.346,44.944 59.346,44.361 60.143,44.361 60.143,43.652 
		59.346,43.652 59.346,43.069 60.143,43.069 60.143,42.36 59.346,42.36 59.346,41.777 60.143,41.777 60.143,41.068 59.346,41.068 
		59.346,40.484 60.143,40.484 60.143,39.775 59.346,39.775 59.346,39.192 60.143,39.192 60.143,38.483 59.346,38.483 59.346,37.9 
		60.143,37.9 60.143,37.191 59.346,37.191 	"></polygon>
</g>
<g id="light">
	<line fill="none" stroke="#E6E6E6" stroke-width="1.0513" x1="58.343" y1="92.908" x2="58.343" y2="99.75"></line>
	<line fill="none" stroke="#E6E6E6" stroke-width="1.0513" x1="58.343" y1="36.991" x2="58.343" y2="86.36"></line>
</g>
<g id="hlight">
	<line fill="none" stroke="#FFFFFF" stroke-width="0.5256" x1="58.499" y1="93.158" x2="58.499" y2="99.958"></line>
	<line fill="none" stroke="#FFFFFF" stroke-width="0.5256" x1="58.499" y1="37.741" x2="58.499" y2="86.317"></line>
	<line fill="none" stroke="#FFFFFF" stroke-width="0.2077" x1="63.414" y1="14.625" x2="63.414" y2="7.306"></line>
	<rect x="63.164" y="37.125" fill="#FFFFFF" width="0.5" height="55.472"></rect>
	<polygon fill="#FFFFFF" points="65.601,6.641 65.101,6.641 65.101,0.973 48.236,0.973 48.236,0.473 65.601,0.473 	"></polygon>
	<polygon fill="#FFFFFF" points="65.601,20.686 65.101,20.686 65.101,15.018 31.086,15.018 31.086,14.518 65.601,14.518 	"></polygon>
	<path fill="#FFFFFF" d="M61.753,22.171c-3.068-3.068-8.043-3.068-11.111,0c-3.068,3.068-3.068,8.043,0,11.111
		c3.068,3.068,8.043,3.068,11.111,0C64.821,30.214,64.821,25.239,61.753,22.171z M56.956,28.485c-0.419,0.419-1.098,0.419-1.517,0
		C55.019,28.066,51.4,22.93,51.4,22.93s5.137,3.619,5.555,4.038C57.375,27.387,57.375,28.066,56.956,28.485z"></path>
</g>
</g></svg>