<svg version="1.1" id="Layer_1" xmlns="http://www.w3.org/2000/svg" xmlns:xlink="http://www.w3.org/1999/xlink" x="1px" y="35px" width="98px" height="39px" viewBox="1 35 98 39" enable-background="1 35 98 39" xml:space="preserve"><desc>Copyright Opto 22</desc> <p id="title">Conveyor</p><desc>Created with Snap</desc><defs><linearGradient x1="27.2012" y1="52.8758" x2="27.408" y2="53.5183" gradientUnits="userSpaceOnUse" id="Sizk498bc1mo"><stop offset="0%" stop-color="#c6e2ff"/><stop offset="37.63%" stop-color="#e0efff"/><stop offset="100%" stop-color="#4c5e70"/></linearGradient><linearGradient x1="31.5635" y1="48.438" x2="32.6514" y2="51.8165" gradientUnits="userSpaceOnUse" id="Sizk498bc1mv"><stop offset="0%" stop-color="#c6e2ff"/><stop offset="37.63%" stop-color="#e0efff"/><stop offset="100%" stop-color="#4c5e70"/></linearGradient><linearGradient x1="61.0123" y1="49.4725" x2="62.1673" y2="52.1675" gradientUnits="userSpaceOnUse" id="Sizk498bc1n2"><stop offset="0%" stop-color="#c6e2ff"/><stop offset="37.63%" stop-color="#e0efff"/><stop offset="100%" stop-color="#4c5e70"/></linearGradient><linearGradient x1="4.3781" y1="71.2322" x2="2.7807" y2="89.3924" gradientUnits="userSpaceOnUse" id="Sizk498bc1n8"><stop offset="1.06%" stop-color="#c6e2ff"/><stop offset="77.25%" stop-color="#4c5e70"/></linearGradient><linearGradient x1="25.0381" y1="72.4517" x2="23.3727" y2="91.3841" gradientUnits="userSpaceOnUse" id="Sizk498bc1nd"><stop offset="1.06%" stop-color="#c6e2ff"/><stop offset="77.25%" stop-color="#4c5e70"/></linearGradient><linearGradient x1="70.6641" y1="27.4651" x2="71.8002" y2="33.9979" gradientUnits="userSpaceOnUse" id="Sizk498bc1ni"><stop offset="12.93%" stop-color="#c6e2ff"/><stop offset="100%" stop-color="#4c5e70"/></linearGradient><linearGradient x1="65.4051" y1="7.1391" x2="42.0463" y2="7.1391" gradientUnits="userSpaceOnUse" id="Sizk498bc1nn"><stop offset="0%" stop-color="#c6e2ff"/><stop offset="100%" stop-color="#4c5e70"/></linearGradient><linearGradient x1="21.7043" y1="49.1433" x2="24.8936" y2="56.534" gradientUnits="userSpaceOnUse" id="Sizk498bc1nt"><stop offset="0%" stop-color="#c6e2ff"/><stop offset="37.63%" stop-color="#e0efff"/><stop offset="100%" stop-color="#4c5e70"/></linearGradient><linearGradient x1="58.2238" y1="50.5238" x2="58.5303" y2="51.2392" gradientUnits="userSpaceOnUse" id="Sizk498bc1o0"><stop offset="0%" stop-color="#c6e2ff"/><stop offset="37.63%" stop-color="#e0efff"/><stop offset="100%" stop-color="#4c5e70"/></linearGradient><linearGradient x1="52.6983" y1="50.7103" x2="56.1965" y2="57.6192" gradientUnits="userSpaceOnUse" id="Sizk498bc1o7"><stop offset="0%" stop-color="#c6e2ff"/><stop offset="37.63%" stop-color="#e0efff"/><stop offset="100%" stop-color="#4c5e70"/></linearGradient><radialGradient cx="47.1542" cy="77.6098" r="9.1845" gradientUnits="userSpaceOnUse" id="Sizk498bc1oe"><stop offset="0%" stop-color="#c6e2ff"/><stop offset="100%" stop-color="#4c5e70"/></radialGradient><linearGradient x1="27.2012" y1="52.8758" x2="27.408" y2="53.5183" gradientUnits="userSpaceOnUse" id="Sizk498bc1oh"><stop offset="0%" stop-color="#96c9eb"/><stop offset="37.63%" stop-color="#b0dfff"/><stop offset="100%" stop-color="#547387"/></linearGradient><linearGradient x1="31.5635" y1="48.438" x2="32.6514" y2="51.8165" gradientUnits="userSpaceOnUse" id="Sizk498bc1ol"><stop offset="0%" stop-color="#96c9eb"/><stop offset="37.63%" stop-color="#b0dfff"/><stop offset="100%" stop-color="#547387"/></linearGradient><linearGradient x1="61.0123" y1="49.4725" x2="62.1673" y2="52.1675" gradientUnits="userSpaceOnUse" id="Sizk498bc1op"><stop offset="0%" stop-color="#96c9eb"/><stop offset="37.63%" stop-color="#b0dfff"/><stop offset="100%" stop-color="#547387"/></linearGradient><linearGradient x1="4.3781" y1="71.2322" x2="2.7807" y2="89.3924" gradientUnits="userSpaceOnUse" id="Sizk498bc1ot"><stop offset="1.06%" stop-color="#96c9eb"/><stop offset="77.25%" stop-color="#547387"/></linearGradient><linearGradient x1="25.0381" y1="72.4517" x2="23.3727" y2="91.3841" gradientUnits="userSpaceOnUse" id="Sizk498bc1ow"><stop offset="1.06%" stop-color="#96c9eb"/><stop offset="77.25%" stop-color="#547387"/></linearGradient><linearGradient x1="70.6641" y1="27.4651" x2="71.8002" y2="33.9979" gradientUnits="userSpaceOnUse" id="Sizk498bc1oz"><stop offset="12.93%" stop-color="#96c9eb"/><stop offset="100%" stop-color="#547387"/></linearGradient><linearGradient x1="65.4051" y1="7.1391" x2="42.0463" y2="7.1391" gradientUnits="userSpaceOnUse" id="Sizk498bc1p2"><stop offset="0%" stop-color="#96c9eb"/><stop offset="100%" stop-color="#547387"/></linearGradient><linearGradient x1="21.7043" y1="49.1433" x2="24.8936" y2="56.534" gradientUnits="userSpaceOnUse" id="Sizk498bc1p5"><stop offset="0%" stop-color="#96c9eb"/><stop offset="37.63%" stop-color="#b0dfff"/><stop offset="100%" stop-color="#547387"/></linearGradient><linearGradient x1="58.2238" y1="50.5238" x2="58.5303" y2="51.2392" gradientUnits="userSpaceOnUse" id="Sizk498bc1p9"><stop offset="0%" stop-color="#96c9eb"/><stop offset="37.63%" stop-color="#b0dfff"/><stop offset="100%" stop-color="#547387"/></linearGradient><linearGradient x1="52.6983" y1="50.7103" x2="56.1965" y2="57.6192" gradientUnits="userSpaceOnUse" id="Sizk498bc1pd"><stop offset="0%" stop-color="#96c9eb"/><stop offset="37.63%" stop-color="#b0dfff"/><stop offset="100%" stop-color="#547387"/></linearGradient><radialGradient cx="47.1542" cy="77.6098" r="9.1845" gradientUnits="userSpaceOnUse" id="Sizk498bc1ph"><stop offset="0%" stop-color="#96c9eb"/><stop offset="100%" stop-color="#547387"/></radialGradient></defs><g transform="matrix(1,0,0,1,0,0)" xmlns="http://www.w3.org/2000/svg">
<g id="shape">
	<path fill="#77a3bf" d="M93.315,35.948H6.975c-3.277,0-5.933,2.656-5.933,5.933c0,2.8,1.942,5.141,4.551,5.765l0.717,2.197
		c-0.903,0.954-1.466,2.235-1.466,3.653c0,2.942,2.385,5.326,5.326,5.326c0.189,0,0.368-0.036,0.552-0.056v13.235H6.674v2.292
		h11.262V71.98h-3.935V57.184c0.606-0.63,1.044-1.411,1.283-2.278h1.194c0.826,0,1.495-0.669,1.495-1.495s-0.669-1.495-1.495-1.495
		h-1.215v0.104c-0.244-0.839-0.672-1.597-1.261-2.21v-1.995h71.661v24.187h-4.048v2.292h11.262v-2.313h-3.935V47.816h4.375
		c3.277,0,5.933-2.656,5.933-5.933C99.248,38.604,96.591,35.948,93.315,35.948z M93.315,37.256c-1.37,0-2.588,0.607-3.435,1.554
		h-2.681c-0.276-0.703-0.956-1.203-1.757-1.203s-1.481,0.5-1.757,1.203h-8.252c-0.276-0.703-0.956-1.203-1.757-1.203
		s-1.481,0.5-1.757,1.203h-8.251c-0.276-0.703-0.956-1.203-1.757-1.203s-1.481,0.5-1.757,1.203h-8.252
		c-0.276-0.703-0.956-1.203-1.757-1.203s-1.481,0.5-1.757,1.203h-8.252c-0.276-0.703-0.956-1.203-1.757-1.203
		s-1.481,0.5-1.757,1.203H28.37c-0.276-0.703-0.956-1.203-1.757-1.203s-1.481,0.5-1.757,1.203h-8.252
		c-0.276-0.703-0.956-1.203-1.757-1.203s-1.481,0.5-1.757,1.203h-2.68c-0.847-0.947-2.065-1.554-3.435-1.554H93.315z M14,46.506
		v-3.631h71.661v3.631H14z M88.94,46.506v-3.188c0.607,1.846,2.325,3.188,4.374,3.188H88.94z" style=""></path>
</g>
<g id="light">
	<path fill="#96c9eb" d="M93.315,39.568c-0.386,0-0.745,0.104-1.065,0.271l-2.111-1.029H9.219l-1.535,0.88
		c-0.225-0.073-0.46-0.122-0.709-0.122c-1.277,0-2.313,1.035-2.313,2.313c0,1.277,1.035,2.313,2.313,2.313
		c0.92,0,1.707-0.541,2.08-1.319h1.666v-3.25H14v3.25h71.661v-3.25h3.279v3.25h2.294c0.373,0.778,1.16,1.319,2.08,1.319
		c1.277,0,2.313-1.035,2.313-2.313C95.627,40.604,94.592,39.568,93.315,39.568z" style=""></path>
</g>
<g id="dark">
	<line fill="#61859c" x1="88.94" y1="71.98" x2="88.94" y2="47.815" style="" stroke="#61859c"></line>
	<line fill="#61859c" x1="87.94" y1="71.98" x2="87.94" y2="47.815" style="" stroke="#61859c"></line>
	<g style="" fill="#61859c">
		<rect x="13" y="39.625" fill="#61859c" width="1" height="32.355" style=""></rect>
		<rect x="87.94" y="39.625" fill="#61859c" width="1" height="32.355" style=""></rect>
	</g>
</g>
<g id="shadow">
	<g style="" fill="#547387">
		<path d="M7.412,53.029c0.198-1.172,1.117-2.091,2.289-2.289v-1.682c-2.099,0.22-3.751,1.872-3.971,3.971L7.412,53.029
			L7.412,53.029z" style="" fill="#547387"></path>
		<path d="M9.701,56.253c-1.172-0.198-2.091-1.117-2.289-2.289H5.73c0.22,2.099,1.872,3.75,3.971,3.971V56.253z" style="" fill="#547387"></path>
		<g style="" fill="#547387">
			<path d="M14,51.235v1.794h0.607C14.538,52.375,14.317,51.773,14,51.235z" style="" fill="#547387"></path>
			<path d="M14,53.964v1.794c0.317-0.538,0.538-1.14,0.607-1.794H14z" style="" fill="#547387"></path>
		</g>
	</g>
	<g style="" fill="#547387">
		<rect x="14" y="41.95" width="71.661" height="0.925" style="" fill="#547387"></rect>
	</g>
</g>
<g id="hlight">
	<polygon fill="#b0dfff" points="91.314,36.448 8.975,36.448 6.975,35.948 93.314,35.948 	" style=""></polygon>
</g>
</g></svg>