<svg version="1.1" id="Layer_1" xmlns="http://www.w3.org/2000/svg" xmlns:xlink="http://www.w3.org/1999/xlink" x="0px" y="0px" width="100px" height="100px" viewBox="0 0 100 100" enable-background="0 0 100 100" xml:space="preserve"><desc>Copyright Opto 22</desc> <p id="title">Fan</p><desc>Created with Snap</desc><defs><linearGradient x1="27.2012" y1="52.8758" x2="27.408" y2="53.5183" gradientUnits="userSpaceOnUse" id="Sizk498bc1mo"><stop offset="0%" stop-color="#c6e2ff"/><stop offset="37.63%" stop-color="#e0efff"/><stop offset="100%" stop-color="#4c5e70"/></linearGradient><linearGradient x1="31.5635" y1="48.438" x2="32.6514" y2="51.8165" gradientUnits="userSpaceOnUse" id="Sizk498bc1mv"><stop offset="0%" stop-color="#c6e2ff"/><stop offset="37.63%" stop-color="#e0efff"/><stop offset="100%" stop-color="#4c5e70"/></linearGradient><linearGradient x1="61.0123" y1="49.4725" x2="62.1673" y2="52.1675" gradientUnits="userSpaceOnUse" id="Sizk498bc1n2"><stop offset="0%" stop-color="#c6e2ff"/><stop offset="37.63%" stop-color="#e0efff"/><stop offset="100%" stop-color="#4c5e70"/></linearGradient><linearGradient x1="4.3781" y1="71.2322" x2="2.7807" y2="89.3924" gradientUnits="userSpaceOnUse" id="Sizk498bc1n8"><stop offset="1.06%" stop-color="#c6e2ff"/><stop offset="77.25%" stop-color="#4c5e70"/></linearGradient><linearGradient x1="25.0381" y1="72.4517" x2="23.3727" y2="91.3841" gradientUnits="userSpaceOnUse" id="Sizk498bc1nd"><stop offset="1.06%" stop-color="#c6e2ff"/><stop offset="77.25%" stop-color="#4c5e70"/></linearGradient><linearGradient x1="70.6641" y1="27.4651" x2="71.8002" y2="33.9979" gradientUnits="userSpaceOnUse" id="Sizk498bc1ni"><stop offset="12.93%" stop-color="#c6e2ff"/><stop offset="100%" stop-color="#4c5e70"/></linearGradient><linearGradient x1="65.4051" y1="7.1391" x2="42.0463" y2="7.1391" gradientUnits="userSpaceOnUse" id="Sizk498bc1nn"><stop offset="0%" stop-color="#c6e2ff"/><stop offset="100%" stop-color="#4c5e70"/></linearGradient><linearGradient x1="21.7043" y1="49.1433" x2="24.8936" y2="56.534" gradientUnits="userSpaceOnUse" id="Sizk498bc1nt"><stop offset="0%" stop-color="#c6e2ff"/><stop offset="37.63%" stop-color="#e0efff"/><stop offset="100%" stop-color="#4c5e70"/></linearGradient><linearGradient x1="58.2238" y1="50.5238" x2="58.5303" y2="51.2392" gradientUnits="userSpaceOnUse" id="Sizk498bc1o0"><stop offset="0%" stop-color="#c6e2ff"/><stop offset="37.63%" stop-color="#e0efff"/><stop offset="100%" stop-color="#4c5e70"/></linearGradient><linearGradient x1="52.6983" y1="50.7103" x2="56.1965" y2="57.6192" gradientUnits="userSpaceOnUse" id="Sizk498bc1o7"><stop offset="0%" stop-color="#c6e2ff"/><stop offset="37.63%" stop-color="#e0efff"/><stop offset="100%" stop-color="#4c5e70"/></linearGradient><radialGradient cx="47.1542" cy="77.6098" r="9.1845" gradientUnits="userSpaceOnUse" id="Sizk498bc1oe"><stop offset="0%" stop-color="#c6e2ff"/><stop offset="100%" stop-color="#4c5e70"/></radialGradient><linearGradient x1="27.2012" y1="52.8758" x2="27.408" y2="53.5183" gradientUnits="userSpaceOnUse" id="Sizk498bc1oh"><stop offset="0%" stop-color="#96c9eb"/><stop offset="37.63%" stop-color="#b0dfff"/><stop offset="100%" stop-color="#547387"/></linearGradient><linearGradient x1="31.5635" y1="48.438" x2="32.6514" y2="51.8165" gradientUnits="userSpaceOnUse" id="Sizk498bc1ol"><stop offset="0%" stop-color="#96c9eb"/><stop offset="37.63%" stop-color="#b0dfff"/><stop offset="100%" stop-color="#547387"/></linearGradient><linearGradient x1="61.0123" y1="49.4725" x2="62.1673" y2="52.1675" gradientUnits="userSpaceOnUse" id="Sizk498bc1op"><stop offset="0%" stop-color="#96c9eb"/><stop offset="37.63%" stop-color="#b0dfff"/><stop offset="100%" stop-color="#547387"/></linearGradient><linearGradient x1="4.3781" y1="71.2322" x2="2.7807" y2="89.3924" gradientUnits="userSpaceOnUse" id="Sizk498bc1ot"><stop offset="1.06%" stop-color="#96c9eb"/><stop offset="77.25%" stop-color="#547387"/></linearGradient><linearGradient x1="25.0381" y1="72.4517" x2="23.3727" y2="91.3841" gradientUnits="userSpaceOnUse" id="Sizk498bc1ow"><stop offset="1.06%" stop-color="#96c9eb"/><stop offset="77.25%" stop-color="#547387"/></linearGradient><linearGradient x1="70.6641" y1="27.4651" x2="71.8002" y2="33.9979" gradientUnits="userSpaceOnUse" id="Sizk498bc1oz"><stop offset="12.93%" stop-color="#96c9eb"/><stop offset="100%" stop-color="#547387"/></linearGradient><linearGradient x1="65.4051" y1="7.1391" x2="42.0463" y2="7.1391" gradientUnits="userSpaceOnUse" id="Sizk498bc1p2"><stop offset="0%" stop-color="#96c9eb"/><stop offset="100%" stop-color="#547387"/></linearGradient><linearGradient x1="21.7043" y1="49.1433" x2="24.8936" y2="56.534" gradientUnits="userSpaceOnUse" id="Sizk498bc1p5"><stop offset="0%" stop-color="#96c9eb"/><stop offset="37.63%" stop-color="#b0dfff"/><stop offset="100%" stop-color="#547387"/></linearGradient><linearGradient x1="58.2238" y1="50.5238" x2="58.5303" y2="51.2392" gradientUnits="userSpaceOnUse" id="Sizk498bc1p9"><stop offset="0%" stop-color="#96c9eb"/><stop offset="37.63%" stop-color="#b0dfff"/><stop offset="100%" stop-color="#547387"/></linearGradient><linearGradient x1="52.6983" y1="50.7103" x2="56.1965" y2="57.6192" gradientUnits="userSpaceOnUse" id="Sizk498bc1pd"><stop offset="0%" stop-color="#96c9eb"/><stop offset="37.63%" stop-color="#b0dfff"/><stop offset="100%" stop-color="#547387"/></linearGradient><radialGradient cx="47.1542" cy="77.6098" r="9.1845" gradientUnits="userSpaceOnUse" id="Sizk498bc1ph"><stop offset="0%" stop-color="#96c9eb"/><stop offset="100%" stop-color="#547387"/></radialGradient></defs><g xmlns="http://www.w3.org/2000/svg">
<g id="light">
	<path fill="#CCCCCC" d="M78.754,19.747C85.873,27.234,90.25,37.353,90.25,48.5c0,23.058-18.692,41.75-41.75,41.75
		c-11.147,0-21.266-4.377-28.754-11.496c7.606,8,18.343,12.996,30.254,12.996c23.058,0,41.75-18.692,41.75-41.75
		C91.75,38.09,86.754,27.353,78.754,19.747z"></path>
</g>
<g id="dark">
	<path fill="#333333" d="M57.75,47.407c0,0,16.75-15.5,25.75-15.5s7,20.5,4.5,23.75s-31-3-31-3L57.75,47.407z"></path>
	<path fill="#333333" d="M42.365,52.593c0,0-16.75,15.5-25.75,15.5s-7-20.5-4.5-23.75s31,3,31,3L42.365,52.593z"></path>
	<path fill="#333333" d="M52.651,57.692c0,0,15.5,16.75,15.5,25.75s-20.5,7-23.75,4.5s3-31,3-31L52.651,57.692z"></path>
	<path fill="#333333" d="M47.464,42.308c0,0-15.5-16.75-15.5-25.75s20.5-7,23.75-4.5s-3,31-3,31L47.464,42.308z"></path>
</g>
<g id="shape">
	<path fill="#999999" d="M0,0v100h100V0H0z M50,91.75C26.942,91.75,8.25,73.058,8.25,50C8.25,26.942,26.942,8.25,50,8.25
		S91.75,26.942,91.75,50C91.75,73.058,73.058,91.75,50,91.75z"></path>
	<path fill="#999999" d="M58.75,50c0-1.874-0.595-3.607-1.598-5.031l33.43-33.43l-2.121-2.121l-33.43,33.43
		C53.607,41.845,51.874,41.25,50,41.25s-3.607,0.595-5.031,1.598l-33.43-33.43l-2.121,2.121l33.43,33.43
		C41.845,46.393,41.25,48.126,41.25,50s0.595,3.607,1.598,5.031l-33.43,33.43l2.121,2.121l33.43-33.43
		c1.424,1.003,3.156,1.598,5.031,1.598s3.607-0.595,5.031-1.598l33.43,33.43l2.121-2.121l-33.43-33.43
		C58.155,53.607,58.75,51.874,58.75,50z"></path>
</g>
<g id="shadow">
	<path fill="#000000" d="M54,50c0,0.554-0.113,1.082-0.317,1.562l2.572,2.572C57.04,52.948,57.5,51.528,57.5,50c0-1.529-0.46-2.948-1.245-4.134
		l-2.572,2.572C53.887,48.918,54,49.446,54,50z"></path>
	<path d="M48.438,46.317C48.918,46.113,49.446,46,50,46s1.082,0.113,1.562,0.317l2.572-2.572C52.948,42.96,51.529,42.5,50,42.5
		s-2.948,0.46-4.134,1.245L48.438,46.317z"></path>
	<path d="M46,50c0-0.554,0.113-1.082,0.317-1.562l-2.572-2.572C42.96,47.052,42.5,48.471,42.5,50c0,1.528,0.46,2.948,1.245,4.134
		l2.572-2.572C46.113,51.082,46,50.554,46,50z"></path>
	<path d="M51.562,53.683C51.082,53.887,50.554,54,50,54s-1.082-0.113-1.562-0.317l-2.572,2.572C47.052,57.04,48.471,57.5,50,57.5
		s2.948-0.46,4.134-1.245L51.562,53.683z"></path>
	<path fill="#999999" d="M56.902,54.781c1.003-1.424,1.598-3.156,1.598-5.031"></path>
	<path fill="#1A1A1A" d="M57.312,55.069l-0.818-0.576C57.479,53.094,58,51.454,58,49.75h1C59,51.661,58.416,53.501,57.312,55.069z"></path>
	<path fill="#999999" d="M49.75,58.5c1.874,0,3.607-0.595,5.031-1.598"></path>
	<path fill="#1A1A1A" d="M49.75,59v-1c1.704,0,3.344-0.521,4.743-1.507l0.576,0.818C53.501,58.416,51.661,59,49.75,59z"></path>
	<path fill="#999999" d="M21.289,80.332l23.43-23.43"></path>
	
		<rect x="32.504" y="52.05" transform="matrix(0.7071 0.7071 -0.7071 0.7071 58.1864 -3.2399)" fill="#1A1A1A" width="1" height="33.135"></rect>
	<path fill="#999999" d="M56.902,44.719l23.43-23.43"></path>
	
		<rect x="68.117" y="16.437" transform="matrix(0.7071 0.7071 -0.7071 0.7071 43.435 -38.853)" fill="#1A1A1A" width="1" height="33.135"></rect>
	<path d="M50,8.25c-10.989,0-20.981,4.252-28.436,11.193l1.5,1.5c2.801-2.608,5.96-4.836,9.396-6.601
		c1.852-3.78,8.58-4.685,14.395-4.326C48.381,9.847,49.929,9.75,51.5,9.75c10.172,0,19.481,3.653,26.723,9.7l0.097-0.097
		C70.877,12.47,60.937,8.25,50,8.25z"></path>
	<path d="M12.181,65.55c-1.512-2.306-2.117-5.882-2.174-9.469C9.843,54.576,9.75,53.049,9.75,51.5
		c0-10.989,4.252-20.981,11.193-28.436l-1.5-1.5C12.502,29.019,8.25,39.011,8.25,50c0,10.937,4.22,20.877,11.103,28.319l0.097-0.097
		C16.335,74.491,13.852,70.215,12.181,65.55z"></path>
</g>
<g id="hlight">
	
		<rect x="30.883" y="50.429" transform="matrix(0.7071 0.7071 -0.7071 0.7071 56.5653 -2.5685)" fill="#E6E6E6" width="1" height="33.135"></rect>
	<path fill="#E6E6E6" d="M42,50.25h-1c0-1.911,0.584-3.75,1.689-5.319l0.817,0.576C42.521,46.906,42,48.546,42,50.25z"></path>
	<path fill="#E6E6E6" d="M45.507,43.507l-0.576-0.817C46.5,41.584,48.339,41,50.25,41v1C48.546,42,46.906,42.521,45.507,43.507z"></path>
	
		<rect x="66.496" y="14.816" transform="matrix(0.7071 0.7071 -0.7071 0.7071 41.8139 -38.1815)" fill="#E6E6E6" width="1" height="33.135"></rect>
</g>
</g></svg>