<?xml version="1.0" encoding="iso-8859-1"?>
<!-- Generator: Adobe Illustrator 19.0.0, SVG Export Plug-In . SVG Version: 6.00 Build 0)  -->
<svg version="1.1" id="Layer_1" xmlns="http://www.w3.org/2000/svg" xmlns:xlink="http://www.w3.org/1999/xlink" x="0px" y="0px"
	 viewBox="0 0 512 512" style="enable-background:new 0 0 512 512;" xml:space="preserve">
<path style="fill:#F26924;" d="M256,277.113c-14.568,0-26.392,11.824-26.392,26.392s11.824,26.392,26.392,26.392
	s26.392-11.824,26.392-26.392S270.568,277.113,256,277.113z M256,81.814c84.559,0,153.072,68.513,153.072,153.072
	S340.559,387.959,256,387.959s-153.072-68.513-153.072-153.072S171.441,81.814,256,81.814z"/>
<path style="fill:#7E8488;" d="M298.227,430.925v73.158h-84.454v-73.158C123.302,411.5,55.423,331.164,55.423,234.887
	c0-99.972,73.264-182.631,168.907-197.833V7.918h63.34v29.136c95.644,15.202,168.907,97.861,168.907,197.833
	C456.577,331.164,388.698,411.5,298.227,430.925z M409.072,234.887c0-84.559-68.513-153.072-153.072-153.072
	s-153.072,68.513-153.072,153.072S171.441,387.959,256,387.959S409.072,319.446,409.072,234.887z"/>
<path style="fill:#5A5F62;" d="M102.928,234.887c0-84.559,68.513-153.072,153.072-153.072V7.918h-31.67v29.136
	C128.686,52.256,55.423,134.915,55.423,234.887c0,96.277,67.88,176.614,158.351,196.038v73.158H256V387.959
	C171.441,387.959,102.928,319.446,102.928,234.887z"/>
<path style="fill:#F04E25;" d="M229.608,303.505c0-14.568,11.824-26.392,26.392-26.392V81.814
	c-84.559,0-153.072,68.513-153.072,153.072S171.441,387.959,256,387.959v-58.062C241.432,329.897,229.608,318.073,229.608,303.505z"
	/>
<g>
	<path style="fill:#FFFFFF;" d="M256,277.113c-14.568,0-26.392,11.824-26.392,26.392s11.824,26.392,26.392,26.392
		s26.392-11.824,26.392-26.392S270.568,277.113,256,277.113z"/>
	<rect x="234.887" y="432.825" style="fill:#FFFFFF;" width="42.227" height="15.835"/>
	<rect x="234.887" y="464.495" style="fill:#FFFFFF;" width="42.227" height="15.835"/>
	<path style="fill:#FFFFFF;" d="M256,110.845c-68.397,0-124.041,55.644-124.041,124.041v7.918h44.866v-15.835H148.08
		c1.639-22.571,10.238-43.242,23.648-59.879l25.889,25.889l11.196-11.196L182.54,155.51c17.495-16.201,40.332-26.711,65.541-28.542
		v34.022h15.835v-34.022c25.208,1.832,48.047,12.341,65.541,28.542l-26.273,26.274l11.196,11.196l25.889-25.889
		c13.41,16.636,22.009,37.307,23.648,59.879h-28.743v15.835h44.866v-7.918C380.041,166.49,324.397,110.845,256,110.845z"/>
</g>
<path d="M256,73.897c-88.77,0-160.99,72.219-160.99,160.99S167.23,395.876,256,395.876s160.99-72.219,160.99-160.99
	S344.77,73.897,256,73.897z M256,380.041c-80.039,0-145.155-65.116-145.155-145.155S175.961,89.732,256,89.732
	s145.155,65.116,145.155,145.155S336.039,380.041,256,380.041z"/>
<path d="M413.983,99.007c-30.714-35.574-72.545-59.76-118.396-68.599V0h-79.175v30.409c-45.851,8.839-87.682,33.026-118.396,68.599
	c-32.573,37.728-50.512,85.983-50.512,135.88c0,47.97,16.706,94.796,47.04,131.853c28.533,34.858,67.865,59.714,111.311,70.48V512
	h100.289v-74.78c43.446-10.765,82.778-35.621,111.311-70.48c30.334-37.057,47.04-83.884,47.04-131.853
	C464.495,184.99,446.556,136.735,413.983,99.007z M405.202,356.71c-27.632,33.757-66.214,57.365-108.637,66.473l-6.256,1.344v71.638
	h-68.619v-71.638l-6.256-1.343c-42.423-9.108-81.005-32.716-108.637-66.473C78.774,322.474,63.34,279.21,63.34,234.887
	c0-46.098,16.572-90.679,46.663-125.531c29.757-34.467,70.802-57.366,115.569-64.482l6.675-1.061V15.835h47.505v27.977l6.675,1.061
	c44.769,7.115,85.812,30.016,115.571,64.482c30.09,34.852,46.662,79.433,46.662,125.531
	C448.66,279.21,433.226,322.474,405.202,356.71z"/>
<path d="M263.918,270.128v-93.303h-15.835v93.303c-15.112,3.585-26.392,17.184-26.392,33.377c0,18.918,15.392,34.309,34.309,34.309
	s34.309-15.392,34.309-34.309C290.309,287.312,279.029,273.713,263.918,270.128z M256,321.979c-10.186,0-18.474-8.288-18.474-18.474
	c0-10.186,8.288-18.474,18.474-18.474c10.186,0,18.474,8.288,18.474,18.474C274.474,313.691,266.186,321.979,256,321.979z"/>
<rect x="155.711" y="263.918" width="21.113" height="15.835"/>
<rect x="335.175" y="263.918" width="21.113" height="15.835"/>
<g>
</g>
<g>
</g>
<g>
</g>
<g>
</g>
<g>
</g>
<g>
</g>
<g>
</g>
<g>
</g>
<g>
</g>
<g>
</g>
<g>
</g>
<g>
</g>
<g>
</g>
<g>
</g>
<g>
</g>
</svg>
