<svg version="1.1" id="Layer_1" xmlns="http://www.w3.org/2000/svg" xmlns:xlink="http://www.w3.org/1999/xlink" x="0px" y="20px" width="98px" height="59px" viewBox="0 20 98 59" enable-background="0 20 98 59" xml:space="preserve"><desc>Copyright Opto 22</desc> <p id="title">Gears</p><desc>Created with Snap</desc><defs><linearGradient x1="27.2012" y1="52.8758" x2="27.408" y2="53.5183" gradientUnits="userSpaceOnUse" id="Sizk498bc1mo"><stop offset="0%" stop-color="#c6e2ff"/><stop offset="37.63%" stop-color="#e0efff"/><stop offset="100%" stop-color="#4c5e70"/></linearGradient><linearGradient x1="31.5635" y1="48.438" x2="32.6514" y2="51.8165" gradientUnits="userSpaceOnUse" id="Sizk498bc1mv"><stop offset="0%" stop-color="#c6e2ff"/><stop offset="37.63%" stop-color="#e0efff"/><stop offset="100%" stop-color="#4c5e70"/></linearGradient><linearGradient x1="61.0123" y1="49.4725" x2="62.1673" y2="52.1675" gradientUnits="userSpaceOnUse" id="Sizk498bc1n2"><stop offset="0%" stop-color="#c6e2ff"/><stop offset="37.63%" stop-color="#e0efff"/><stop offset="100%" stop-color="#4c5e70"/></linearGradient><linearGradient x1="4.3781" y1="71.2322" x2="2.7807" y2="89.3924" gradientUnits="userSpaceOnUse" id="Sizk498bc1n8"><stop offset="1.06%" stop-color="#c6e2ff"/><stop offset="77.25%" stop-color="#4c5e70"/></linearGradient><linearGradient x1="25.0381" y1="72.4517" x2="23.3727" y2="91.3841" gradientUnits="userSpaceOnUse" id="Sizk498bc1nd"><stop offset="1.06%" stop-color="#c6e2ff"/><stop offset="77.25%" stop-color="#4c5e70"/></linearGradient><linearGradient x1="70.6641" y1="27.4651" x2="71.8002" y2="33.9979" gradientUnits="userSpaceOnUse" id="Sizk498bc1ni"><stop offset="12.93%" stop-color="#c6e2ff"/><stop offset="100%" stop-color="#4c5e70"/></linearGradient><linearGradient x1="65.4051" y1="7.1391" x2="42.0463" y2="7.1391" gradientUnits="userSpaceOnUse" id="Sizk498bc1nn"><stop offset="0%" stop-color="#c6e2ff"/><stop offset="100%" stop-color="#4c5e70"/></linearGradient><linearGradient x1="21.7043" y1="49.1433" x2="24.8936" y2="56.534" gradientUnits="userSpaceOnUse" id="Sizk498bc1nt"><stop offset="0%" stop-color="#c6e2ff"/><stop offset="37.63%" stop-color="#e0efff"/><stop offset="100%" stop-color="#4c5e70"/></linearGradient><linearGradient x1="58.2238" y1="50.5238" x2="58.5303" y2="51.2392" gradientUnits="userSpaceOnUse" id="Sizk498bc1o0"><stop offset="0%" stop-color="#c6e2ff"/><stop offset="37.63%" stop-color="#e0efff"/><stop offset="100%" stop-color="#4c5e70"/></linearGradient><linearGradient x1="52.6983" y1="50.7103" x2="56.1965" y2="57.6192" gradientUnits="userSpaceOnUse" id="Sizk498bc1o7"><stop offset="0%" stop-color="#c6e2ff"/><stop offset="37.63%" stop-color="#e0efff"/><stop offset="100%" stop-color="#4c5e70"/></linearGradient><radialGradient cx="47.1542" cy="77.6098" r="9.1845" gradientUnits="userSpaceOnUse" id="Sizk498bc1oe"><stop offset="0%" stop-color="#c6e2ff"/><stop offset="100%" stop-color="#4c5e70"/></radialGradient><linearGradient x1="27.2012" y1="52.8758" x2="27.408" y2="53.5183" gradientUnits="userSpaceOnUse" id="Sizk498bc1oh"><stop offset="0%" stop-color="#96c9eb"/><stop offset="37.63%" stop-color="#b0dfff"/><stop offset="100%" stop-color="#547387"/></linearGradient><linearGradient x1="31.5635" y1="48.438" x2="32.6514" y2="51.8165" gradientUnits="userSpaceOnUse" id="Sizk498bc1ol"><stop offset="0%" stop-color="#96c9eb"/><stop offset="37.63%" stop-color="#b0dfff"/><stop offset="100%" stop-color="#547387"/></linearGradient><linearGradient x1="61.0123" y1="49.4725" x2="62.1673" y2="52.1675" gradientUnits="userSpaceOnUse" id="Sizk498bc1op"><stop offset="0%" stop-color="#96c9eb"/><stop offset="37.63%" stop-color="#b0dfff"/><stop offset="100%" stop-color="#547387"/></linearGradient><linearGradient x1="4.3781" y1="71.2322" x2="2.7807" y2="89.3924" gradientUnits="userSpaceOnUse" id="Sizk498bc1ot"><stop offset="1.06%" stop-color="#96c9eb"/><stop offset="77.25%" stop-color="#547387"/></linearGradient><linearGradient x1="25.0381" y1="72.4517" x2="23.3727" y2="91.3841" gradientUnits="userSpaceOnUse" id="Sizk498bc1ow"><stop offset="1.06%" stop-color="#96c9eb"/><stop offset="77.25%" stop-color="#547387"/></linearGradient><linearGradient x1="70.6641" y1="27.4651" x2="71.8002" y2="33.9979" gradientUnits="userSpaceOnUse" id="Sizk498bc1oz"><stop offset="12.93%" stop-color="#96c9eb"/><stop offset="100%" stop-color="#547387"/></linearGradient><linearGradient x1="65.4051" y1="7.1391" x2="42.0463" y2="7.1391" gradientUnits="userSpaceOnUse" id="Sizk498bc1p2"><stop offset="0%" stop-color="#96c9eb"/><stop offset="100%" stop-color="#547387"/></linearGradient><linearGradient x1="21.7043" y1="49.1433" x2="24.8936" y2="56.534" gradientUnits="userSpaceOnUse" id="Sizk498bc1p5"><stop offset="0%" stop-color="#96c9eb"/><stop offset="37.63%" stop-color="#b0dfff"/><stop offset="100%" stop-color="#547387"/></linearGradient><linearGradient x1="58.2238" y1="50.5238" x2="58.5303" y2="51.2392" gradientUnits="userSpaceOnUse" id="Sizk498bc1p9"><stop offset="0%" stop-color="#96c9eb"/><stop offset="37.63%" stop-color="#b0dfff"/><stop offset="100%" stop-color="#547387"/></linearGradient><linearGradient x1="52.6983" y1="50.7103" x2="56.1965" y2="57.6192" gradientUnits="userSpaceOnUse" id="Sizk498bc1pd"><stop offset="0%" stop-color="#96c9eb"/><stop offset="37.63%" stop-color="#b0dfff"/><stop offset="100%" stop-color="#547387"/></linearGradient><radialGradient cx="47.1542" cy="77.6098" r="9.1845" gradientUnits="userSpaceOnUse" id="Sizk498bc1ph"><stop offset="0%" stop-color="#96c9eb"/><stop offset="100%" stop-color="#547387"/></radialGradient></defs><g xmlns="http://www.w3.org/2000/svg">
<g id="shape">
	<path fill="#4D4D4D" d="M97.772,28.366l-3.974-0.462v-3.705c-0.556-0.382-1.15-0.742-1.78-1.079l-4.519,0.951
		c-0.468-0.185-0.954-0.353-1.454-0.507l-0.902-2.852c-0.789-0.161-1.597-0.295-2.426-0.396l-3.144,2.203
		c-0.277-0.009-0.55-0.025-0.831-0.025s-0.554,0.017-0.83,0.025l-3.144-2.203c-0.829,0.101-1.637,0.235-2.426,0.396l-0.902,2.852
		c-0.5,0.155-0.986,0.323-1.454,0.507l-4.519-0.951c-0.63,0.337-1.224,0.697-1.78,1.079v3.705l-3.974,0.462
		c-0.265,0.478-0.486,0.968-0.653,1.47v4.818v2.682v4.818c0.166,0.502,0.388,0.992,0.653,1.47l3.974,0.462v3.705
		c0.556,0.382,1.15,0.742,1.78,1.079l4.519-0.951c0.468,0.185,0.954,0.353,1.454,0.507l0.902,2.852
		c0.789,0.161,1.597,0.295,2.426,0.396l3.144-2.203c0.277,0.009,0.55,0.025,0.83,0.025s0.554-0.017,0.83-0.025l3.144,2.203
		c0.829-0.101,1.637-0.235,2.426-0.396l0.902-2.852c0.5-0.155,0.986-0.323,1.454-0.507l4.519,0.951
		c0.63-0.337,1.224-0.697,1.78-1.079v-3.705l3.974-0.462c0.265-0.478,0.487-0.968,0.653-1.47v-4.818v-2.682v-4.818
		C98.258,29.334,98.037,28.844,97.772,28.366z"></path>
	<path fill="#4D4D4D" d="M71.041,46.956l-1.82-0.386V42.83c-0.265-0.424-0.554-0.841-0.861-1.253l-3.525-0.16v-3.534
		c-0.437-0.368-0.888-0.73-1.362-1.081l-4.526,0.519c-0.147-0.095-0.305-0.183-0.456-0.276v-3.262
		c-0.578-0.287-1.176-0.56-1.783-0.825l-4.136,1.207c-0.529-0.198-1.067-0.389-1.616-0.569l-0.343-2.775
		c-0.679-0.186-1.367-0.361-2.067-0.522l-3.486,1.818c-0.594-0.108-1.196-0.204-1.804-0.29l-1.519-2.631
		c-0.733-0.072-1.473-0.133-2.221-0.178l-2.597,2.308c-0.309-0.005-0.616-0.014-0.927-0.014c-0.311,0-0.618,0.009-0.927,0.014
		l-2.597-2.308c-0.748,0.045-1.487,0.106-2.221,0.178l-1.519,2.631c-0.608,0.087-1.21,0.183-1.804,0.29l-3.486-1.818
		c-0.7,0.16-1.388,0.336-2.067,0.522l-0.343,2.775c-0.549,0.18-1.087,0.37-1.617,0.569l-4.136-1.207
		c-0.608,0.265-1.205,0.538-1.783,0.825v3.262c-0.151,0.093-0.308,0.181-0.456,0.276l-4.526-0.519
		c-0.474,0.35-0.924,0.713-1.362,1.081v3.534l-3.525,0.16c-0.307,0.411-0.596,0.828-0.861,1.253v3.741l-1.82,0.386
		c-0.119,0.445-0.22,0.893-0.294,1.346v4.271v3.229v4.271c0.074,0.453,0.175,0.901,0.294,1.346l1.82,0.386v3.741
		c0.265,0.425,0.554,0.841,0.861,1.253l3.525,0.16v3.534c0.437,0.368,0.888,0.731,1.362,1.081l4.526-0.519
		c0.147,0.095,0.305,0.183,0.456,0.276v3.262c0.578,0.287,1.176,0.56,1.783,0.825l4.136-1.207c0.529,0.198,1.067,0.389,1.616,0.569
		l0.343,2.775c0.678,0.186,1.366,0.361,2.067,0.522l3.486-1.818c0.594,0.108,1.196,0.204,1.804,0.29l1.519,2.631
		c0.733,0.072,1.473,0.133,2.221,0.178l2.597-2.308c0.309,0.005,0.616,0.014,0.927,0.014c0.311,0,0.618-0.009,0.927-0.014
		l2.597,2.308c0.748-0.045,1.487-0.106,2.221-0.178l1.519-2.631c0.608-0.087,1.21-0.183,1.804-0.29l3.486,1.818
		c0.7-0.16,1.388-0.336,2.067-0.522l0.343-2.775c0.549-0.18,1.087-0.37,1.616-0.569l4.136,1.207
		c0.608-0.265,1.205-0.538,1.784-0.825v-3.262c0.151-0.093,0.308-0.182,0.456-0.276l4.526,0.519c0.474-0.35,0.924-0.713,1.362-1.081
		v-3.534l3.525-0.16c0.307-0.411,0.596-0.828,0.861-1.253v-3.741l1.82-0.386c0.119-0.445,0.22-0.893,0.294-1.346v-4.271v-3.229
		v-4.271C71.261,47.849,71.16,47.401,71.041,46.956z"></path>
</g>
<g id="dark">
	<path fill="#BF6F00" d="M93.067,27.819l0.732,0.085v-3.705l-1.569,2.739C92.534,27.221,92.811,27.516,93.067,27.819z"></path>
	<path fill="#BF6F00" d="M64.418,27.819c0.255-0.303,0.533-0.598,0.837-0.881l-1.569-2.739v3.705L64.418,27.819z"></path>
	<path fill="#BF6F00" d="M98.303,34.961c-0.023,0.056-0.047,0.113-0.072,0.17c-0.014,0.033-0.028,0.065-0.043,0.097
		c-0.024,0.054-0.047,0.106-0.071,0.159c-0.013,0.028-0.025,0.055-0.037,0.082c-0.027,0.059-0.053,0.115-0.078,0.17
		c-0.01,0.02-0.018,0.04-0.028,0.059c-0.025,0.054-0.048,0.102-0.07,0.148c-0.009,0.019-0.018,0.038-0.026,0.055
		c-0.052,0.11-0.092,0.191-0.106,0.221l0,0l0,0l-4.705,0.547c-0.255,0.303-0.533,0.598-0.837,0.881l1.569,2.739
		c-0.544,0.381-1.088,0.714-1.569,0.962v3.799c0.305-0.284,0.582-0.578,0.837-0.881l4.705-0.547c0.265-0.478,0.487-0.968,0.653-1.47
		v-7.5c-0.026,0.072-0.057,0.15-0.09,0.231C98.325,34.909,98.313,34.935,98.303,34.961z"></path>
	<path fill="#BF6F00" d="M92.018,41.37l-4.519-0.951c-0.468,0.185-0.954,0.353-1.454,0.507l-0.902,2.852
		c-0.789,0.161-1.597,0.295-2.426,0.396l-3.144-2.203c-0.277,0.009-0.55,0.012-0.83,0.025c-0.211,0.01-0.51-0.01-0.83-0.025
		l-3.144,2.203c-0.829-0.101-1.637-0.235-2.426-0.396l-0.902-2.852c-0.5-0.155-0.986-0.323-1.454-0.507l-4.519,0.951
		c-0.63-0.337-1.224-0.697-1.78-1.079v0.979c0.03,0.034,0.065,0.065,0.095,0.099l4.578,0.208c0.307,0.411,0.596,0.828,0.861,1.253
		l-3,2.113c0.178,0.36,0.336,0.725,0.479,1.093l4.341,0.921c0.119,0.445,0.22,0.893,0.294,1.346L71.22,48.35
		c0.075,0.024,0.144,0.053,0.22,0.077l0.902,2.852c0.789,0.161,1.597,0.295,2.426,0.396l3.144-2.203
		c0.277,0.009,0.55,0.025,0.83,0.025s0.554-0.017,0.83-0.025l3.144,2.203c0.829-0.101,1.637-0.235,2.426-0.396l0.902-2.852
		c0.5-0.155,0.986-0.323,1.454-0.507l4.519,0.951c0.63-0.337,1.224-0.697,1.78-1.079v-7.5C93.242,40.673,92.648,41.033,92.018,41.37
		z"></path>
	<polygon fill="#BF6F00" points="85.142,51.278 86.045,48.426 86.045,40.926 85.142,43.778 	"></polygon>
	<polygon fill="#BF6F00" points="87.499,47.919 92.018,48.87 92.018,41.37 87.499,40.419 	"></polygon>
	<polygon fill="#BF6F00" points="71.44,48.426 72.342,51.278 72.342,43.778 71.44,40.926 	"></polygon>
	<polygon fill="#BF6F00" points="79.573,41.971 82.717,44.174 82.717,51.674 79.573,49.471 	"></polygon>
	<polygon fill="#BF6F00" points="74.768,51.674 77.912,49.471 77.912,41.971 74.768,44.174 	"></polygon>
	<path fill="#BF6F00" d="M77.915,41.971c0.276,0.008,0.548,0.025,0.827,0.025C78.532,42.006,78.234,41.986,77.915,41.971z"></path>
	<path fill="#BF6F00" d="M58.491,37.044v-3.262l-0.856,2.743C57.929,36.693,58.208,36.87,58.491,37.044z"></path>
	<path fill="#BF6F00" d="M14.349,36.525l-0.856-2.743v3.262C13.776,36.87,14.055,36.693,14.349,36.525z"></path>
	<path fill="#BF6F00" d="M8.203,41.369c0.296-0.333,0.611-0.659,0.939-0.98l-1.992-2.507v3.534L8.203,41.369z"></path>
	<g>
		<path fill="#BF6F00" d="M5.284,46.036c0.143-0.369,0.301-0.733,0.479-1.093l-3-2.113v3.741L5.284,46.036z"></path>
	</g>
	<path fill="#BF6F00" d="M3.624,59.299c-0.307-0.411-0.596-0.828-0.861-1.253v7.5c0.265,0.425,0.554,0.841,0.861,1.253V59.299z"></path>
	<path fill="#BF6F00" d="M2.763,58.046l2.1-1.479l-0.134-1.845l-3.786-0.803c-0.119-0.445-0.22-0.893-0.294-1.346v7.5
		c0.074,0.453,0.175,0.901,0.294,1.346l1.82,0.386V58.046z"></path>
	<path fill="#BF6F00" d="M68.359,66.799c0.307-0.411,0.596-0.828,0.861-1.253v-7.5c-0.265,0.425-0.554,0.841-0.861,1.253V66.799z"></path>
	<path fill="#BF6F00" d="M13.493,67.094c0.421,0.226,1.078,0.522,1.783,0.825l4.136-1.207c0.529,0.198,1.067,0.389,1.616,0.569
		l0.343,2.775c0.678,0.186,1.367,0.361,2.067,0.522l3.486-1.818c0.392,0.081,1.06,0.186,1.804,0.29l1.519,2.631
		c0.733,0.072,1.473,0.134,2.221,0.178l2.597-2.308c0.309,0.005,0.616,0.014,0.927,0.014s0.618-0.009,0.927-0.014l2.597,2.308
		c0.508-0.018,1.326-0.088,2.221-0.178l1.519-2.631c0.608-0.087,1.21-0.183,1.804-0.29l3.486,1.818
		c0.7-0.16,1.388-0.336,2.067-0.522l0.343-2.775c0.549-0.18,1.087-0.37,1.616-0.569l4.136,1.207
		c0.608-0.265,1.205-0.538,1.784-0.825v7.5c-0.578,0.287-1.176,0.56-1.784,0.825l-4.136-1.207c-0.417,0.164-1,0.369-1.616,0.569
		l-0.343,2.775c-0.678,0.186-1.367,0.361-2.067,0.522l-3.486-1.818c-0.594,0.108-1.196,0.204-1.804,0.29l-1.519,2.631
		c-0.733,0.072-1.473,0.134-2.221,0.178l-2.597-2.308c-0.309,0.005-0.616,0.014-0.927,0.014s-0.618-0.009-0.927-0.014l-2.597,2.308
		c-0.748-0.045-1.487-0.106-2.221-0.178l-1.519-2.631c-0.608-0.087-1.21-0.183-1.804-0.29l-3.486,1.818
		c-0.7-0.16-1.388-0.336-2.067-0.522l-0.343-2.775c-0.549-0.18-1.087-0.37-1.616-0.569l-4.136,1.207
		c-0.608-0.265-1.205-0.538-1.783-0.825L13.493,67.094z"></path>
	<path fill="#BF6F00" d="M15.276,75.419c-0.608-0.265-1.205-0.538-1.783-0.825l0-7.5c0.421,0.226,1.078,0.522,1.783,0.825
		L15.276,75.419z"></path>
	<path fill="#BF6F00" d="M21.029,74.78c-0.549-0.18-1.087-0.37-1.616-0.569v-7.5c0.529,0.198,1.067,0.389,1.616,0.569V74.78z"></path>
	<polygon fill="#BF6F00" points="26.924,76.259 23.439,78.077 23.439,70.577 26.924,68.759 	"></polygon>
	<polygon fill="#BF6F00" points="43.255,76.549 41.736,79.18 41.736,71.68 43.255,69.049 	"></polygon>
	<polygon fill="#BF6F00" points="50.612,70.055 50.955,67.28 50.955,74.78 50.612,77.555 	"></polygon>
	<polygon fill="#BF6F00" points="56.708,67.919 52.571,66.712 52.571,74.212 56.708,75.419 	"></polygon>
	<path fill="#BF6F00" d="M63.473,71.574c0.474-0.35,0.924-0.713,1.362-1.081v-7.5c-0.437,0.368-0.888,0.731-1.362,1.081V71.574z"></path>
	<polygon fill="#BF6F00" points="48.545,78.077 45.059,76.259 45.059,68.759 48.545,70.577 	"></polygon>
	<polygon fill="#BF6F00" points="39.516,79.359 36.919,77.05 36.919,69.55 39.516,71.859 	"></polygon>
	<polygon fill="#BF6F00" points="35.065,77.05 32.468,79.359 32.468,71.859 35.065,69.55 	"></polygon>
	<polygon fill="#BF6F00" points="30.247,79.18 28.728,76.549 28.728,69.049 30.247,71.68 	"></polygon>
	<path fill="#BF6F00" d="M13.037,63.555l-4.526,0.519c-0.474-0.35-0.924-0.713-1.362-1.081v7.5c0.437,0.368,0.888,0.731,1.362,1.081
		l4.526-0.519V63.555z"></path>
</g>
<g id="light">
	<g>
		<polygon fill="#E5C500" points="94.79,36.47 97.772,36.124 94.79,36.47 		"></polygon>
		<path fill="#E5C500" d="M94.79,31.741c0.014,0.168,0.042,0.333,0.042,0.503c0,0.17-0.028,0.336-0.042,0.503l3.635,1.905v-4.818
			L94.79,31.741z"></path>
	</g>
	<g>
		<path fill="#E5C500" d="M62.695,36.891v-0.42l-2.982-0.347c-0.265-0.478-0.487-0.968-0.653-1.47v2.654L62.695,36.891z"></path>
		<path fill="#E5C500" d="M62.653,32.245c0-0.17,0.028-0.336,0.042-0.503l-3.635-1.905v4.818l3.635-1.905
			C62.681,32.58,62.653,32.415,62.653,32.245z"></path>
	</g>
	<g>
		<path fill="#E5C500" d="M64.418,38.406l-1.575,1.983c0.294,0.288,0.574,0.583,0.844,0.881v-0.979l0.732-1.277V38.406z"></path>
		<path fill="#E5C500" d="M63.473,36.801c0.329,0.243,0.635,0.498,0.945,0.75v-0.881l-4.705-0.547v1.109L63.473,36.801z"></path>
	</g>
	<path fill="#E5C500" d="M68.359,41.577c0.307,0.411,0.596,0.828,0.861,1.253l-3,2.113c0.178,0.36,0.336,0.725,0.479,1.093
		l3.286,0.697v-6.313l-4.519,0.951v0.076L68.359,41.577z"></path>
	<path fill="#E5C500" d="M74.768,51.674c-0.829-0.101-1.637-0.235-2.426-0.396v-7.5c0.788,0.161,1.597,0.295,2.426,0.396V51.674z"></path>
	<path fill="#E5C500" d="M77.912,49.471c0.277,0.009,0.55,0.025,0.83,0.025s0.554-0.017,0.83-0.025v-7.5
		c-0.277,0.009-0.55,0.012-0.83,0.025c-0.211,0.01-0.51-0.01-0.83-0.025L77.912,49.471z"></path>
	<path fill="#E5C500" d="M93.067,39.014l0.732,1.277c-0.245,0.171-0.49,0.328-0.732,0.481v3.399l4.705-0.547v-7.5l-4.705,0.547
		V39.014z"></path>
	<path fill="#E5C500" d="M92.018,41.37c0.522-0.249,1.159-0.644,1.78-1.079l0,7.5c-0.556,0.382-1.15,0.742-1.78,1.079L92.018,41.37z
		"></path>
	<path fill="#E5C500" d="M85.142,51.278c-0.788,0.161-1.597,0.295-2.426,0.396v-7.5c0.829-0.101,1.637-0.235,2.426-0.396V51.278z"></path>
	<path fill="#E5C500" d="M86.045,48.426c0.5-0.155,0.986-0.323,1.454-0.507l0-7.5c-0.343,0.152-0.877,0.332-1.454,0.507
		L86.045,48.426z"></path>
	<g>
		<path fill="#E5C500" d="M66.7,46.036l2.52,0.535V42.83l-3,2.113C66.399,45.302,66.557,45.667,66.7,46.036z"></path>
		<path fill="#E5C500" d="M67.526,49.876c0.009,0.187,0.023,0.373,0.023,0.562S67.535,50.813,67.526,51l0.468,0.193l1.226-0.863
			v-1.154L67.526,49.876z"></path>
	</g>
	<path fill="#E5C500" d="M4.434,50.438c0-0.188,0.015-0.375,0.023-0.562l-3.809-1.574v4.271L4.458,51
		C4.449,50.813,4.434,50.626,4.434,50.438z"></path>
	<g>
		<polygon fill="#E5C500" points="5.284,54.84 0.943,53.919 0.943,61.419 2.763,61.805 2.763,58.046 5.284,56.271 		"></polygon>
		<polygon fill="#E5C500" points="3.624,59.299 3.624,61.988 5.284,62.34 5.284,59.374 		"></polygon>
	</g>
	<polygon fill="#E5C500" points="8.203,59.507 3.624,59.299 3.624,66.799 7.149,66.959 7.149,62.993 8.203,61.668 	"></polygon>
	<g>
		<path fill="#E5C500" d="M67.526,49.876c0.009,0.187,0.023,0.373,0.023,0.562S67.535,50.813,67.526,51l3.809,1.574v-4.271
			L67.526,49.876z"></path>
	</g>
	<g>
		<polygon fill="#E5C500" points="66.7,62.34 68.359,61.988 68.359,59.299 66.7,59.374 		"></polygon>
		<polygon fill="#E5C500" points="66.7,56.271 69.22,58.046 69.22,61.805 71.041,61.419 71.041,53.919 66.7,54.84 		"></polygon>
	</g>
	<polygon fill="#E5C500" points="63.781,61.668 64.834,62.993 64.834,66.959 68.359,66.799 68.359,59.299 63.781,59.507 	"></polygon>
	<polygon fill="#E5C500" points="19.412,74.212 15.276,75.419 15.276,67.919 19.412,66.712 	"></polygon>
	<path fill="#E5C500" d="M28.728,76.549c-0.608-0.087-1.21-0.183-1.804-0.29l0-7.5c0.392,0.081,1.06,0.186,1.804,0.29"></path>
	<path fill="#E5C500" d="M45.059,76.259c-0.594,0.108-1.196,0.204-1.804,0.29v-7.5c0.608-0.087,1.21-0.183,1.804-0.29V76.259z"></path>
	<path fill="#E5C500" d="M50.612,77.555c-0.678,0.186-1.367,0.361-2.067,0.522v-7.5c0.7-0.16,1.388-0.336,2.067-0.522"></path>
	<polygon fill="#E5C500" points="58.947,63.555 58.947,71.055 63.473,71.574 63.473,64.074 	"></polygon>
	<path fill="#E5C500" d="M41.736,79.18c-0.733,0.072-1.473,0.134-2.221,0.178l0-7.5c0.508-0.018,1.326-0.088,2.221-0.178
		L41.736,79.18z"></path>
	<path fill="#E5C500" d="M36.919,77.05c-0.309,0.005-0.616,0.014-0.927,0.014s-0.618-0.009-0.927-0.014v-7.5
		c0.309,0.005,0.616,0.014,0.927,0.014s0.618-0.009,0.927-0.014V77.05z"></path>
	<path fill="#E5C500" d="M32.468,79.359c-0.748-0.045-1.487-0.106-2.221-0.178v-7.5c0.733,0.072,1.473,0.134,2.221,0.178V79.359z"></path>
	<path fill="#E5C500" d="M23.439,78.077c-0.7-0.16-1.388-0.336-2.067-0.522v-7.5c0.678,0.186,1.367,0.361,2.067,0.522V78.077z"></path>
	<polygon fill="#E5C500" points="8.511,71.574 13.037,71.055 13.037,63.555 8.511,64.074 	"></polygon>
	<path fill="#E5C500" d="M50.955,67.28c0.549-0.18,1.087-0.37,1.616-0.569l0,7.5c-0.417,0.164-1,0.369-1.616,0.569L50.955,67.28z"></path>
	<path fill="#E5C500" d="M58.491,74.594c-0.578,0.287-1.176,0.56-1.784,0.825v-7.5c0.608-0.265,1.205-0.538,1.784-0.825V74.594z"></path>
</g>
<g id="linear">

		<linearGradient class="linear" id="SVGID_1_" gradientUnits="userSpaceOnUse" x1="62.9956" y1="24.2324" x2="94.6715" y2="40.3499">
			<stop offset="0" style="stop-color:#ED9213"></stop>
			<stop offset="0.3867" style="stop-color:#E5C500"></stop>
			<stop offset="0.9462" style="stop-color:#BF6F00"></stop>
		</linearGradient>
		<path class="linear" fill="url(#SVGID_1_)" d="M94.79,32.748c0.014-0.168,0.042-0.333,0.042-0.503c0-0.17-0.028-0.336-0.042-0.503l3.635-1.905
			c-0.167-0.502-0.388-0.992-0.653-1.47l-4.705-0.547c-0.255-0.303-0.533-0.598-0.837-0.881l1.569-2.739
			c-0.556-0.382-1.15-0.742-1.78-1.079l-4.519,0.951c-0.468-0.185-0.954-0.353-1.454-0.507l-0.902-2.852
			c-0.789-0.161-1.597-0.295-2.426-0.396l-3.144,2.203c-0.277-0.009-0.55-0.025-0.831-0.025s-0.554,0.017-0.83,0.025l-3.144-2.203
			c-0.829,0.101-1.637,0.235-2.426,0.396l-0.902,2.852c-0.5,0.155-0.986,0.323-1.454,0.507l-4.519-0.951
			c-0.63,0.337-1.224,0.697-1.78,1.079l1.569,2.739c-0.305,0.284-0.582,0.578-0.837,0.881l-4.705,0.547
			c-0.265,0.478-0.486,0.968-0.653,1.47l3.635,1.905c-0.014,0.168-0.042,0.333-0.042,0.503c0,0.17,0.028,0.336,0.042,0.503
			l-3.635,1.905c0.166,0.502,0.388,0.992,0.653,1.47l4.705,0.547c0.255,0.303,0.533,0.598,0.837,0.881l-1.569,2.739
			c0.556,0.382,1.15,0.742,1.78,1.079l4.519-0.951c0.468,0.185,0.954,0.353,1.454,0.507l0.902,2.852
			c0.789,0.161,1.597,0.295,2.426,0.396l3.144-2.203c0.277,0.009,0.55,0.025,0.83,0.025s0.554-0.017,0.83-0.025l3.144,2.203
			c0.829-0.101,1.637-0.235,2.426-0.396l0.902-2.852c0.578-0.175,1.112-0.356,1.454-0.507l4.519,0.951
			c0.522-0.249,1.159-0.644,1.78-1.079l-1.569-2.739c0.305-0.284,0.582-0.578,0.837-0.881l4.705-0.547
			c0.056-0.113,0.461-0.946,0.653-1.47L94.79,32.748z M78.742,35.388c-2.864,0-5.186-1.407-5.186-3.143
			c0-1.736,2.322-3.143,5.186-3.143c2.864,0,5.186,1.407,5.186,3.143C83.929,33.981,81.607,35.388,78.742,35.388z"></path>
		<linearGradient id="SVGID_2_" gradientUnits="userSpaceOnUse" x1="97.7683" y1="36.1307" x2="97.7685" y2="36.1308">
			<stop offset="0" style="stop-color:#ED9213"></stop>
			<stop offset="0.3867" style="stop-color:#E5C500"></stop>
			<stop offset="0.9462" style="stop-color:#BF6F00"></stop>
		</linearGradient>
		<path fill="url(#SVGID_2_)" d="M97.772,36.124L97.772,36.124C97.763,36.141,97.762,36.144,97.772,36.124z"></path>

	<linearGradient class="linear" id="SVGID_3_" gradientUnits="userSpaceOnUse" x1="8.1872" y1="36.2901" x2="64.129" y2="64.7547">
		<stop offset="0" style="stop-color:#ED9213"></stop>
		<stop offset="0.3275" style="stop-color:#E5C500"></stop>
		<stop offset="0.9462" style="stop-color:#BF6F00"></stop>
	</linearGradient>
	<path class="linear" fill="url(#SVGID_3_)" d="M67.55,50.438c0-0.188-0.015-0.375-0.023-0.562l3.809-1.574c-0.074-0.453-0.175-0.901-0.294-1.346
		L66.7,46.036c-0.143-0.369-0.301-0.733-0.479-1.093l3-2.113c-0.265-0.424-0.554-0.842-0.861-1.253l-4.578-0.208
		c-0.297-0.333-0.611-0.659-0.939-0.98l1.992-2.507c-0.437-0.368-0.888-0.731-1.362-1.081l-4.526,0.519
		c-0.425-0.273-0.862-0.538-1.312-0.795l0.856-2.743c-0.578-0.287-1.176-0.56-1.783-0.825l-4.136,1.207
		c-0.529-0.198-1.067-0.389-1.616-0.569l-0.343-2.775c-0.679-0.186-1.367-0.361-2.067-0.522l-3.486,1.818
		c-0.594-0.108-1.196-0.204-1.804-0.29l-1.519-2.631c-0.733-0.072-1.473-0.134-2.221-0.178l-2.597,2.308
		c-0.309-0.005-0.616-0.014-0.927-0.014c-0.311,0-0.618,0.009-0.927,0.014l-2.597-2.308c-0.748,0.045-1.487,0.106-2.221,0.178
		l-1.519,2.631c-0.608,0.087-1.21,0.183-1.804,0.29l-3.486-1.818c-0.7,0.16-1.388,0.336-2.067,0.522l-0.343,2.775
		c-0.549,0.18-1.087,0.37-1.617,0.569l-4.136-1.207c-0.608,0.265-1.205,0.538-1.783,0.825l0.856,2.743
		c-0.45,0.257-0.888,0.522-1.312,0.795l-4.526-0.519c-0.474,0.35-0.924,0.713-1.362,1.081l1.992,2.507
		c-0.328,0.321-0.642,0.647-0.939,0.98l-4.578,0.208c-0.307,0.411-0.596,0.828-0.861,1.253l3,2.113
		c-0.178,0.36-0.336,0.725-0.479,1.093l-4.341,0.921c-0.119,0.445-0.22,0.893-0.294,1.346l3.809,1.574
		c-0.009,0.187-0.023,0.373-0.023,0.562S4.449,50.813,4.458,51l-3.809,1.574c0.074,0.453,0.175,0.901,0.294,1.346l4.341,0.921
		c0.143,0.369,0.301,0.733,0.479,1.093l-3,2.113c0.265,0.424,0.554,0.841,0.861,1.253l4.578,0.208
		c0.296,0.333,0.611,0.659,0.939,0.98l-1.992,2.507c0.437,0.368,0.888,0.731,1.362,1.081l4.526-0.519
		c0.425,0.273,0.862,0.538,1.312,0.795l-0.856,2.743c0.578,0.287,1.176,0.56,1.783,0.825l4.136-1.207
		c0.529,0.198,1.067,0.389,1.616,0.569l0.343,2.775c0.678,0.186,1.366,0.361,2.067,0.522l3.486-1.818
		c0.594,0.108,1.196,0.204,1.804,0.29l1.519,2.631c0.733,0.072,1.473,0.134,2.221,0.178l2.597-2.308
		c0.309,0.005,0.616,0.014,0.927,0.014c0.311,0,0.618-0.009,0.927-0.014l2.597,2.308c0.748-0.045,1.487-0.106,2.221-0.178
		l1.519-2.631c0.608-0.087,1.21-0.183,1.804-0.29l3.486,1.818c0.7-0.16,1.388-0.336,2.067-0.522l0.343-2.775
		c0.549-0.18,1.087-0.37,1.616-0.569l4.136,1.207c0.608-0.265,1.205-0.538,1.784-0.825l-0.856-2.743
		c0.45-0.257,0.888-0.522,1.312-0.795l4.526,0.519c0.474-0.35,0.924-0.713,1.362-1.081l-1.992-2.507
		c0.328-0.321,0.642-0.647,0.939-0.98l4.578-0.208c0.307-0.411,0.596-0.828,0.861-1.253l-3-2.113
		c0.178-0.36,0.336-0.725,0.479-1.093l4.341-0.921c0.119-0.445,0.22-0.893,0.294-1.346L67.526,51
		C67.535,50.813,67.55,50.626,67.55,50.438z M35.992,54.095c-3.333,0-6.035-1.638-6.035-3.658s2.702-3.658,6.035-3.658
		s6.035,1.638,6.035,3.658S39.325,54.095,35.992,54.095z"></path>
</g>

</g></svg>