<?xml version="1.0" encoding="iso-8859-1"?>
<!-- Generator: Adobe Illustrator 19.0.0, SVG Export Plug-In . SVG Version: 6.00 Build 0)  -->
<svg version="1.1" id="Layer_1" xmlns="http://www.w3.org/2000/svg" xmlns:xlink="http://www.w3.org/1999/xlink" x="0px" y="0px"
	 viewBox="0 0 512 512" style="enable-background:new 0 0 512 512;" xml:space="preserve">
<path style="fill:#E6EEFF;" d="M400.006,512H112.003c-25.916,0-47-21.084-47-47V268.248c0-3.978,1.58-7.793,4.394-10.607
	L245.399,81.639c5.857-5.858,15.355-5.858,21.213,0l176.002,176.002c2.813,2.813,4.394,6.628,4.394,10.607V465
	C447.007,490.916,425.922,512,400.006,512z"/>
<path style="fill:#DAE2F2;" d="M266.611,81.639c-2.93-2.93-6.771-4.394-10.611-4.393V512h144.006c25.916,0,47-21.084,47-47V268.248
	c0-3.978-1.58-7.793-4.394-10.607L266.611,81.639z"/>
<path style="fill:#45C1F1;" d="M464.007,301.998c-12.564,0-24.371-4.894-33.245-13.781L256.005,113.459L90.609,278.855l-9.385,9.375
	c-8.874,8.873-20.676,13.763-33.227,13.763s-24.353-4.89-33.231-13.768c-18.321-18.321-18.321-48.132,0-66.455L222.767,13.768
	C231.647,4.89,243.449,0,256,0c12.551,0,24.353,4.89,33.231,13.768L497.233,221.77c18.319,18.319,18.323,48.123,0.009,66.446l0,0
	C488.368,297.104,476.565,301.998,464.007,301.998z"/>
<path style="fill:#44A4EC;" d="M256.005,113.459l174.757,174.757c8.874,8.887,20.681,13.781,33.245,13.781
	c12.559,0,24.361-4.894,33.235-13.781c18.314-18.322,18.311-48.126-0.009-66.446L289.231,13.768C280.352,4.89,268.551,0,256,0
	v113.464L256.005,113.459z"/>
<path style="fill:#2EE6C7;" d="M304.005,285.998h-96.001c-8.284,0-15-6.716-15-15v-16c0-34.738,28.262-63.001,63.001-63.001
	s63.001,28.262,63.001,63.001v16C319.005,279.282,312.289,285.998,304.005,285.998z"/>
<path style="fill:#29CCB1;" d="M256,285.998h48.005c8.284,0,15-6.716,15-15v-16c0-34.738-28.262-63.001-63.001-63.001
	c-0.002,0-0.003,0-0.005,0L256,285.998L256,285.998z"/>
<path style="fill:#5C5F66;" d="M319.005,512H193.004V383.955c0-34.572,27.453-63.422,62.022-63.95
	c35.185-0.537,63.98,27.929,63.98,62.994V512z"/>
<path style="fill:#53565C;" d="M256,512h63.006V382.999c0-34.739-28.266-62.984-63.006-62.983L256,512L256,512z"/>
<g>
</g>
<g>
</g>
<g>
</g>
<g>
</g>
<g>
</g>
<g>
</g>
<g>
</g>
<g>
</g>
<g>
</g>
<g>
</g>
<g>
</g>
<g>
</g>
<g>
</g>
<g>
</g>
<g>
</g>
</svg>
