<svg version="1.1" id="Layer_1" xmlns="http://www.w3.org/2000/svg" xmlns:xlink="http://www.w3.org/1999/xlink" x="31px" y="0px" width="36px" height="99px" viewBox="31 0 36 99" enable-background="31 0 36 99" xml:space="preserve"><desc>Copyright Opto 22</desc> <p id="title">Fluid level</p><desc>Created with Snap</desc><defs><linearGradient x1="27.2012" y1="52.8758" x2="27.408" y2="53.5183" gradientUnits="userSpaceOnUse" id="Sizk498bc1mo"><stop offset="0%" stop-color="#c6e2ff"/><stop offset="37.63%" stop-color="#e0efff"/><stop offset="100%" stop-color="#4c5e70"/></linearGradient><linearGradient x1="31.5635" y1="48.438" x2="32.6514" y2="51.8165" gradientUnits="userSpaceOnUse" id="Sizk498bc1mv"><stop offset="0%" stop-color="#c6e2ff"/><stop offset="37.63%" stop-color="#e0efff"/><stop offset="100%" stop-color="#4c5e70"/></linearGradient><linearGradient x1="61.0123" y1="49.4725" x2="62.1673" y2="52.1675" gradientUnits="userSpaceOnUse" id="Sizk498bc1n2"><stop offset="0%" stop-color="#c6e2ff"/><stop offset="37.63%" stop-color="#e0efff"/><stop offset="100%" stop-color="#4c5e70"/></linearGradient><linearGradient x1="4.3781" y1="71.2322" x2="2.7807" y2="89.3924" gradientUnits="userSpaceOnUse" id="Sizk498bc1n8"><stop offset="1.06%" stop-color="#c6e2ff"/><stop offset="77.25%" stop-color="#4c5e70"/></linearGradient><linearGradient x1="25.0381" y1="72.4517" x2="23.3727" y2="91.3841" gradientUnits="userSpaceOnUse" id="Sizk498bc1nd"><stop offset="1.06%" stop-color="#c6e2ff"/><stop offset="77.25%" stop-color="#4c5e70"/></linearGradient><linearGradient x1="70.6641" y1="27.4651" x2="71.8002" y2="33.9979" gradientUnits="userSpaceOnUse" id="Sizk498bc1ni"><stop offset="12.93%" stop-color="#c6e2ff"/><stop offset="100%" stop-color="#4c5e70"/></linearGradient><linearGradient x1="65.4051" y1="7.1391" x2="42.0463" y2="7.1391" gradientUnits="userSpaceOnUse" id="Sizk498bc1nn"><stop offset="0%" stop-color="#c6e2ff"/><stop offset="100%" stop-color="#4c5e70"/></linearGradient><linearGradient x1="21.7043" y1="49.1433" x2="24.8936" y2="56.534" gradientUnits="userSpaceOnUse" id="Sizk498bc1nt"><stop offset="0%" stop-color="#c6e2ff"/><stop offset="37.63%" stop-color="#e0efff"/><stop offset="100%" stop-color="#4c5e70"/></linearGradient><linearGradient x1="58.2238" y1="50.5238" x2="58.5303" y2="51.2392" gradientUnits="userSpaceOnUse" id="Sizk498bc1o0"><stop offset="0%" stop-color="#c6e2ff"/><stop offset="37.63%" stop-color="#e0efff"/><stop offset="100%" stop-color="#4c5e70"/></linearGradient><linearGradient x1="52.6983" y1="50.7103" x2="56.1965" y2="57.6192" gradientUnits="userSpaceOnUse" id="Sizk498bc1o7"><stop offset="0%" stop-color="#c6e2ff"/><stop offset="37.63%" stop-color="#e0efff"/><stop offset="100%" stop-color="#4c5e70"/></linearGradient><radialGradient cx="47.1542" cy="77.6098" r="9.1845" gradientUnits="userSpaceOnUse" id="Sizk498bc1oe"><stop offset="0%" stop-color="#c6e2ff"/><stop offset="100%" stop-color="#4c5e70"/></radialGradient><linearGradient x1="27.2012" y1="52.8758" x2="27.408" y2="53.5183" gradientUnits="userSpaceOnUse" id="Sizk498bc1oh"><stop offset="0%" stop-color="#96c9eb"/><stop offset="37.63%" stop-color="#b0dfff"/><stop offset="100%" stop-color="#547387"/></linearGradient><linearGradient x1="31.5635" y1="48.438" x2="32.6514" y2="51.8165" gradientUnits="userSpaceOnUse" id="Sizk498bc1ol"><stop offset="0%" stop-color="#96c9eb"/><stop offset="37.63%" stop-color="#b0dfff"/><stop offset="100%" stop-color="#547387"/></linearGradient><linearGradient x1="61.0123" y1="49.4725" x2="62.1673" y2="52.1675" gradientUnits="userSpaceOnUse" id="Sizk498bc1op"><stop offset="0%" stop-color="#96c9eb"/><stop offset="37.63%" stop-color="#b0dfff"/><stop offset="100%" stop-color="#547387"/></linearGradient><linearGradient x1="4.3781" y1="71.2322" x2="2.7807" y2="89.3924" gradientUnits="userSpaceOnUse" id="Sizk498bc1ot"><stop offset="1.06%" stop-color="#96c9eb"/><stop offset="77.25%" stop-color="#547387"/></linearGradient><linearGradient x1="25.0381" y1="72.4517" x2="23.3727" y2="91.3841" gradientUnits="userSpaceOnUse" id="Sizk498bc1ow"><stop offset="1.06%" stop-color="#96c9eb"/><stop offset="77.25%" stop-color="#547387"/></linearGradient><linearGradient x1="70.6641" y1="27.4651" x2="71.8002" y2="33.9979" gradientUnits="userSpaceOnUse" id="Sizk498bc1oz"><stop offset="12.93%" stop-color="#96c9eb"/><stop offset="100%" stop-color="#547387"/></linearGradient><linearGradient x1="65.4051" y1="7.1391" x2="42.0463" y2="7.1391" gradientUnits="userSpaceOnUse" id="Sizk498bc1p2"><stop offset="0%" stop-color="#96c9eb"/><stop offset="100%" stop-color="#547387"/></linearGradient><linearGradient x1="21.7043" y1="49.1433" x2="24.8936" y2="56.534" gradientUnits="userSpaceOnUse" id="Sizk498bc1p5"><stop offset="0%" stop-color="#96c9eb"/><stop offset="37.63%" stop-color="#b0dfff"/><stop offset="100%" stop-color="#547387"/></linearGradient><linearGradient x1="58.2238" y1="50.5238" x2="58.5303" y2="51.2392" gradientUnits="userSpaceOnUse" id="Sizk498bc1p9"><stop offset="0%" stop-color="#96c9eb"/><stop offset="37.63%" stop-color="#b0dfff"/><stop offset="100%" stop-color="#547387"/></linearGradient><linearGradient x1="52.6983" y1="50.7103" x2="56.1965" y2="57.6192" gradientUnits="userSpaceOnUse" id="Sizk498bc1pd"><stop offset="0%" stop-color="#96c9eb"/><stop offset="37.63%" stop-color="#b0dfff"/><stop offset="100%" stop-color="#547387"/></linearGradient><radialGradient cx="47.1542" cy="77.6098" r="9.1845" gradientUnits="userSpaceOnUse" id="Sizk498bc1ph"><stop offset="0%" stop-color="#96c9eb"/><stop offset="100%" stop-color="#547387"/></radialGradient></defs><g xmlns="http://www.w3.org/2000/svg">
<g id="light">
	<path fill="#F2F2F2" d="M54.152,5.197h-8.97c-5.01,0-9.086,4.076-9.086,9.086v27.707c0.125-0.173,0.248-0.348,0.383-0.513
		c0,0,0,0,0,0c-0.092-0.632-0.156-1.273-0.156-1.93c0-7.355,5.986-13.339,13.344-13.339c5.825,0,10.777,3.758,12.592,8.972h0.98
		l0-20.897C63.239,9.273,59.163,5.197,54.152,5.197z"></path>
</g>
<g id="radial">

		<radialGradient class="radial" id="SVGID_1_" cx="49.6657" cy="39.5502" r="9.0859" gradientUnits="userSpaceOnUse">
			<stop offset="0" style="stop-color:#FFFFFF"></stop>
			<stop offset="1" style="stop-color:#1B5291"></stop>
		</radialGradient>
		<circle class="radial" fill="url(#SVGID_1_)" cx="49.666" cy="39.548" r="9.086"></circle>

</g>
<g id="shape">
	<g>
		<polygon fill="#093A80" points="66.232,13.64 54.527,13.64 54.527,9.384 65.232,9.384 		"></polygon>
		<rect x="54.527" y="22.282" fill="#093A80" width="12.705" height="4.256"></rect>
		<rect x="54.527" y="35.181" fill="#093A80" width="12.705" height="4.256"></rect>
	</g>
	<path fill="#093A80" d="M54.152,99.397h-8.97c-7.357,0-13.342-5.985-13.342-13.342V14.283c0-7.356,5.985-13.342,13.342-13.342h8.97
		c7.357,0,13.342,5.985,13.342,13.342v71.772C67.495,93.412,61.509,99.397,54.152,99.397z M45.182,5.197
		c-5.01,0-9.086,4.076-9.086,9.086v71.772c0,5.01,4.076,9.086,9.086,9.086h8.97c5.01,0,9.086-4.076,9.086-9.086V14.283
		c0-5.01-4.076-9.086-9.086-9.086H45.182z"></path>
</g>
<g id="dark">
	<path fill="#1B5291" d="M63.239,86.056V41.991c-0.126-0.174-0.25-0.35-0.386-0.517c-0.938,6.446-6.485,11.418-13.186,11.418
		c-6.701,0-12.248-4.97-13.188-11.414c-0.134,0.166-0.258,0.34-0.383,0.513v44.065c0,5.01,4.076,9.086,9.086,9.086h8.97
		C59.163,95.142,63.239,91.065,63.239,86.056z"></path>
</g>
<g id="hlight">
	<path fill="#FFFFFF" d="M58.747,39.437c0,0.037,0.006,0.074,0.006,0.111c0,5.011-4.076,9.088-9.085,9.088
		c-5.011,0-9.088-4.077-9.088-9.088c0-5.009,4.077-9.083,9.088-9.083c3.427,0,6.415,1.908,7.962,4.716h4.63
		c-1.815-5.214-6.767-8.972-12.592-8.972c-7.358,0-13.344,5.983-13.344,13.339c0,7.357,5.986,13.344,13.344,13.344
		c7.356,0,13.341-5.986,13.341-13.344c0-0.038-0.005-0.074-0.006-0.111H58.747z"></path>
	<rect x="54.527" y="49.758" fill="#FFFFFF" width="8.711" height="4.256"></rect>
	<rect x="54.527" y="62.653" fill="#FFFFFF" width="8.711" height="4.256"></rect>
	<rect x="54.527" y="75.552" fill="#FFFFFF" width="8.711" height="4.256"></rect>
	<path fill="#FFFFFF" d="M54.527,92.703h5.799c1.223-1.136,2.13-2.601,2.583-4.256h-8.381V92.703z"></path>
</g>
</g></svg>