<?xml version="1.0" encoding="iso-8859-1"?>
<!-- Generator: Adobe Illustrator 19.0.0, SVG Export Plug-In . SVG Version: 6.00 Build 0)  -->
<svg version="1.1" id="Layer_1" xmlns="http://www.w3.org/2000/svg" xmlns:xlink="http://www.w3.org/1999/xlink" x="0px" y="0px"
	 viewBox="0 0 511.999 511.999" style="enable-background:new 0 0 511.999 511.999;" xml:space="preserve">
<path style="fill:#484848;" d="M155.938,495.704l17.496-37.053c0.365-0.775,0.555-1.62,0.555-2.478v-81.598h164.019v81.598
	c0,0.857,0.19,1.703,0.555,2.478l17.496,37.053c1.817,3.849-0.991,8.28-5.247,8.28H161.184
	C156.927,503.984,154.119,499.553,155.938,495.704z"/>
<path style="fill:#333333;" d="M338.007,374.576H221.812h-47.823v42.94v38.656c0,0.857-0.19,1.703-0.555,2.477l-17.496,37.052
	c-1.817,3.849,0.991,8.28,5.247,8.28h47.823c-4.257,0-7.065-4.431-5.247-8.28l17.496-37.052c0.365-0.775,0.555-1.62,0.555-2.478
	v-25.488c0-7.273,5.895-13.169,13.169-13.169h103.027L338.007,374.576L338.007,374.576z"/>
<path style="fill:#5D5D5D;" d="M44.264,400.916c-9.858,0-17.878-8.02-17.878-17.878V277.234h459.225v105.804
	c0,9.858-8.02,17.878-17.878,17.878H44.264z"/>
<path style="fill:#484848;" d="M74.209,383.038V277.234H26.386v105.804c0,9.858,8.02,17.878,17.878,17.878h47.823
	C82.229,400.916,74.209,392.896,74.209,383.038z"/>
<path style="fill:#ACC5E1;" d="M26.386,309.3V96.993c0-9.858,8.02-17.878,17.878-17.878h423.469c9.858,0,17.878,8.02,17.878,17.878
	V309.3H26.386z"/>
<path style="fill:#93B7DB;" d="M92.087,79.115H44.264c-9.858,0-17.878,8.02-17.878,17.878V309.3h47.823V96.993
	C74.209,87.135,82.229,79.115,92.087,79.115z"/>
<path style="fill:#ECB45D;" d="M255.998,378.012c-12.945,0-23.477-10.531-23.477-23.477c0-12.945,10.531-23.477,23.477-23.477
	s23.477,10.531,23.477,23.477C279.475,367.48,268.944,378.012,255.998,378.012z"/>
<path style="fill:#C5DBEF;" d="M55.016,273.732v-159.05c0-3.832,3.106-6.938,6.938-6.938h388.088c3.832,0,6.938,3.106,6.938,6.938
	v159.049c0,3.832-3.106,6.938-6.938,6.938H61.954C58.122,280.67,55.016,277.564,55.016,273.732z"/>
<path style="fill:#BED9ED;" d="M454.741,278.827c-160.848-47.75-300.294-101.755-387.316-171.082h-5.471
	c-3.832,0-6.938,3.106-6.938,6.938v159.049c0,3.832,3.106,6.938,6.938,6.938h388.088
	C451.857,280.67,453.504,279.968,454.741,278.827z"/>
<path style="fill:#CD5838;" d="M313.941,274.944c-5.191,0-9.414-4.223-9.414-9.414v-7.588c0-3.353-1.974-6.338-5.03-7.604
	c-5.321-2.204-10.341-5.109-14.923-8.632c-1.442-1.107-3.16-1.694-4.967-1.694c-1.444,0-2.881,0.389-4.156,1.125l-6.586,3.803
	c-1.444,0.829-3.065,1.262-4.706,1.262c-3.32,0-6.429-1.777-8.115-4.639l-10.373-17.965l7.187-4.756
	c1.967-1.303,3.864-2.652,5.632-4.013c2.384-1.833,5.363-2.845,8.384-2.845c2.44,0,4.854,0.648,6.983,1.876l9.951,5.745
	c1.926,1.113,4.115,1.699,6.327,1.699c1.862,0,3.746-0.415,5.447-1.202l4.596-2.124l4.245,2.761
	c6.023,3.919,13.037,5.989,20.284,5.989c20.587,0,37.336-16.749,37.336-37.337c0-20.587-16.749-37.336-37.336-37.336
	c-5.365,0-10.527,1.105-15.342,3.286l-14.363,6.502l1.462-15.698c0.289-3.101,0.435-6.196,0.435-9.199
	c0-4.267-0.283-8.578-0.839-12.815c-0.731-5.551,1.958-10.963,6.849-13.787l11.262-6.504h21.305c5.191,0,9.414,4.223,9.414,9.415
	v7.587c0,3.354,1.973,6.338,5.027,7.603c5.315,2.203,10.335,5.106,14.923,8.631c1.444,1.111,3.162,1.696,4.968,1.696
	c1.443,0,2.88-0.389,4.154-1.123l6.573-3.794c1.434-0.834,3.062-1.272,4.715-1.272h1.176l1.349,0.345
	c2.377,0.66,4.371,2.196,5.614,4.327l10.791,18.69c2.59,4.512,1.039,10.274-3.449,12.862l-6.58,3.799
	c-2.905,1.677-4.501,4.889-4.068,8.181c0.374,2.846,0.565,5.742,0.565,8.607c0,2.876-0.189,5.774-0.561,8.615
	c-0.431,3.29,1.167,6.499,4.069,8.176l6.58,3.797c4.485,2.587,6.036,8.347,3.456,12.841l-10.78,18.672
	c-1.686,2.908-4.806,4.707-8.153,4.707c-1.642,0-3.263-0.432-4.686-1.249l-6.605-3.815c-1.275-0.736-2.712-1.125-4.156-1.125
	c-1.805,0-3.521,0.586-4.963,1.694c-4.584,3.524-9.607,6.427-14.93,8.63c-3.054,1.264-5.029,4.251-5.029,7.604v7.589
	c0,5.19-4.223,9.414-9.414,9.414H313.941L313.941,274.944z"/>
<path style="fill:#B72C11;" d="M388.281,133.093c0.539,0.32,1.103,0.578,1.693,0.764
	C389.44,133.548,388.875,133.293,388.281,133.093z"/>
<path style="fill:#ECB45D;" d="M319.92,176.758c-0.963-3.594-3.267-6.596-6.489-8.457l-9.94-5.739
	c-4.486-2.59-6.954-7.551-6.288-12.638c0.561-4.282,0.845-8.647,0.845-12.976c0-4.319-0.286-8.681-0.85-12.964
	c-0.67-5.09,1.797-10.054,6.287-12.646l10.148-5.862l0.683-0.614l1.106-0.6l0.957-0.971c1.699-1.725,2.924-3.85,3.541-6.152
	c0.962-3.592,0.468-7.344-1.391-10.568l-16.266-28.174c-2.479-4.294-7.104-6.963-12.07-6.963c-2.432,0-4.834,0.642-6.956,1.864
	l-9.952,5.745c-1.966,1.135-4.187,1.736-6.42,1.736c-2.797,0-5.453-0.906-7.682-2.619c-6.903-5.307-14.465-9.68-22.475-13
	c-4.724-1.957-7.777-6.571-7.777-11.755V21.943c0-7.68-6.248-13.927-13.927-13.927h-32.533c-7.68,0-13.927,6.247-13.927,13.927
	v11.46c0,5.184-3.054,9.799-7.779,11.757c-8.01,3.316-15.572,7.69-22.48,12.999c-2.227,1.712-4.882,2.617-7.677,2.617
	c-2.234,0-4.456-0.6-6.422-1.735l-9.952-5.748c-2.113-1.217-4.516-1.86-6.95-1.86c-4.964,0-9.59,2.667-12.069,6.962L78.946,86.571
	c-1.859,3.221-2.352,6.974-1.39,10.567c0.963,3.594,3.267,6.596,6.489,8.457l9.94,5.739c4.486,2.59,6.954,7.551,6.288,12.638
	c-0.561,4.282-0.845,8.647-0.845,12.976c0,4.321,0.286,8.683,0.85,12.963c0.67,5.092-1.797,10.055-6.288,12.648l-9.944,5.743
	c-3.223,1.86-5.528,4.863-6.491,8.457c-0.962,3.592-0.468,7.344,1.391,10.568L95.211,215.5c2.479,4.297,7.105,6.966,12.07,6.966
	c2.437,0,4.843-0.645,6.957-1.867l9.951-5.745c1.966-1.135,4.187-1.736,6.421-1.736c2.797,0,5.453,0.906,7.682,2.619
	c6.903,5.307,14.465,9.68,22.475,13c4.724,1.957,7.777,6.571,7.777,11.755v11.461c0,7.68,6.248,13.927,13.927,13.927h32.533
	c7.68,0,13.927-6.247,13.927-13.927v-11.463c0-5.184,3.053-9.799,7.779-11.757c8.015-3.319,15.578-7.692,22.478-12.995
	c2.23-1.712,4.885-2.617,7.682-2.617c2.234,0,4.455,0.599,6.42,1.734l9.953,5.748c2.112,1.217,4.514,1.86,6.949,1.86
	c4.966,0,9.591-2.668,12.069-6.962l16.268-28.176C320.389,184.102,320.883,180.349,319.92,176.758z M198.738,194.78
	c-31.889,0-57.833-25.943-57.833-57.833s25.943-57.833,57.833-57.833s57.833,25.943,57.833,57.833S230.628,194.78,198.738,194.78z"
	/>
<path d="M467.733,71.099h-148.88l-9.648-16.712c-6.049-10.477-19.495-14.083-29.976-8.032l-9.952,5.747
	c-1.672,0.965-3.717,0.849-5.208-0.298c-7.461-5.735-15.633-10.463-24.291-14.05c-1.718-0.712-2.829-2.419-2.829-4.349v-11.46
	C236.948,9.844,227.105,0,215.005,0h-32.533c-12.099,0-21.943,9.844-21.943,21.943v11.46c0,1.931-1.111,3.638-2.831,4.351
	c-8.662,3.588-16.837,8.314-24.297,14.047c-1.491,1.146-3.535,1.263-5.208,0.298l-9.947-5.743
	c-10.48-6.048-23.927-2.445-29.974,8.032L78.623,71.1H44.264c-14.278,0-25.894,11.617-25.894,25.894v286.044
	c0,14.278,11.616,25.894,25.894,25.894h121.709v46.745l-20.808,44.066c-1.256,2.66-1.064,5.779,0.512,8.265
	c1.575,2.485,4.313,3.991,7.255,3.991h206.136c2.942,0,5.68-1.506,7.255-3.991c1.575-2.486,1.768-5.605,0.512-8.265l-20.808-44.066
	v-46.745h121.709c14.278,0,25.894-11.617,25.894-25.894V96.993C493.627,82.715,482.011,71.099,467.733,71.099z M335.48,113.004
	c0.14,0,0.252,0.113,0.252,0.253v7.587c0,7.073,4.195,13.381,10.684,16.067c4.574,1.895,8.896,4.396,12.847,7.431
	c5.584,4.293,13.156,4.78,19.285,1.241l6.589-3.803c0.033-0.021,0.089-0.053,0.191-0.025c0.101,0.027,0.133,0.084,0.152,0.118
	l10.769,18.653c0.07,0.12,0.027,0.275-0.093,0.345l-6.585,3.802c-6.125,3.535-9.488,10.33-8.57,17.31
	c0.322,2.448,0.486,4.942,0.486,7.412c0,2.478-0.163,4.977-0.483,7.425c-0.914,6.975,2.451,13.765,8.572,17.298l6.58,3.799
	c0.12,0.07,0.161,0.223,0.093,0.345l-10.769,18.653c-0.07,0.119-0.223,0.163-0.344,0.093l-6.585-3.802
	c-6.128-3.539-13.698-3.054-19.284,1.239c-3.946,3.032-8.269,5.532-12.851,7.429c-6.491,2.69-10.686,8.997-10.686,16.068v7.589
	c0,0.139-0.113,0.252-0.252,0.252H313.94c-0.14,0-0.252-0.113-0.252-0.252v-7.588c0-7.07-4.194-13.378-10.684-16.067
	c-4.577-1.896-8.899-4.396-12.847-7.431c-5.585-4.292-13.155-4.78-19.286-1.241l-6.588,3.804c-0.12,0.07-0.274,0.026-0.345-0.093
	l-6.024-10.433c2.1-1.39,4.157-2.849,6.158-4.387c1.49-1.146,3.534-1.263,5.208-0.298l9.947,5.743
	c6.417,3.704,13.938,3.773,20.2,0.878c7.525,4.896,16.194,7.472,25.28,7.472c25.639,0,46.497-20.859,46.497-46.499
	c0-25.639-20.859-46.497-46.497-46.497c-6.698,0-13.167,1.406-19.121,4.101c0.311-3.338,0.475-6.704,0.475-10.049
	c0-4.667-0.309-9.38-0.918-14.009c-0.245-1.866,0.675-3.693,2.347-4.658l9.138-5.276L335.48,113.004L335.48,113.004z
	 M327.664,174.682c-1.517-5.661-5.149-10.393-10.224-13.323l-0.434-0.251c2.484-0.672,5.063-1.035,7.704-1.035
	c16.167,0,29.319,13.151,29.319,29.319s-13.153,29.321-29.319,29.321c-4.669,0-9.156-1.09-13.224-3.156l13.985-24.223
	C328.402,186.259,329.18,180.345,327.664,174.682z M86.882,91.151l16.266-28.175c1.315-2.277,4.234-3.057,6.51-1.744l9.946,5.743
	c7.716,4.454,17.24,3.847,24.264-1.553c6.267-4.816,13.131-8.786,20.402-11.797c8.162-3.379,13.435-11.317,13.435-20.221V21.943
	c0-2.628,2.138-4.765,4.765-4.765h32.533c2.627,0,4.765,2.137,4.765,4.765v11.461c0,8.902,5.273,16.838,13.432,20.218
	c7.266,3.012,14.129,6.982,20.398,11.8c7.025,5.4,16.55,6.009,24.266,1.554l9.952-5.747c2.278-1.311,5.197-0.531,6.51,1.744
	l16.266,28.175c0.637,1.103,0.805,2.387,0.476,3.615c-0.216,0.807-0.647,1.513-1.217,2.092c-0.595,0.323-1.142,0.72-1.642,1.169
	l-9.307,5.376c-7.709,4.45-11.944,12.998-10.789,21.776c0.512,3.889,0.772,7.849,0.772,11.768c0,3.935-0.259,7.9-0.767,11.788
	c-1.149,8.771,3.086,17.312,10.79,21.761l9.941,5.74c1.102,0.637,1.891,1.664,2.219,2.893c0.329,1.229,0.16,2.513-0.476,3.615
	l-16.266,28.175c-1.315,2.277-4.236,3.055-6.51,1.744l-9.947-5.743c-7.713-4.453-17.238-3.844-24.263,1.551
	c-6.265,4.814-13.13,8.784-20.403,11.797c-8.162,3.379-13.435,11.317-13.435,20.22v11.463c0,2.628-2.138,4.765-4.765,4.765h-32.533
	c-2.627,0-4.765-2.137-4.765-4.765v-11.461c0-8.902-5.272-16.838-13.432-20.218c-7.266-3.012-14.129-6.982-20.398-11.8
	c-3.897-2.996-8.565-4.517-13.265-4.517c-3.771,0-7.566,0.979-11.001,2.963l-9.952,5.747c-2.276,1.314-5.196,0.534-6.51-1.744
	l-16.266-28.175c-0.637-1.103-0.805-2.387-0.476-3.615c0.329-1.229,1.118-2.257,2.221-2.893l9.946-5.744
	c7.709-4.45,11.944-12.998,10.789-21.777c-0.512-3.888-0.772-7.847-0.772-11.767c0-3.935,0.259-7.9,0.767-11.788
	c1.149-8.771-3.086-17.312-10.79-21.761l-9.941-5.74c-1.102-0.637-1.891-1.664-2.219-2.893S86.245,92.254,86.882,91.151z
	 M166.485,494.822l13.519-28.63h110.35c4.743,0,8.589-3.844,8.589-8.589s-3.846-8.589-8.589-8.589H183.151v-40.082h145.696v48.671
	c0,1.268,0.281,2.521,0.822,3.667l15.843,33.552H166.485z M476.449,300.138h-73.063c-4.743,0-8.589,3.846-8.589,8.589l0,0
	c0,4.743,3.846,8.589,8.589,8.589h73.063v65.722c0,4.814-3.903,8.716-8.716,8.716H44.264c-4.813,0-8.716-3.903-8.716-8.716v-65.722
	h326.001c4.743,0,8.589-3.846,8.589-8.589l0,0c0-4.743-3.846-8.589-8.589-8.589H35.548V96.993c0-4.814,3.903-8.716,8.716-8.716
	h25.443c-0.839,3.383-0.868,6.93-0.031,10.398c1.451,6.011,5.515,11.064,10.871,14.156l9.431,5.445
	c1.67,0.964,2.592,2.792,2.348,4.654c-0.606,4.623-0.913,9.34-0.913,14.017c0,4.668,0.309,9.381,0.918,14.009
	c0.245,1.866-0.676,3.693-2.347,4.658l-9.522,5.498c-4.763,2.751-8.526,7.057-10.261,12.277c-2.011,6.047-1.349,12.48,1.805,17.943
	l16.266,28.175c6.049,10.477,19.496,14.083,29.976,8.032l9.952-5.747c1.674-0.964,3.718-0.849,5.21,0.298
	c7.461,5.735,15.633,10.463,24.291,14.05c1.718,0.712,2.829,2.419,2.829,4.349v11.461c0,12.118,9.825,21.943,21.943,21.943h32.533
	c12.118,0,21.943-9.825,21.943-21.943v-11.463c0-1.931,1.111-3.638,2.831-4.351c1.041-0.431,2.074-0.881,3.101-1.344l6.183,10.71
	c4.805,8.324,15.487,11.184,23.811,6.38l6.588-3.804c0.097-0.055,0.194-0.042,0.228-0.016c5.14,3.951,10.772,7.209,16.739,9.682
	c0.023,0.009,0.082,0.084,0.082,0.198v7.588c0,9.627,7.803,17.43,17.43,17.43h21.539c9.627,0,17.43-7.803,17.43-17.43v-7.588
	c0-0.123,0.066-0.192,0.081-0.198c5.97-2.472,11.603-5.728,16.743-9.678c0.036-0.026,0.132-0.039,0.228,0.016l6.585,3.802
	c8.326,4.808,19.005,1.943,23.81-6.38l10.769-18.653c4.813-8.337,1.957-18.997-6.38-23.81l-6.58-3.799
	c-0.096-0.056-0.133-0.147-0.127-0.19c0.417-3.187,0.629-6.436,0.629-9.659c0-3.218-0.213-6.466-0.633-9.654
	c-0.007-0.054,0.038-0.14,0.127-0.191l6.585-3.802c8.336-4.813,11.193-15.474,6.38-23.81l-10.769-18.653
	c-4.812-8.336-15.47-11.192-23.808-6.38l-6.592,3.804c-0.096,0.056-0.194,0.044-0.229,0.016c-5.143-3.953-10.775-7.21-16.741-9.683
	c-0.014-0.006-0.08-0.074-0.08-0.197v-7.587c0-9.627-7.805-17.431-17.431-17.431h-7.209c0.273-2.542,0.11-5.088-0.5-7.549h139.964
	c4.813,0,8.716,3.902,8.716,8.716v203.145H476.449z"/>
<path d="M255.998,386.028c17.366,0,31.493-14.128,31.493-31.493c0-17.365-14.127-31.493-31.493-31.493s-31.493,14.128-31.493,31.493
	C224.505,371.9,238.632,386.028,255.998,386.028z M255.998,340.22c7.894,0,14.315,6.421,14.315,14.315s-6.421,14.315-14.315,14.315
	c-7.894,0-14.315-6.421-14.315-14.315S248.104,340.22,255.998,340.22z"/>
<path d="M198.738,202.796c36.31,0,65.849-29.539,65.849-65.849s-29.539-65.849-65.849-65.849s-65.849,29.539-65.849,65.849
	S162.429,202.796,198.738,202.796z M198.738,88.276c26.838,0,48.671,21.833,48.671,48.671s-21.833,48.671-48.671,48.671
	s-48.671-21.833-48.671-48.671S171.901,88.276,198.738,88.276z"/>
<g>
</g>
<g>
</g>
<g>
</g>
<g>
</g>
<g>
</g>
<g>
</g>
<g>
</g>
<g>
</g>
<g>
</g>
<g>
</g>
<g>
</g>
<g>
</g>
<g>
</g>
<g>
</g>
<g>
</g>
</svg>
