<svg version="1.1" id="Layer_1" xmlns="http://www.w3.org/2000/svg" xmlns:xlink="http://www.w3.org/1999/xlink" x="1px" y="22px" width="98px" height="55px" viewBox="1 22 98 55" enable-background="1 22 98 55" xml:space="preserve"><desc>Copyright Opto 22</desc> <p id="title">Motor</p><desc>Created with Snap</desc><defs><linearGradient x1="27.2012" y1="52.8758" x2="27.408" y2="53.5183" gradientUnits="userSpaceOnUse" id="Sizk498bc1mo"><stop offset="0%" stop-color="#c6e2ff"/><stop offset="37.63%" stop-color="#e0efff"/><stop offset="100%" stop-color="#4c5e70"/></linearGradient><linearGradient x1="31.5635" y1="48.438" x2="32.6514" y2="51.8165" gradientUnits="userSpaceOnUse" id="Sizk498bc1mv"><stop offset="0%" stop-color="#c6e2ff"/><stop offset="37.63%" stop-color="#e0efff"/><stop offset="100%" stop-color="#4c5e70"/></linearGradient><linearGradient x1="61.0123" y1="49.4725" x2="62.1673" y2="52.1675" gradientUnits="userSpaceOnUse" id="Sizk498bc1n2"><stop offset="0%" stop-color="#c6e2ff"/><stop offset="37.63%" stop-color="#e0efff"/><stop offset="100%" stop-color="#4c5e70"/></linearGradient><linearGradient x1="4.3781" y1="71.2322" x2="2.7807" y2="89.3924" gradientUnits="userSpaceOnUse" id="Sizk498bc1n8"><stop offset="1.06%" stop-color="#c6e2ff"/><stop offset="77.25%" stop-color="#4c5e70"/></linearGradient><linearGradient x1="25.0381" y1="72.4517" x2="23.3727" y2="91.3841" gradientUnits="userSpaceOnUse" id="Sizk498bc1nd"><stop offset="1.06%" stop-color="#c6e2ff"/><stop offset="77.25%" stop-color="#4c5e70"/></linearGradient><linearGradient x1="70.6641" y1="27.4651" x2="71.8002" y2="33.9979" gradientUnits="userSpaceOnUse" id="Sizk498bc1ni"><stop offset="12.93%" stop-color="#c6e2ff"/><stop offset="100%" stop-color="#4c5e70"/></linearGradient><linearGradient x1="65.4051" y1="7.1391" x2="42.0463" y2="7.1391" gradientUnits="userSpaceOnUse" id="Sizk498bc1nn"><stop offset="0%" stop-color="#c6e2ff"/><stop offset="100%" stop-color="#4c5e70"/></linearGradient><linearGradient x1="21.7043" y1="49.1433" x2="24.8936" y2="56.534" gradientUnits="userSpaceOnUse" id="Sizk498bc1nt"><stop offset="0%" stop-color="#c6e2ff"/><stop offset="37.63%" stop-color="#e0efff"/><stop offset="100%" stop-color="#4c5e70"/></linearGradient><linearGradient x1="58.2238" y1="50.5238" x2="58.5303" y2="51.2392" gradientUnits="userSpaceOnUse" id="Sizk498bc1o0"><stop offset="0%" stop-color="#c6e2ff"/><stop offset="37.63%" stop-color="#e0efff"/><stop offset="100%" stop-color="#4c5e70"/></linearGradient><linearGradient x1="52.6983" y1="50.7103" x2="56.1965" y2="57.6192" gradientUnits="userSpaceOnUse" id="Sizk498bc1o7"><stop offset="0%" stop-color="#c6e2ff"/><stop offset="37.63%" stop-color="#e0efff"/><stop offset="100%" stop-color="#4c5e70"/></linearGradient><radialGradient cx="47.1542" cy="77.6098" r="9.1845" gradientUnits="userSpaceOnUse" id="Sizk498bc1oe"><stop offset="0%" stop-color="#c6e2ff"/><stop offset="100%" stop-color="#4c5e70"/></radialGradient><linearGradient x1="27.2012" y1="52.8758" x2="27.408" y2="53.5183" gradientUnits="userSpaceOnUse" id="Sizk498bc1oh"><stop offset="0%" stop-color="#96c9eb"/><stop offset="37.63%" stop-color="#b0dfff"/><stop offset="100%" stop-color="#547387"/></linearGradient><linearGradient x1="31.5635" y1="48.438" x2="32.6514" y2="51.8165" gradientUnits="userSpaceOnUse" id="Sizk498bc1ol"><stop offset="0%" stop-color="#96c9eb"/><stop offset="37.63%" stop-color="#b0dfff"/><stop offset="100%" stop-color="#547387"/></linearGradient><linearGradient x1="61.0123" y1="49.4725" x2="62.1673" y2="52.1675" gradientUnits="userSpaceOnUse" id="Sizk498bc1op"><stop offset="0%" stop-color="#96c9eb"/><stop offset="37.63%" stop-color="#b0dfff"/><stop offset="100%" stop-color="#547387"/></linearGradient><linearGradient x1="4.3781" y1="71.2322" x2="2.7807" y2="89.3924" gradientUnits="userSpaceOnUse" id="Sizk498bc1ot"><stop offset="1.06%" stop-color="#96c9eb"/><stop offset="77.25%" stop-color="#547387"/></linearGradient><linearGradient x1="25.0381" y1="72.4517" x2="23.3727" y2="91.3841" gradientUnits="userSpaceOnUse" id="Sizk498bc1ow"><stop offset="1.06%" stop-color="#96c9eb"/><stop offset="77.25%" stop-color="#547387"/></linearGradient><linearGradient x1="70.6641" y1="27.4651" x2="71.8002" y2="33.9979" gradientUnits="userSpaceOnUse" id="Sizk498bc1oz"><stop offset="12.93%" stop-color="#96c9eb"/><stop offset="100%" stop-color="#547387"/></linearGradient><linearGradient x1="65.4051" y1="7.1391" x2="42.0463" y2="7.1391" gradientUnits="userSpaceOnUse" id="Sizk498bc1p2"><stop offset="0%" stop-color="#96c9eb"/><stop offset="100%" stop-color="#547387"/></linearGradient><linearGradient x1="21.7043" y1="49.1433" x2="24.8936" y2="56.534" gradientUnits="userSpaceOnUse" id="Sizk498bc1p5"><stop offset="0%" stop-color="#96c9eb"/><stop offset="37.63%" stop-color="#b0dfff"/><stop offset="100%" stop-color="#547387"/></linearGradient><linearGradient x1="58.2238" y1="50.5238" x2="58.5303" y2="51.2392" gradientUnits="userSpaceOnUse" id="Sizk498bc1p9"><stop offset="0%" stop-color="#96c9eb"/><stop offset="37.63%" stop-color="#b0dfff"/><stop offset="100%" stop-color="#547387"/></linearGradient><linearGradient x1="52.6983" y1="50.7103" x2="56.1965" y2="57.6192" gradientUnits="userSpaceOnUse" id="Sizk498bc1pd"><stop offset="0%" stop-color="#96c9eb"/><stop offset="37.63%" stop-color="#b0dfff"/><stop offset="100%" stop-color="#547387"/></linearGradient><radialGradient cx="47.1542" cy="77.6098" r="9.1845" gradientUnits="userSpaceOnUse" id="Sizk498bc1ph"><stop offset="0%" stop-color="#96c9eb"/><stop offset="100%" stop-color="#547387"/></radialGradient></defs><g id="shape" xmlns="http://www.w3.org/2000/svg">
	<g>
		<path fill="#660000" d="M38.5,37.5h2.9l9.1,13.7l9.1-13.7h2.9v25.1h-2.8V42.3l-9.1,13.4h-0.1l-9.1-13.4v20.3h-2.8V37.5H38.5z"></path>
	</g>
	<path fill="#660000" d="M96.8,47.8H77.1c-1.1-14-12.8-25-27.1-25s-26,11-27.1,25H3.2C2,47.8,1,48.8,1,50s1,2.2,2.2,2.2h19.7
		c1.1,14,12.8,25,27.1,25s26-11,27.1-25h19.7c1.2,0,2.2-1,2.2-2.2S98,47.8,96.8,47.8z M50,72.9c-12.4,0-22.6-10-22.9-22.3
		c0.1-0.2,0.1-0.4,0.1-0.6s0-0.4-0.1-0.6C27.4,37.1,37.6,27.1,50,27.1s22.6,10,22.9,22.3c-0.1,0.2-0.1,0.4-0.1,0.6s0,0.4,0.1,0.6
		C72.6,62.9,62.4,72.9,50,72.9z"></path>
</g></svg>