<svg version="1.1" id="Layer_1" xmlns="http://www.w3.org/2000/svg" xmlns:xlink="http://www.w3.org/1999/xlink" x="0px" y="20px" width="100px" height="59px" viewBox="0 20 100 59" enable-background="0 20 100 59" xml:space="preserve"><desc>Copyright Opto 22</desc> <p id="title">Motor</p><desc>Created with Snap</desc><defs><linearGradient x1="27.2012" y1="52.8758" x2="27.408" y2="53.5183" gradientUnits="userSpaceOnUse" id="Sizk498bc1mo"><stop offset="0%" stop-color="#c6e2ff"/><stop offset="37.63%" stop-color="#e0efff"/><stop offset="100%" stop-color="#4c5e70"/></linearGradient><linearGradient x1="31.5635" y1="48.438" x2="32.6514" y2="51.8165" gradientUnits="userSpaceOnUse" id="Sizk498bc1mv"><stop offset="0%" stop-color="#c6e2ff"/><stop offset="37.63%" stop-color="#e0efff"/><stop offset="100%" stop-color="#4c5e70"/></linearGradient><linearGradient x1="61.0123" y1="49.4725" x2="62.1673" y2="52.1675" gradientUnits="userSpaceOnUse" id="Sizk498bc1n2"><stop offset="0%" stop-color="#c6e2ff"/><stop offset="37.63%" stop-color="#e0efff"/><stop offset="100%" stop-color="#4c5e70"/></linearGradient><linearGradient x1="4.3781" y1="71.2322" x2="2.7807" y2="89.3924" gradientUnits="userSpaceOnUse" id="Sizk498bc1n8"><stop offset="1.06%" stop-color="#c6e2ff"/><stop offset="77.25%" stop-color="#4c5e70"/></linearGradient><linearGradient x1="25.0381" y1="72.4517" x2="23.3727" y2="91.3841" gradientUnits="userSpaceOnUse" id="Sizk498bc1nd"><stop offset="1.06%" stop-color="#c6e2ff"/><stop offset="77.25%" stop-color="#4c5e70"/></linearGradient><linearGradient x1="70.6641" y1="27.4651" x2="71.8002" y2="33.9979" gradientUnits="userSpaceOnUse" id="Sizk498bc1ni"><stop offset="12.93%" stop-color="#c6e2ff"/><stop offset="100%" stop-color="#4c5e70"/></linearGradient><linearGradient x1="65.4051" y1="7.1391" x2="42.0463" y2="7.1391" gradientUnits="userSpaceOnUse" id="Sizk498bc1nn"><stop offset="0%" stop-color="#c6e2ff"/><stop offset="100%" stop-color="#4c5e70"/></linearGradient><linearGradient x1="21.7043" y1="49.1433" x2="24.8936" y2="56.534" gradientUnits="userSpaceOnUse" id="Sizk498bc1nt"><stop offset="0%" stop-color="#c6e2ff"/><stop offset="37.63%" stop-color="#e0efff"/><stop offset="100%" stop-color="#4c5e70"/></linearGradient><linearGradient x1="58.2238" y1="50.5238" x2="58.5303" y2="51.2392" gradientUnits="userSpaceOnUse" id="Sizk498bc1o0"><stop offset="0%" stop-color="#c6e2ff"/><stop offset="37.63%" stop-color="#e0efff"/><stop offset="100%" stop-color="#4c5e70"/></linearGradient><linearGradient x1="52.6983" y1="50.7103" x2="56.1965" y2="57.6192" gradientUnits="userSpaceOnUse" id="Sizk498bc1o7"><stop offset="0%" stop-color="#c6e2ff"/><stop offset="37.63%" stop-color="#e0efff"/><stop offset="100%" stop-color="#4c5e70"/></linearGradient><radialGradient cx="47.1542" cy="77.6098" r="9.1845" gradientUnits="userSpaceOnUse" id="Sizk498bc1oe"><stop offset="0%" stop-color="#c6e2ff"/><stop offset="100%" stop-color="#4c5e70"/></radialGradient><linearGradient x1="27.2012" y1="52.8758" x2="27.408" y2="53.5183" gradientUnits="userSpaceOnUse" id="Sizk498bc1oh"><stop offset="0%" stop-color="#96c9eb"/><stop offset="37.63%" stop-color="#b0dfff"/><stop offset="100%" stop-color="#547387"/></linearGradient><linearGradient x1="31.5635" y1="48.438" x2="32.6514" y2="51.8165" gradientUnits="userSpaceOnUse" id="Sizk498bc1ol"><stop offset="0%" stop-color="#96c9eb"/><stop offset="37.63%" stop-color="#b0dfff"/><stop offset="100%" stop-color="#547387"/></linearGradient><linearGradient x1="61.0123" y1="49.4725" x2="62.1673" y2="52.1675" gradientUnits="userSpaceOnUse" id="Sizk498bc1op"><stop offset="0%" stop-color="#96c9eb"/><stop offset="37.63%" stop-color="#b0dfff"/><stop offset="100%" stop-color="#547387"/></linearGradient><linearGradient x1="4.3781" y1="71.2322" x2="2.7807" y2="89.3924" gradientUnits="userSpaceOnUse" id="Sizk498bc1ot"><stop offset="1.06%" stop-color="#96c9eb"/><stop offset="77.25%" stop-color="#547387"/></linearGradient><linearGradient x1="25.0381" y1="72.4517" x2="23.3727" y2="91.3841" gradientUnits="userSpaceOnUse" id="Sizk498bc1ow"><stop offset="1.06%" stop-color="#96c9eb"/><stop offset="77.25%" stop-color="#547387"/></linearGradient><linearGradient x1="70.6641" y1="27.4651" x2="71.8002" y2="33.9979" gradientUnits="userSpaceOnUse" id="Sizk498bc1oz"><stop offset="12.93%" stop-color="#96c9eb"/><stop offset="100%" stop-color="#547387"/></linearGradient><linearGradient x1="65.4051" y1="7.1391" x2="42.0463" y2="7.1391" gradientUnits="userSpaceOnUse" id="Sizk498bc1p2"><stop offset="0%" stop-color="#96c9eb"/><stop offset="100%" stop-color="#547387"/></linearGradient><linearGradient x1="21.7043" y1="49.1433" x2="24.8936" y2="56.534" gradientUnits="userSpaceOnUse" id="Sizk498bc1p5"><stop offset="0%" stop-color="#96c9eb"/><stop offset="37.63%" stop-color="#b0dfff"/><stop offset="100%" stop-color="#547387"/></linearGradient><linearGradient x1="58.2238" y1="50.5238" x2="58.5303" y2="51.2392" gradientUnits="userSpaceOnUse" id="Sizk498bc1p9"><stop offset="0%" stop-color="#96c9eb"/><stop offset="37.63%" stop-color="#b0dfff"/><stop offset="100%" stop-color="#547387"/></linearGradient><linearGradient x1="52.6983" y1="50.7103" x2="56.1965" y2="57.6192" gradientUnits="userSpaceOnUse" id="Sizk498bc1pd"><stop offset="0%" stop-color="#96c9eb"/><stop offset="37.63%" stop-color="#b0dfff"/><stop offset="100%" stop-color="#547387"/></linearGradient><radialGradient cx="47.1542" cy="77.6098" r="9.1845" gradientUnits="userSpaceOnUse" id="Sizk498bc1ph"><stop offset="0%" stop-color="#96c9eb"/><stop offset="100%" stop-color="#547387"/></radialGradient></defs><g transform="matrix(1,0,0,1,0,0)" xmlns="http://www.w3.org/2000/svg">
	<g id="shape">
		<path fill="#0080d5" d="M94.738,27.257c-2.894,0-5.262,0-5.262,0v1.858h-3.097v-8.358H73.997v8.358H45.113v-8.358H32.731v8.358
			h-3.655v-1.858c0,0-2.368,0-5.262,0s-5.262,3.273-5.262,7.274v5.417c-0.867,0-2.016,0-3.284,0c-2.518,0-2.983,2.918-3.027,6.612H0
			v7.187h12.241c0.043,3.703,0.504,6.632,3.027,6.632c1.268,0,2.417,0,3.284,0v5.413c0,4.001,2.368,7.274,5.262,7.274
			s5.262,0,5.262,0v-1.854h3.655v8.667h12.382v-8.667h28.884v8.667h12.382v-8.667h3.097v1.854c0,0,2.368,0,5.262,0
			S100,69.792,100,65.791v-31.26C100,30.53,97.632,27.257,94.738,27.257z" style=""></path>
	</g>
	<g id="linear"></g>
	<g id="dark">
		<path fill="#005f9c" d="M94.738,69.428c-1.446,0-2.76,0-3.714,0v-3.943H26.018v3.943c-0.673,0-1.415,0-2.204,0
			c-2.894,0-5.262-2.454-5.262-5.456v1.819c0,4.001,2.368,7.274,5.262,7.274s5.262,0,5.262,0v-1.854h60.4v1.854c0,0,2.368,0,5.262,0
			S100,69.792,100,65.791v-1.819C100,66.974,97.632,69.428,94.738,69.428z" style=""></path>
		<path fill="#005f9c" d="M18.552,60.378c-0.867,0,0,0-3.284,0c-2.523,0-2.985-2.929-3.027-6.632c0,0,2.725,4.34,6.311,4.34V60.378z
			" style=""></path>
	</g>
	<g id="light">
		<rect x="0" y="46.541" fill="#2098e8" width="12.388" height="3.056" style=""></rect>
		<path fill="#2098e8" d="M94.738,27.257c-2.894,0-5.262,0-5.262,0v1.858h-60.4v-1.858c0,0-2.368,0-5.262,0
			s-5.262,3.273-5.262,7.274v8.638c0-2.5,2.368-4.546,5.262-4.546c0.789,0,1.531,0,2.204,0v2.582h65.007v-2.582
			c0.954,0,2.268,0,3.714,0c2.894,0,5.262,2.046,5.262,4.546v-8.638C100,30.53,97.632,27.257,94.738,27.257z" style=""></path>
	</g>
	<g id="shadow">
		<rect x="73.997" y="71.211" fill="#005287" width="12.382" height="8.667" style=""></rect>
		<rect x="32.731" y="71.211" fill="#005287" width="12.382" height="8.667" style=""></rect>
	</g>
	<g id="hlight">
		<path fill="#82ccff" d="M94.738,28.623c-2.894,0-5.262,0-5.262,0v3.515h-60.4v-3.515c0,0-2.368,0-5.262,0
			s-5.262,2.659-5.262,5.909v5.683c0-3.25,2.368-5.909,5.262-5.909c0.789,0,1.531,0,2.204,0v3.877h65.007v-3.877
			c0.954,0,2.268,0,3.714,0c2.894,0,5.262,2.659,5.262,5.909v-5.683C100,31.281,97.632,28.623,94.738,28.623z" style=""></path>
	</g>
</g></svg>