<svg version="1.1" id="Layer_1" xmlns="http://www.w3.org/2000/svg" xmlns:xlink="http://www.w3.org/1999/xlink" x="1px" y="25px" width="97px" height="49px" viewBox="1 25 97 49" enable-background="1 25 97 49" xml:space="preserve"><desc>Copyright Opto 22</desc> <p id="title">PAC I/O</p><desc>Created with Snap</desc><defs><linearGradient x1="27.2012" y1="52.8758" x2="27.408" y2="53.5183" gradientUnits="userSpaceOnUse" id="Sizk498bc1mo"><stop offset="0%" stop-color="#c6e2ff"/><stop offset="37.63%" stop-color="#e0efff"/><stop offset="100%" stop-color="#4c5e70"/></linearGradient><linearGradient x1="31.5635" y1="48.438" x2="32.6514" y2="51.8165" gradientUnits="userSpaceOnUse" id="Sizk498bc1mv"><stop offset="0%" stop-color="#c6e2ff"/><stop offset="37.63%" stop-color="#e0efff"/><stop offset="100%" stop-color="#4c5e70"/></linearGradient><linearGradient x1="61.0123" y1="49.4725" x2="62.1673" y2="52.1675" gradientUnits="userSpaceOnUse" id="Sizk498bc1n2"><stop offset="0%" stop-color="#c6e2ff"/><stop offset="37.63%" stop-color="#e0efff"/><stop offset="100%" stop-color="#4c5e70"/></linearGradient><linearGradient x1="4.3781" y1="71.2322" x2="2.7807" y2="89.3924" gradientUnits="userSpaceOnUse" id="Sizk498bc1n8"><stop offset="1.06%" stop-color="#c6e2ff"/><stop offset="77.25%" stop-color="#4c5e70"/></linearGradient><linearGradient x1="25.0381" y1="72.4517" x2="23.3727" y2="91.3841" gradientUnits="userSpaceOnUse" id="Sizk498bc1nd"><stop offset="1.06%" stop-color="#c6e2ff"/><stop offset="77.25%" stop-color="#4c5e70"/></linearGradient><linearGradient x1="70.6641" y1="27.4651" x2="71.8002" y2="33.9979" gradientUnits="userSpaceOnUse" id="Sizk498bc1ni"><stop offset="12.93%" stop-color="#c6e2ff"/><stop offset="100%" stop-color="#4c5e70"/></linearGradient><linearGradient x1="65.4051" y1="7.1391" x2="42.0463" y2="7.1391" gradientUnits="userSpaceOnUse" id="Sizk498bc1nn"><stop offset="0%" stop-color="#c6e2ff"/><stop offset="100%" stop-color="#4c5e70"/></linearGradient><linearGradient x1="21.7043" y1="49.1433" x2="24.8936" y2="56.534" gradientUnits="userSpaceOnUse" id="Sizk498bc1nt"><stop offset="0%" stop-color="#c6e2ff"/><stop offset="37.63%" stop-color="#e0efff"/><stop offset="100%" stop-color="#4c5e70"/></linearGradient><linearGradient x1="58.2238" y1="50.5238" x2="58.5303" y2="51.2392" gradientUnits="userSpaceOnUse" id="Sizk498bc1o0"><stop offset="0%" stop-color="#c6e2ff"/><stop offset="37.63%" stop-color="#e0efff"/><stop offset="100%" stop-color="#4c5e70"/></linearGradient><linearGradient x1="52.6983" y1="50.7103" x2="56.1965" y2="57.6192" gradientUnits="userSpaceOnUse" id="Sizk498bc1o7"><stop offset="0%" stop-color="#c6e2ff"/><stop offset="37.63%" stop-color="#e0efff"/><stop offset="100%" stop-color="#4c5e70"/></linearGradient><radialGradient cx="47.1542" cy="77.6098" r="9.1845" gradientUnits="userSpaceOnUse" id="Sizk498bc1oe"><stop offset="0%" stop-color="#c6e2ff"/><stop offset="100%" stop-color="#4c5e70"/></radialGradient><linearGradient x1="27.2012" y1="52.8758" x2="27.408" y2="53.5183" gradientUnits="userSpaceOnUse" id="Sizk498bc1oh"><stop offset="0%" stop-color="#96c9eb"/><stop offset="37.63%" stop-color="#b0dfff"/><stop offset="100%" stop-color="#547387"/></linearGradient><linearGradient x1="31.5635" y1="48.438" x2="32.6514" y2="51.8165" gradientUnits="userSpaceOnUse" id="Sizk498bc1ol"><stop offset="0%" stop-color="#96c9eb"/><stop offset="37.63%" stop-color="#b0dfff"/><stop offset="100%" stop-color="#547387"/></linearGradient><linearGradient x1="61.0123" y1="49.4725" x2="62.1673" y2="52.1675" gradientUnits="userSpaceOnUse" id="Sizk498bc1op"><stop offset="0%" stop-color="#96c9eb"/><stop offset="37.63%" stop-color="#b0dfff"/><stop offset="100%" stop-color="#547387"/></linearGradient><linearGradient x1="4.3781" y1="71.2322" x2="2.7807" y2="89.3924" gradientUnits="userSpaceOnUse" id="Sizk498bc1ot"><stop offset="1.06%" stop-color="#96c9eb"/><stop offset="77.25%" stop-color="#547387"/></linearGradient><linearGradient x1="25.0381" y1="72.4517" x2="23.3727" y2="91.3841" gradientUnits="userSpaceOnUse" id="Sizk498bc1ow"><stop offset="1.06%" stop-color="#96c9eb"/><stop offset="77.25%" stop-color="#547387"/></linearGradient><linearGradient x1="70.6641" y1="27.4651" x2="71.8002" y2="33.9979" gradientUnits="userSpaceOnUse" id="Sizk498bc1oz"><stop offset="12.93%" stop-color="#96c9eb"/><stop offset="100%" stop-color="#547387"/></linearGradient><linearGradient x1="65.4051" y1="7.1391" x2="42.0463" y2="7.1391" gradientUnits="userSpaceOnUse" id="Sizk498bc1p2"><stop offset="0%" stop-color="#96c9eb"/><stop offset="100%" stop-color="#547387"/></linearGradient><linearGradient x1="21.7043" y1="49.1433" x2="24.8936" y2="56.534" gradientUnits="userSpaceOnUse" id="Sizk498bc1p5"><stop offset="0%" stop-color="#96c9eb"/><stop offset="37.63%" stop-color="#b0dfff"/><stop offset="100%" stop-color="#547387"/></linearGradient><linearGradient x1="58.2238" y1="50.5238" x2="58.5303" y2="51.2392" gradientUnits="userSpaceOnUse" id="Sizk498bc1p9"><stop offset="0%" stop-color="#96c9eb"/><stop offset="37.63%" stop-color="#b0dfff"/><stop offset="100%" stop-color="#547387"/></linearGradient><linearGradient x1="52.6983" y1="50.7103" x2="56.1965" y2="57.6192" gradientUnits="userSpaceOnUse" id="Sizk498bc1pd"><stop offset="0%" stop-color="#96c9eb"/><stop offset="37.63%" stop-color="#b0dfff"/><stop offset="100%" stop-color="#547387"/></linearGradient><radialGradient cx="47.1542" cy="77.6098" r="9.1845" gradientUnits="userSpaceOnUse" id="Sizk498bc1ph"><stop offset="0%" stop-color="#96c9eb"/><stop offset="100%" stop-color="#547387"/></radialGradient></defs><g id="shape" xmlns="http://www.w3.org/2000/svg">
	<path fill="#660000" d="M25.2,70.3H9.5c-2,0-3.6-1.6-3.6-3.6V34c0-2,1.6-3.6,3.6-3.6h15.8c2,0,3.6,1.6,3.6,3.6v32.7
		C28.8,68.7,27.2,70.3,25.2,70.3z M9.5,32.9c-0.6,0-1.1,0.5-1.1,1.1v32.7c0,0.6,0.5,1.1,1.1,1.1h15.8c0.6,0,1.1-0.5,1.1-1.1V34
		c0-0.6-0.5-1.1-1.1-1.1H9.5z"></path>
	<path fill="#660000" d="M89.5,70.3h-6.3c-2,0-3.6-1.6-3.6-3.6V34c0-2,1.6-3.6,3.6-3.6h6.3c2,0,3.6,1.6,3.6,3.6v32.7
		C93.1,68.7,91.5,70.3,89.5,70.3z M83.2,32.9c-0.6,0-1.1,0.5-1.1,1.1v32.7c0,0.6,0.5,1.1,1.1,1.1h6.3c0.6,0,1.1-0.5,1.1-1.1V34
		c0-0.6-0.5-1.1-1.1-1.1H83.2z"></path>
	<rect x="10.2" y="35.3" fill="#660000" width="5.9" height="5.7"></rect>
	<rect x="10.2" y="58.6" fill="#660000" width="5.9" height="5.7"></rect>
	<rect x="83.9" y="45.1" fill="#660000" width="5.9" height="5.7"></rect>
	<rect x="83.9" y="58.6" fill="#660000" width="5.9" height="5.7"></rect>
	<path fill="#660000" d="M41.3,30.4h-6.3c-2,0-3.6,1.6-3.6,3.6v32.7c0,2,1.6,3.6,3.6,3.6h6.3c2,0,3.6-1.6,3.6-3.6V34
		C44.9,32,43.3,30.4,41.3,30.4z M41.3,67.8h-6.3c-0.6,0-1.1-0.5-1.1-1.1V34c0-0.6,0.5-1.1,1.1-1.1h6.3c0.6,0,1.1,0.5,1.1,1.1v10.9
		h-3V49h3v1.5h-3v4.1h3v1.5h-3v4.1h3v1.5h-3v4.1h3v1C42.4,67.3,41.9,67.8,41.3,67.8z"></path>
	<path fill="#660000" d="M57.4,30.4h-6.3c-2,0-3.6,1.6-3.6,3.6v32.7c0,2,1.6,3.6,3.6,3.6h6.3c2,0,3.6-1.6,3.6-3.6V34
		C61,32,59.4,30.4,57.4,30.4z M57.4,67.8h-6.3c-0.6,0-1.1-0.5-1.1-1.1V34c0-0.6,0.5-1.1,1.1-1.1h6.3c0.6,0,1.1,0.5,1.1,1.1v10.9
		h-3.6V49h3.6v1.5h-3.6v4.1h3.6v1.5h-3.6v4.1h3.6v1.5h-3.6v4.1h3.6v1C58.5,67.3,58,67.8,57.4,67.8z"></path>
	<path fill="#660000" d="M94,25.8H6c-2.6,0-4.8,2.1-4.8,4.8V70c0,2.6,2.1,4.8,4.8,4.8h88c2.6,0,4.8-2.1,4.8-4.8V30.6
		C98.8,27.9,96.6,25.8,94,25.8z M96.3,70c0,1.2-1,2.3-2.3,2.3H6c-1.2,0-2.3-1-2.3-2.3V30.6c0-1.2,1-2.3,2.3-2.3h88
		c1.2,0,2.3,1,2.3,2.3V70z"></path>
	<path fill="#660000" d="M73.4,30.4h-6.3c-2,0-3.6,1.6-3.6,3.6v32.7c0,2,1.6,3.6,3.6,3.6h6.3c2,0,3.6-1.6,3.6-3.6V34
		C77,32,75.4,30.4,73.4,30.4z M73.4,67.8h-6.3c-0.6,0-1.1-0.5-1.1-1.1V34c0-0.6,0.5-1.1,1.1-1.1h6.3c0.6,0,1.1,0.5,1.1,1.1v10.9
		h-3.6V49h3.6v1.5h-3.6v4.1h3.6v1.5h-3.6v4.1h3.6v1.5h-3.6v4.1h3.6v1C74.5,67.3,74,67.8,73.4,67.8z"></path>
</g><g id="shape" xmlns="http://www.w3.org/2000/svg">
	<path fill="#660000" d="M25.2,70.3H9.5c-2,0-3.6-1.6-3.6-3.6V34c0-2,1.6-3.6,3.6-3.6h15.8c2,0,3.6,1.6,3.6,3.6v32.7
		C28.8,68.7,27.2,70.3,25.2,70.3z M9.5,32.9c-0.6,0-1.1,0.5-1.1,1.1v32.7c0,0.6,0.5,1.1,1.1,1.1h15.8c0.6,0,1.1-0.5,1.1-1.1V34
		c0-0.6-0.5-1.1-1.1-1.1H9.5z"></path>
	<path fill="#660000" d="M89.5,70.3h-6.3c-2,0-3.6-1.6-3.6-3.6V34c0-2,1.6-3.6,3.6-3.6h6.3c2,0,3.6,1.6,3.6,3.6v32.7
		C93.1,68.7,91.5,70.3,89.5,70.3z M83.2,32.9c-0.6,0-1.1,0.5-1.1,1.1v32.7c0,0.6,0.5,1.1,1.1,1.1h6.3c0.6,0,1.1-0.5,1.1-1.1V34
		c0-0.6-0.5-1.1-1.1-1.1H83.2z"></path>
	<rect x="10.2" y="35.3" fill="#660000" width="5.9" height="5.7"></rect>
	<rect x="10.2" y="58.6" fill="#660000" width="5.9" height="5.7"></rect>
	<rect x="83.9" y="45.1" fill="#660000" width="5.9" height="5.7"></rect>
	<rect x="83.9" y="58.6" fill="#660000" width="5.9" height="5.7"></rect>
	<path fill="#660000" d="M41.3,30.4h-6.3c-2,0-3.6,1.6-3.6,3.6v32.7c0,2,1.6,3.6,3.6,3.6h6.3c2,0,3.6-1.6,3.6-3.6V34
		C44.9,32,43.3,30.4,41.3,30.4z M41.3,67.8h-6.3c-0.6,0-1.1-0.5-1.1-1.1V34c0-0.6,0.5-1.1,1.1-1.1h6.3c0.6,0,1.1,0.5,1.1,1.1v10.9
		h-3V49h3v1.5h-3v4.1h3v1.5h-3v4.1h3v1.5h-3v4.1h3v1C42.4,67.3,41.9,67.8,41.3,67.8z"></path>
	<path fill="#660000" d="M57.4,30.4h-6.3c-2,0-3.6,1.6-3.6,3.6v32.7c0,2,1.6,3.6,3.6,3.6h6.3c2,0,3.6-1.6,3.6-3.6V34
		C61,32,59.4,30.4,57.4,30.4z M57.4,67.8h-6.3c-0.6,0-1.1-0.5-1.1-1.1V34c0-0.6,0.5-1.1,1.1-1.1h6.3c0.6,0,1.1,0.5,1.1,1.1v10.9
		h-3.6V49h3.6v1.5h-3.6v4.1h3.6v1.5h-3.6v4.1h3.6v1.5h-3.6v4.1h3.6v1C58.5,67.3,58,67.8,57.4,67.8z"></path>
	<path fill="#660000" d="M94,25.8H6c-2.6,0-4.8,2.1-4.8,4.8V70c0,2.6,2.1,4.8,4.8,4.8h88c2.6,0,4.8-2.1,4.8-4.8V30.6
		C98.8,27.9,96.6,25.8,94,25.8z M96.3,70c0,1.2-1,2.3-2.3,2.3H6c-1.2,0-2.3-1-2.3-2.3V30.6c0-1.2,1-2.3,2.3-2.3h88
		c1.2,0,2.3,1,2.3,2.3V70z"></path>
	<path fill="#660000" d="M73.4,30.4h-6.3c-2,0-3.6,1.6-3.6,3.6v32.7c0,2,1.6,3.6,3.6,3.6h6.3c2,0,3.6-1.6,3.6-3.6V34
		C77,32,75.4,30.4,73.4,30.4z M73.4,67.8h-6.3c-0.6,0-1.1-0.5-1.1-1.1V34c0-0.6,0.5-1.1,1.1-1.1h6.3c0.6,0,1.1,0.5,1.1,1.1v10.9
		h-3.6V49h3.6v1.5h-3.6v4.1h3.6v1.5h-3.6v4.1h3.6v1.5h-3.6v4.1h3.6v1C74.5,67.3,74,67.8,73.4,67.8z"></path>
</g></svg>