<?xml version="1.0" encoding="iso-8859-1"?>
<!-- Generator: Adobe Illustrator 19.0.0, SVG Export Plug-In . SVG Version: 6.00 Build 0)  -->
<svg version="1.1" id="Layer_1" xmlns="http://www.w3.org/2000/svg" xmlns:xlink="http://www.w3.org/1999/xlink" x="0px" y="0px"
	 viewBox="0 0 508 508" style="enable-background:new 0 0 508 508;" xml:space="preserve">
<circle style="fill:#84DBFF;" cx="254" cy="254" r="254"/>
<rect x="216.099" y="54.2" transform="matrix(0.7496 0.6618 -0.6618 0.7496 216.0565 -102.7909)" style="fill:#FFFFFF;" width="55.597" height="359.978"/>
<g>
	<polygon style="fill:#E6E9EE;" points="378,124 356.4,148.8 424,208.4 431.6,200 397.2,141.2 	"/>
	<polygon style="fill:#E6E9EE;" points="323.2,186 344.8,161.6 412.4,221.2 405.2,230 342.4,203.2 	"/>
	<polygon style="fill:#E6E9EE;" points="314.4,112 300.8,100 292.8,77.6 296,73.6 325.2,99.6 	"/>
	<polygon style="fill:#E6E9EE;" points="303.2,124.8 289.6,112.8 266.4,107.6 263.2,111.2 292.4,137.2 	"/>
</g>
<g>
	
		<rect x="149.717" y="359.373" transform="matrix(-0.6619 0.7496 -0.7496 -0.6619 529.6957 495.4278)" style="fill:#324A5E;" width="6.8" height="15.6"/>
	
		<rect x="168.991" y="337.856" transform="matrix(-0.6618 0.7497 -0.7497 -0.6618 545.6128 445.1685)" style="fill:#324A5E;" width="6.8" height="15.6"/>
	
		<rect x="187.671" y="316.415" transform="matrix(-0.6618 0.7496 -0.7496 -0.6618 560.575 395.557)" style="fill:#324A5E;" width="6.8" height="15.599"/>
	
		<rect x="206.399" y="294.969" transform="matrix(-0.6619 0.7496 -0.7496 -0.6619 575.6181 345.9073)" style="fill:#324A5E;" width="6.8" height="15.6"/>
	
		<rect x="225.645" y="273.477" transform="matrix(-0.6618 0.7496 -0.7496 -0.6618 591.4928 295.7345)" style="fill:#324A5E;" width="6.8" height="15.599"/>
	
		<rect x="244.377" y="252.012" transform="matrix(-0.6618 0.7497 -0.7497 -0.6618 606.5319 245.9976)" style="fill:#324A5E;" width="6.8" height="15.6"/>
	
		<rect x="263.381" y="230.82" transform="matrix(-0.6618 0.7497 -0.7497 -0.6618 622.2252 196.5328)" style="fill:#324A5E;" width="6.8" height="15.6"/>
	
		<rect x="282.064" y="209.38" transform="matrix(-0.6618 0.7496 -0.7496 -0.6618 637.2023 146.9205)" style="fill:#324A5E;" width="6.8" height="15.599"/>
	
		<rect x="301.339" y="187.877" transform="matrix(-0.6618 0.7496 -0.7496 -0.6618 653.1152 96.7374)" style="fill:#324A5E;" width="6.8" height="15.599"/>
	
		<rect x="320.063" y="166.421" transform="matrix(-0.6618 0.7497 -0.7497 -0.6618 668.1389 47.0219)" style="fill:#324A5E;" width="6.8" height="15.6"/>
	
		<rect x="339.067" y="145.212" transform="matrix(-0.6618 0.7497 -0.7497 -0.6618 683.8201 -2.4695)" style="fill:#324A5E;" width="6.8" height="15.6"/>
	
		<rect x="358.039" y="123.493" transform="matrix(-0.6619 0.7496 -0.7496 -0.6619 699.0907 -52.7381)" style="fill:#324A5E;" width="6.8" height="15.6"/>
</g>
<rect x="88.891" y="377.251" transform="matrix(-0.6618 0.7496 -0.7496 -0.6618 475.3964 560.4522)" style="fill:#E6E9EE;" width="44.797" height="20.399"/>
<g>
</g>
<g>
</g>
<g>
</g>
<g>
</g>
<g>
</g>
<g>
</g>
<g>
</g>
<g>
</g>
<g>
</g>
<g>
</g>
<g>
</g>
<g>
</g>
<g>
</g>
<g>
</g>
<g>
</g>
</svg>
