<svg version="1.1" id="Layer_1" xmlns="http://www.w3.org/2000/svg" xmlns:xlink="http://www.w3.org/1999/xlink" x="1px" y="12px" width="97px" height="76px" viewBox="1 12 97 76" enable-background="1 12 97 76" xml:space="preserve"><desc>Copyright Opto 22</desc> <p id="title">Monitor</p><desc>Created with Snap</desc><defs><linearGradient x1="27.2012" y1="52.8758" x2="27.408" y2="53.5183" gradientUnits="userSpaceOnUse" id="Sizk498bc1mo"><stop offset="0%" stop-color="#c6e2ff"/><stop offset="37.63%" stop-color="#e0efff"/><stop offset="100%" stop-color="#4c5e70"/></linearGradient><linearGradient x1="31.5635" y1="48.438" x2="32.6514" y2="51.8165" gradientUnits="userSpaceOnUse" id="Sizk498bc1mv"><stop offset="0%" stop-color="#c6e2ff"/><stop offset="37.63%" stop-color="#e0efff"/><stop offset="100%" stop-color="#4c5e70"/></linearGradient><linearGradient x1="61.0123" y1="49.4725" x2="62.1673" y2="52.1675" gradientUnits="userSpaceOnUse" id="Sizk498bc1n2"><stop offset="0%" stop-color="#c6e2ff"/><stop offset="37.63%" stop-color="#e0efff"/><stop offset="100%" stop-color="#4c5e70"/></linearGradient><linearGradient x1="4.3781" y1="71.2322" x2="2.7807" y2="89.3924" gradientUnits="userSpaceOnUse" id="Sizk498bc1n8"><stop offset="1.06%" stop-color="#c6e2ff"/><stop offset="77.25%" stop-color="#4c5e70"/></linearGradient><linearGradient x1="25.0381" y1="72.4517" x2="23.3727" y2="91.3841" gradientUnits="userSpaceOnUse" id="Sizk498bc1nd"><stop offset="1.06%" stop-color="#c6e2ff"/><stop offset="77.25%" stop-color="#4c5e70"/></linearGradient><linearGradient x1="70.6641" y1="27.4651" x2="71.8002" y2="33.9979" gradientUnits="userSpaceOnUse" id="Sizk498bc1ni"><stop offset="12.93%" stop-color="#c6e2ff"/><stop offset="100%" stop-color="#4c5e70"/></linearGradient><linearGradient x1="65.4051" y1="7.1391" x2="42.0463" y2="7.1391" gradientUnits="userSpaceOnUse" id="Sizk498bc1nn"><stop offset="0%" stop-color="#c6e2ff"/><stop offset="100%" stop-color="#4c5e70"/></linearGradient><linearGradient x1="21.7043" y1="49.1433" x2="24.8936" y2="56.534" gradientUnits="userSpaceOnUse" id="Sizk498bc1nt"><stop offset="0%" stop-color="#c6e2ff"/><stop offset="37.63%" stop-color="#e0efff"/><stop offset="100%" stop-color="#4c5e70"/></linearGradient><linearGradient x1="58.2238" y1="50.5238" x2="58.5303" y2="51.2392" gradientUnits="userSpaceOnUse" id="Sizk498bc1o0"><stop offset="0%" stop-color="#c6e2ff"/><stop offset="37.63%" stop-color="#e0efff"/><stop offset="100%" stop-color="#4c5e70"/></linearGradient><linearGradient x1="52.6983" y1="50.7103" x2="56.1965" y2="57.6192" gradientUnits="userSpaceOnUse" id="Sizk498bc1o7"><stop offset="0%" stop-color="#c6e2ff"/><stop offset="37.63%" stop-color="#e0efff"/><stop offset="100%" stop-color="#4c5e70"/></linearGradient><radialGradient cx="47.1542" cy="77.6098" r="9.1845" gradientUnits="userSpaceOnUse" id="Sizk498bc1oe"><stop offset="0%" stop-color="#c6e2ff"/><stop offset="100%" stop-color="#4c5e70"/></radialGradient><linearGradient x1="27.2012" y1="52.8758" x2="27.408" y2="53.5183" gradientUnits="userSpaceOnUse" id="Sizk498bc1oh"><stop offset="0%" stop-color="#96c9eb"/><stop offset="37.63%" stop-color="#b0dfff"/><stop offset="100%" stop-color="#547387"/></linearGradient><linearGradient x1="31.5635" y1="48.438" x2="32.6514" y2="51.8165" gradientUnits="userSpaceOnUse" id="Sizk498bc1ol"><stop offset="0%" stop-color="#96c9eb"/><stop offset="37.63%" stop-color="#b0dfff"/><stop offset="100%" stop-color="#547387"/></linearGradient><linearGradient x1="61.0123" y1="49.4725" x2="62.1673" y2="52.1675" gradientUnits="userSpaceOnUse" id="Sizk498bc1op"><stop offset="0%" stop-color="#96c9eb"/><stop offset="37.63%" stop-color="#b0dfff"/><stop offset="100%" stop-color="#547387"/></linearGradient><linearGradient x1="4.3781" y1="71.2322" x2="2.7807" y2="89.3924" gradientUnits="userSpaceOnUse" id="Sizk498bc1ot"><stop offset="1.06%" stop-color="#96c9eb"/><stop offset="77.25%" stop-color="#547387"/></linearGradient><linearGradient x1="25.0381" y1="72.4517" x2="23.3727" y2="91.3841" gradientUnits="userSpaceOnUse" id="Sizk498bc1ow"><stop offset="1.06%" stop-color="#96c9eb"/><stop offset="77.25%" stop-color="#547387"/></linearGradient><linearGradient x1="70.6641" y1="27.4651" x2="71.8002" y2="33.9979" gradientUnits="userSpaceOnUse" id="Sizk498bc1oz"><stop offset="12.93%" stop-color="#96c9eb"/><stop offset="100%" stop-color="#547387"/></linearGradient><linearGradient x1="65.4051" y1="7.1391" x2="42.0463" y2="7.1391" gradientUnits="userSpaceOnUse" id="Sizk498bc1p2"><stop offset="0%" stop-color="#96c9eb"/><stop offset="100%" stop-color="#547387"/></linearGradient><linearGradient x1="21.7043" y1="49.1433" x2="24.8936" y2="56.534" gradientUnits="userSpaceOnUse" id="Sizk498bc1p5"><stop offset="0%" stop-color="#96c9eb"/><stop offset="37.63%" stop-color="#b0dfff"/><stop offset="100%" stop-color="#547387"/></linearGradient><linearGradient x1="58.2238" y1="50.5238" x2="58.5303" y2="51.2392" gradientUnits="userSpaceOnUse" id="Sizk498bc1p9"><stop offset="0%" stop-color="#96c9eb"/><stop offset="37.63%" stop-color="#b0dfff"/><stop offset="100%" stop-color="#547387"/></linearGradient><linearGradient x1="52.6983" y1="50.7103" x2="56.1965" y2="57.6192" gradientUnits="userSpaceOnUse" id="Sizk498bc1pd"><stop offset="0%" stop-color="#96c9eb"/><stop offset="37.63%" stop-color="#b0dfff"/><stop offset="100%" stop-color="#547387"/></linearGradient><radialGradient cx="47.1542" cy="77.6098" r="9.1845" gradientUnits="userSpaceOnUse" id="Sizk498bc1ph"><stop offset="0%" stop-color="#96c9eb"/><stop offset="100%" stop-color="#547387"/></radialGradient></defs><g xmlns="http://www.w3.org/2000/svg">
<g id="shape">
	<g>
		<path fill="#666666" d="M98.314,67.536c0.228,0,0.414-0.186,0.414-0.414V13.055c0-0.228-0.186-0.414-0.414-0.414H2.266
			c-0.228,0-0.414,0.186-0.414,0.414v54.067c0,0.228,0.186,0.414,0.414,0.414h37.873c0.228,0,0.414,0.186,0.414,0.414v2.279
			c0,0.228-0.186,0.414-0.414,0.414h-0.633c-0.228,0-0.483,0.173-0.567,0.384l-0.908,2.27c-0.084,0.211-0.333,0.435-0.552,0.497
			l-4.99,1.992c-0.195,0.118-0.528,0.279-0.742,0.359l-13.79,5.145c-0.213,0.08-0.529,0.265-0.702,0.413l-1.064,1.533
			c-0.078,0.214-0.142,0.575-0.142,0.802v0.795c0,0.228,0.169,0.491,0.376,0.586l7.037,3.226c0.207,0.095,0.553,0.114,0.769,0.042
			l15.651-5.217c0.216-0.072,0.577-0.104,0.802-0.07c0,0,5.911,0.874,9.604,0.874c3.758,0,9.759-0.903,9.759-0.903
			c0.225-0.034,0.586-0.003,0.802,0.069l15.74,5.247c0.216,0.072,0.562,0.053,0.769-0.042l7.037-3.226
			c0.207-0.095,0.376-0.359,0.376-0.586v-0.795c0-0.228-0.064-0.589-0.142-0.802l-1.064-1.533c-0.173-0.148-0.489-0.334-0.702-0.413
			L68.689,76c-0.213-0.08-0.549-0.237-0.747-0.35l-4.578-1.801c-0.219-0.063-0.467-0.287-0.551-0.498l-0.93-2.325
			c-0.084-0.211-0.34-0.384-0.567-0.384h-0.551c-0.228,0-0.414-0.186-0.414-0.414V67.95c0-0.228,0.186-0.414,0.414-0.414H98.314z"></path>
	</g>
</g>
<g id="light">
	<g>
		<path fill="#F2F2F2" d="M94.184,63.228c0,0.228-0.186,0.414-0.414,0.414H6.809c-0.228,0-0.414-0.186-0.414-0.414V16.95
			c0-0.228,0.186-0.414,0.414-0.414H93.77c0.228,0,0.414,0.186,0.414,0.414V63.228z"></path>
	</g>
	<rect x="40.553" y="76.349" fill="#CCCCCC" width="19.797" height="0.836"></rect>
</g>
<g id="dark">
	<path fill="#4D4D4D" d="M75.462,85.003c0.836,0.312,1.52,1.298,1.52,2.191v1.622l-16.436-5.479V79.87
		C60.812,79.825,75.462,85.003,75.462,85.003z"></path>
	<g>
		<path fill="#4D4D4D" d="M60.35,73.748v4.359H40.553v-4.415c-4.252,0.694-7.032,1.828-7.032,3.113
			c0,2.114,7.507,3.828,16.768,3.828c9.261,0,16.768-1.714,16.768-3.828C67.057,75.554,64.416,74.446,60.35,73.748z"></path>
	</g>
	<circle fill="#333333" cx="92.745" cy="65.454" r="0.934"></circle>
	<circle fill="#333333" cx="89.942" cy="65.454" r="0.934"></circle>
	<circle fill="#333333" cx="87.275" cy="65.454" r="0.934"></circle>
	<circle fill="#333333" cx="84.274" cy="65.454" r="0.934"></circle>
</g>
<g id="shadow">
	<polygon points="98.849,67.657 2.611,67.657 2.611,66.657 97.849,66.657 97.849,13.4 98.849,13.4 	"></polygon>
	<polygon points="6.896,63.642 5.896,63.642 5.896,16.036 94.184,16.036 94.184,17.036 6.896,17.036 	"></polygon>
	<rect x="40.553" y="67.599" width="19.797" height="1.836"></rect>
	<path d="M25.359,85.003c-0.836,0.312-1.52,1.298-1.52,2.191v1.622l16.436-5.479V79.87C40.009,79.825,25.359,85.003,25.359,85.003z"></path>
</g>
<g id="hlight">
	<polygon fill="#FFFFFF" points="2.481,67.171 1.981,67.171 1.981,12.771 98.538,12.771 98.538,13.271 2.481,13.271 	"></polygon>
	<circle fill="#FFFFFF" cx="2.418" cy="13.207" r="0.565"></circle>
	<polygon fill="#E6E6E6" points="94.434,63.892 6.396,63.892 6.396,63.392 93.934,63.392 93.934,16.536 94.434,16.536 	"></polygon>
	<g>
		<path fill="#72A16B" d="M84.731,65.918h-0.913c-0.149,0-0.271-0.121-0.271-0.271v-0.416c0-0.149,0.121-0.271,0.271-0.271h0.913
			c0.149,0,0.271,0.121,0.271,0.271v0.416C85.002,65.796,84.88,65.918,84.731,65.918z M83.817,65.096
			c-0.075,0-0.135,0.061-0.135,0.135v0.416c0,0.075,0.06,0.136,0.135,0.136h0.913c0.075,0,0.135-0.061,0.135-0.136v-0.416
			c0-0.074-0.06-0.135-0.135-0.135H83.817z"></path>
	</g>
	<g>
		<rect x="86.619" y="65.371" fill="#72A16B" width="1.288" height="0.203"></rect>
	</g>
	<polygon fill="#72A16B" points="90.575,65.371 90.033,65.371 90.033,64.828 89.829,64.828 89.829,65.371 89.287,65.371 
		89.287,65.575 89.829,65.575 89.829,66.118 90.033,66.118 90.033,65.575 90.575,65.575 	"></polygon>
	<g>
		<g>
			<path fill="#72A16B" d="M92.994,64.916v0.236c0.097,0.074,0.159,0.19,0.159,0.321c0,0.224-0.183,0.407-0.407,0.407
				c-0.225,0-0.408-0.183-0.408-0.407c0-0.131,0.063-0.247,0.159-0.321v-0.236c-0.213,0.095-0.362,0.309-0.362,0.557
				c0,0.336,0.275,0.61,0.611,0.61c0.337,0,0.61-0.273,0.61-0.61C93.356,65.225,93.207,65.011,92.994,64.916z"></path>
			<g>
				<rect x="92.644" y="64.693" fill="#72A16B" width="0.203" height="0.78"></rect>
			</g>
		</g>
	</g>
</g>
</g></svg>