<?xml version="1.0" encoding="iso-8859-1"?>
<!-- Generator: Adobe Illustrator 19.0.0, SVG Export Plug-In . SVG Version: 6.00 Build 0)  -->
<svg version="1.1" id="Layer_1" xmlns="http://www.w3.org/2000/svg" xmlns:xlink="http://www.w3.org/1999/xlink" x="0px" y="0px"
	 viewBox="0 0 512 512" style="enable-background:new 0 0 512 512;" xml:space="preserve">
<path style="fill:#999999;" d="M299.116,29.642v10.779v21.558h-86.232V40.421V29.642c0-11.906,9.651-21.558,21.558-21.558h43.116
	C289.464,8.084,299.116,17.736,299.116,29.642z"/>
<path style="fill:#6D6D6D;" d="M299.116,29.642v10.779v21.558h-32.337V40.421V29.642c0-11.906-9.651-21.558-21.558-21.558h32.337
	C289.464,8.084,299.116,17.736,299.116,29.642z"/>
<path style="fill:#E2E2E2;" d="M493.137,385.347H18.863c-5.953,0-10.779-4.826-10.779-10.779V51.2
	c0-5.953,4.826-10.779,10.779-10.779h474.274c5.953,0,10.779,4.826,10.779,10.779v323.368
	C503.916,380.522,499.09,385.347,493.137,385.347z"/>
<path style="fill:#BFBFBF;" d="M503.916,51.2v323.368c0,5.953-4.826,10.779-10.779,10.779h-21.558V40.421h21.558
	C499.09,40.421,503.916,45.247,503.916,51.2z"/>
<path style="fill:#5D7EAC;" d="M256,206.553v12.664c0,4.438-3.132,8.258-7.484,9.129l-23.211,4.643
	c-1.616,5.775-3.906,11.266-6.789,16.383l13.132,19.699c2.462,3.692,1.975,8.608-1.163,11.746l-8.955,8.955
	c-3.138,3.138-8.054,3.625-11.746,1.163l-19.699-13.132c-5.117,2.882-10.608,5.173-16.383,6.789l-4.643,23.211
	c-0.87,4.351-4.691,7.484-9.129,7.484h-12.664c-4.438,0-8.258-3.132-9.129-7.484l-4.642-23.211
	c-5.775-1.616-11.266-3.906-16.383-6.789l-19.699,13.132c-3.692,2.462-8.608,1.975-11.746-1.163l-8.955-8.955
	c-3.138-3.138-3.625-8.054-1.163-11.746l13.132-19.699c-2.882-5.117-5.173-10.608-6.789-16.383l-23.211-4.643
	c-4.351-0.87-7.484-4.691-7.484-9.129v-12.664c0-4.438,3.132-8.258,7.484-9.129l23.211-4.642c1.616-5.775,3.906-11.266,6.789-16.383
	L75.551,156.7c-2.462-3.692-1.975-8.608,1.163-11.746l8.955-8.955c3.138-3.138,8.054-3.625,11.746-1.163l19.699,13.132
	c5.117-2.882,10.608-5.173,16.383-6.789l4.642-23.211c0.87-4.351,4.691-7.484,9.129-7.484h12.664c4.438,0,8.258,3.132,9.129,7.484
	l4.643,23.211c5.775,1.616,11.266,3.906,16.383,6.789l19.699-13.132c3.692-2.462,8.608-1.975,11.746,1.163l8.955,8.955
	c3.138,3.138,3.625,8.054,1.163,11.746l-13.132,19.699c2.882,5.117,5.173,10.608,6.789,16.383l23.211,4.642
	C252.868,198.294,256,202.115,256,206.553z"/>
<path style="fill:#ABC5FF;" d="M205.878,212.884c0,28.872-23.405,52.278-52.278,52.278s-52.278-23.405-52.278-52.278
	s23.405-52.278,52.278-52.278S205.878,184.012,205.878,212.884z"/>
<path style="fill:#5D7EAC;" d="M184.32,212.884c0,16.966-13.754,30.72-30.72,30.72s-30.72-13.754-30.72-30.72
	s13.754-30.72,30.72-30.72S184.32,195.918,184.32,212.884z"/>
<path style="fill:#809DED;" d="M166.535,212.884c0,13.874-9.199,25.594-21.827,29.408c-12.629-3.815-21.827-15.535-21.827-29.408
	s9.199-25.594,21.827-29.408C157.336,187.291,166.535,199.011,166.535,212.884z"/>
<path style="fill:#6D6D6D;" d="M406.905,202.105v21.558c0,5.953-4.826,10.779-10.779,10.779h-86.232v-43.116h86.232
	C402.08,191.326,406.905,196.152,406.905,202.105z"/>
<path style="fill:#999999;" d="M374.568,234.442h-64.674v-43.116h64.674c5.953,0,10.779,4.826,10.779,10.779v21.558
	C385.347,229.616,380.522,234.442,374.568,234.442z"/>
<path style="fill:#5D7EAC;" d="M353.01,158.989h-43.116v-43.116h43.116c5.953,0,10.779,4.826,10.779,10.779v21.558
	C363.789,154.164,358.964,158.989,353.01,158.989z M450.021,266.779H309.895v43.116h140.126c5.953,0,10.779-4.826,10.779-10.779
	v-21.558C460.8,271.605,455.974,266.779,450.021,266.779z"/>
<path style="fill:#809DED;" d="M331.453,158.989h-21.558v-43.116h21.558c5.953,0,10.779,4.826,10.779,10.779v21.558
	C342.232,154.164,337.406,158.989,331.453,158.989z M428.463,266.779H309.895v43.116h118.568c5.953,0,10.779-4.826,10.779-10.779
	v-21.558C439.242,271.605,434.416,266.779,428.463,266.779z"/>
<path d="M503.916,312.589c-4.466,0-8.084,3.618-8.084,8.084v53.895c0,1.486-1.208,2.695-2.695,2.695H18.863
	c-1.486,0-2.695-1.208-2.695-2.695V137.432c0-4.466-3.618-8.084-8.084-8.084S0,132.966,0,137.432v237.137
	c0,10.401,8.463,18.863,18.863,18.863h121.263v102.4h-35.032c-4.466,0-8.084,3.618-8.084,8.084s3.618,8.084,8.084,8.084h301.811
	c4.466,0,8.084-3.618,8.084-8.084s-3.618-8.084-8.084-8.084h-35.032v-102.4h121.263c10.401,0,18.863-8.463,18.863-18.863v-53.895
	C512,316.208,508.382,312.589,503.916,312.589z M355.705,420.379H180.547c-4.466,0-8.084,3.618-8.084,8.084s3.618,8.084,8.084,8.084
	h175.158v59.284H156.295v-102.4h199.411V420.379z M57.099,189.497c-8.103,1.619-13.984,8.792-13.984,17.056v12.663
	c0,8.263,5.881,15.437,13.982,17.056l18.519,3.705c1.054,3.034,2.285,6.006,3.685,8.894l-10.477,15.715
	c-4.583,6.875-3.669,16.104,2.173,21.947l8.955,8.955c5.843,5.841,15.072,6.755,21.947,2.173l15.715-10.477
	c2.888,1.4,5.859,2.631,8.894,3.685l3.705,18.518c1.619,8.103,8.792,13.984,17.056,13.984h12.663
	c8.263,0,15.437-5.881,17.056-13.982l3.705-18.519c3.034-1.054,6.006-2.285,8.894-3.685l15.715,10.477
	c6.874,4.583,16.103,3.67,21.947-2.173l8.955-8.955c5.842-5.843,6.756-15.072,2.173-21.947l-10.477-15.715
	c1.4-2.888,2.631-5.859,3.685-8.894l18.518-3.705c8.103-1.619,13.984-8.792,13.984-17.056v-12.663
	c0-8.263-5.881-15.437-13.982-17.056l-18.519-3.705c-1.054-3.035-2.285-6.006-3.685-8.894l10.477-15.715
	c4.583-6.875,3.669-16.104-2.173-21.947l-8.955-8.955c-5.845-5.842-15.072-6.756-21.947-2.173l-15.715,10.477
	c-2.888-1.4-5.859-2.631-8.894-3.685l-3.705-18.518c-1.62-8.101-8.792-13.982-17.057-13.982h-12.663
	c-8.264,0-15.437,5.881-17.056,13.982l-3.705,18.519c-3.034,1.054-6.006,2.285-8.894,3.685L101.9,128.11
	c-6.874-4.582-16.103-3.67-21.947,2.173l-8.955,8.955c-5.842,5.843-6.756,15.072-2.173,21.947L79.302,176.9
	c-1.4,2.888-2.631,5.858-3.685,8.894L57.099,189.497z M83.48,200.708c2.985-0.597,5.379-2.818,6.2-5.747
	c1.425-5.093,3.46-10.003,6.047-14.595c1.495-2.653,1.372-5.92-0.317-8.453l-13.133-19.697c-0.322-0.484-0.258-1.135,0.154-1.546
	l8.955-8.955c0.411-0.413,1.06-0.477,1.546-0.154l19.697,13.133c2.533,1.689,5.801,1.811,8.452,0.317
	c4.595-2.587,9.504-4.622,14.596-6.047c2.93-0.821,5.15-3.215,5.747-6.2l4.644-23.212c0.113-0.569,0.619-0.983,1.201-0.983h12.663
	c0.582,0,1.088,0.414,1.201,0.984l4.644,23.211c0.597,2.985,2.818,5.379,5.747,6.2c5.092,1.425,10.001,3.46,14.596,6.047
	c2.651,1.495,5.92,1.373,8.452-0.317l19.697-13.133c0.485-0.324,1.135-0.259,1.546,0.154l8.955,8.955
	c0.412,0.411,0.475,1.061,0.154,1.546l-13.133,19.697c-1.689,2.533-1.812,5.8-0.317,8.453c2.587,4.592,4.622,9.502,6.047,14.595
	c0.821,2.93,3.215,5.15,6.2,5.747l23.212,4.644c0.569,0.113,0.983,0.619,0.983,1.201v12.663c0,0.582-0.414,1.088-0.984,1.201
	l-23.211,4.644c-2.985,0.597-5.379,2.818-6.2,5.747c-1.425,5.092-3.46,10.001-6.047,14.596c-1.495,2.652-1.371,5.919,0.317,8.452
	l13.133,19.697c0.322,0.484,0.258,1.135-0.154,1.546l-8.955,8.955c-0.411,0.412-1.06,0.477-1.546,0.154l-19.697-13.133
	c-2.533-1.69-5.802-1.813-8.452-0.317c-4.595,2.587-9.504,4.622-14.596,6.047c-2.93,0.821-5.15,3.215-5.747,6.2l-4.644,23.212
	c-0.113,0.569-0.619,0.983-1.201,0.983h-12.663c-0.582,0-1.088-0.414-1.201-0.984l-4.644-23.211c-0.597-2.985-2.818-5.379-5.747-6.2
	c-5.092-1.425-10.001-3.46-14.596-6.047c-1.234-0.696-2.602-1.041-3.968-1.041c-1.567,0-3.13,0.455-4.484,1.358l-19.697,13.133
	c-0.485,0.324-1.135,0.258-1.546-0.154l-8.955-8.955c-0.412-0.411-0.475-1.061-0.154-1.546l13.133-19.697
	c1.688-2.533,1.812-5.8,0.317-8.452c-2.587-4.595-4.622-9.504-6.047-14.596c-0.821-2.93-3.215-5.15-6.2-5.747l-23.212-4.644
	c-0.569-0.113-0.983-0.619-0.983-1.201v-12.663c0-0.582,0.414-1.088,0.984-1.201L83.48,200.708z M309.895,75.453
	c-4.466,0-8.084,3.618-8.084,8.084v258.695c0,4.466,3.618,8.084,8.084,8.084s8.084-3.618,8.084-8.084v-24.253h132.042
	c10.401,0,18.863-8.463,18.863-18.863v-21.558c0-10.401-8.463-18.863-18.863-18.863h-32.337c-4.466,0-8.084,3.618-8.084,8.084
	s3.618,8.084,8.084,8.084h32.337c1.486,0,2.695,1.208,2.695,2.695v21.558c0,1.486-1.208,2.695-2.695,2.695H317.979v-26.947h67.368
	c4.466,0,8.084-3.618,8.084-8.084s-3.618-8.084-8.084-8.084h-67.368v-16.168h78.147c10.401,0,18.863-8.463,18.863-18.863v-21.558
	c0-10.401-8.463-18.863-18.863-18.863h-21.558c-4.466,0-8.084,3.618-8.084,8.084s3.618,8.084,8.084,8.084h21.558
	c1.486,0,2.695,1.208,2.695,2.695v21.558c0,1.486-1.208,2.695-2.695,2.695h-78.147v-26.947h24.253c4.466,0,8.084-3.618,8.084-8.084
	s-3.618-8.084-8.084-8.084h-24.253v-16.168h35.032c10.401,0,18.863-8.463,18.863-18.863v-21.558
	c0-10.401-8.463-18.863-18.863-18.863h-35.032V83.537C317.979,79.071,314.36,75.453,309.895,75.453z M353.01,123.958
	c1.486,0,2.695,1.208,2.695,2.695v21.558c0,1.486-1.208,2.695-2.695,2.695h-35.032v-26.947H353.01z M153.6,251.688
	c21.397,0,38.804-17.407,38.804-38.804S174.997,174.08,153.6,174.08s-38.804,17.407-38.804,38.804S132.203,251.688,153.6,251.688z
	 M153.6,190.248c12.481,0,22.636,10.155,22.636,22.636S166.081,235.52,153.6,235.52s-22.636-10.155-22.636-22.636
	S141.119,190.248,153.6,190.248z M512,51.2v237.136c0,4.466-3.618,8.084-8.084,8.084s-8.084-3.618-8.084-8.084V51.2
	c0-1.486-1.208-2.695-2.695-2.695H277.558c-4.466,0-8.084-3.618-8.084-8.084s3.618-8.084,8.084-8.084h13.474v-2.695
	c0-7.43-6.044-13.474-13.474-13.474h-43.116c-7.43,0-13.474,6.044-13.474,13.474v2.695h24.253c4.466,0,8.084,3.618,8.084,8.084
	s-3.618,8.084-8.084,8.084H18.863c-1.486,0-2.695,1.208-2.695,2.695v53.895c0,4.466-3.618,8.084-8.084,8.084S0,109.56,0,105.095
	V51.2c0-10.401,8.463-18.863,18.863-18.863H204.8v-2.695C204.8,13.298,218.098,0,234.442,0h43.116
	C293.902,0,307.2,13.298,307.2,29.642v2.695h185.937C503.537,32.337,512,40.799,512,51.2z"/>
<g>
</g>
<g>
</g>
<g>
</g>
<g>
</g>
<g>
</g>
<g>
</g>
<g>
</g>
<g>
</g>
<g>
</g>
<g>
</g>
<g>
</g>
<g>
</g>
<g>
</g>
<g>
</g>
<g>
</g>
</svg>
