<svg version="1.1" id="Layer_1" xmlns="http://www.w3.org/2000/svg" xmlns:xlink="http://www.w3.org/1999/xlink" x="0px" y="24px" width="100px" height="63px" viewBox="0 24 100 63" enable-background="0 24 100 63" xml:space="preserve"><desc>Copyright Opto 22</desc> <p id="title">Industrial scale</p><desc>Created with Snap</desc><defs><linearGradient x1="27.2012" y1="52.8758" x2="27.408" y2="53.5183" gradientUnits="userSpaceOnUse" id="Sizk498bc1mo"><stop offset="0%" stop-color="#c6e2ff"/><stop offset="37.63%" stop-color="#e0efff"/><stop offset="100%" stop-color="#4c5e70"/></linearGradient><linearGradient x1="31.5635" y1="48.438" x2="32.6514" y2="51.8165" gradientUnits="userSpaceOnUse" id="Sizk498bc1mv"><stop offset="0%" stop-color="#c6e2ff"/><stop offset="37.63%" stop-color="#e0efff"/><stop offset="100%" stop-color="#4c5e70"/></linearGradient><linearGradient x1="61.0123" y1="49.4725" x2="62.1673" y2="52.1675" gradientUnits="userSpaceOnUse" id="Sizk498bc1n2"><stop offset="0%" stop-color="#c6e2ff"/><stop offset="37.63%" stop-color="#e0efff"/><stop offset="100%" stop-color="#4c5e70"/></linearGradient><linearGradient x1="4.3781" y1="71.2322" x2="2.7807" y2="89.3924" gradientUnits="userSpaceOnUse" id="Sizk498bc1n8"><stop offset="1.06%" stop-color="#c6e2ff"/><stop offset="77.25%" stop-color="#4c5e70"/></linearGradient><linearGradient x1="25.0381" y1="72.4517" x2="23.3727" y2="91.3841" gradientUnits="userSpaceOnUse" id="Sizk498bc1nd"><stop offset="1.06%" stop-color="#c6e2ff"/><stop offset="77.25%" stop-color="#4c5e70"/></linearGradient><linearGradient x1="70.6641" y1="27.4651" x2="71.8002" y2="33.9979" gradientUnits="userSpaceOnUse" id="Sizk498bc1ni"><stop offset="12.93%" stop-color="#c6e2ff"/><stop offset="100%" stop-color="#4c5e70"/></linearGradient><linearGradient x1="65.4051" y1="7.1391" x2="42.0463" y2="7.1391" gradientUnits="userSpaceOnUse" id="Sizk498bc1nn"><stop offset="0%" stop-color="#c6e2ff"/><stop offset="100%" stop-color="#4c5e70"/></linearGradient><linearGradient x1="21.7043" y1="49.1433" x2="24.8936" y2="56.534" gradientUnits="userSpaceOnUse" id="Sizk498bc1nt"><stop offset="0%" stop-color="#c6e2ff"/><stop offset="37.63%" stop-color="#e0efff"/><stop offset="100%" stop-color="#4c5e70"/></linearGradient><linearGradient x1="58.2238" y1="50.5238" x2="58.5303" y2="51.2392" gradientUnits="userSpaceOnUse" id="Sizk498bc1o0"><stop offset="0%" stop-color="#c6e2ff"/><stop offset="37.63%" stop-color="#e0efff"/><stop offset="100%" stop-color="#4c5e70"/></linearGradient><linearGradient x1="52.6983" y1="50.7103" x2="56.1965" y2="57.6192" gradientUnits="userSpaceOnUse" id="Sizk498bc1o7"><stop offset="0%" stop-color="#c6e2ff"/><stop offset="37.63%" stop-color="#e0efff"/><stop offset="100%" stop-color="#4c5e70"/></linearGradient><radialGradient cx="47.1542" cy="77.6098" r="9.1845" gradientUnits="userSpaceOnUse" id="Sizk498bc1oe"><stop offset="0%" stop-color="#c6e2ff"/><stop offset="100%" stop-color="#4c5e70"/></radialGradient><linearGradient x1="27.2012" y1="52.8758" x2="27.408" y2="53.5183" gradientUnits="userSpaceOnUse" id="Sizk498bc1oh"><stop offset="0%" stop-color="#96c9eb"/><stop offset="37.63%" stop-color="#b0dfff"/><stop offset="100%" stop-color="#547387"/></linearGradient><linearGradient x1="31.5635" y1="48.438" x2="32.6514" y2="51.8165" gradientUnits="userSpaceOnUse" id="Sizk498bc1ol"><stop offset="0%" stop-color="#96c9eb"/><stop offset="37.63%" stop-color="#b0dfff"/><stop offset="100%" stop-color="#547387"/></linearGradient><linearGradient x1="61.0123" y1="49.4725" x2="62.1673" y2="52.1675" gradientUnits="userSpaceOnUse" id="Sizk498bc1op"><stop offset="0%" stop-color="#96c9eb"/><stop offset="37.63%" stop-color="#b0dfff"/><stop offset="100%" stop-color="#547387"/></linearGradient><linearGradient x1="4.3781" y1="71.2322" x2="2.7807" y2="89.3924" gradientUnits="userSpaceOnUse" id="Sizk498bc1ot"><stop offset="1.06%" stop-color="#96c9eb"/><stop offset="77.25%" stop-color="#547387"/></linearGradient><linearGradient x1="25.0381" y1="72.4517" x2="23.3727" y2="91.3841" gradientUnits="userSpaceOnUse" id="Sizk498bc1ow"><stop offset="1.06%" stop-color="#96c9eb"/><stop offset="77.25%" stop-color="#547387"/></linearGradient><linearGradient x1="70.6641" y1="27.4651" x2="71.8002" y2="33.9979" gradientUnits="userSpaceOnUse" id="Sizk498bc1oz"><stop offset="12.93%" stop-color="#96c9eb"/><stop offset="100%" stop-color="#547387"/></linearGradient><linearGradient x1="65.4051" y1="7.1391" x2="42.0463" y2="7.1391" gradientUnits="userSpaceOnUse" id="Sizk498bc1p2"><stop offset="0%" stop-color="#96c9eb"/><stop offset="100%" stop-color="#547387"/></linearGradient><linearGradient x1="21.7043" y1="49.1433" x2="24.8936" y2="56.534" gradientUnits="userSpaceOnUse" id="Sizk498bc1p5"><stop offset="0%" stop-color="#96c9eb"/><stop offset="37.63%" stop-color="#b0dfff"/><stop offset="100%" stop-color="#547387"/></linearGradient><linearGradient x1="58.2238" y1="50.5238" x2="58.5303" y2="51.2392" gradientUnits="userSpaceOnUse" id="Sizk498bc1p9"><stop offset="0%" stop-color="#96c9eb"/><stop offset="37.63%" stop-color="#b0dfff"/><stop offset="100%" stop-color="#547387"/></linearGradient><linearGradient x1="52.6983" y1="50.7103" x2="56.1965" y2="57.6192" gradientUnits="userSpaceOnUse" id="Sizk498bc1pd"><stop offset="0%" stop-color="#96c9eb"/><stop offset="37.63%" stop-color="#b0dfff"/><stop offset="100%" stop-color="#547387"/></linearGradient><radialGradient cx="47.1542" cy="77.6098" r="9.1845" gradientUnits="userSpaceOnUse" id="Sizk498bc1ph"><stop offset="0%" stop-color="#96c9eb"/><stop offset="100%" stop-color="#547387"/></radialGradient></defs><g xmlns="http://www.w3.org/2000/svg">
<g id="shape">
	<path fill="#CCCCCC" d="M99.976,61.963L100,58.236l-1.424-0.133l-2.181,0.528L70.531,52.33l0.162-17.017l0.096-0.019v-1.334
		l-0.083,0.011l0-0.011l4.271-0.577l0.048-7.962l-3.001-0.508l-10.189,0.968l-0.024,7.962l3.679,0.823l1.824-0.247l-0.034,0.876
		l0.025,0.006L67.15,51.506l-4.759-1.159l-0.805,0.141l0.006-0.915l-1.424-0.133L0,59.229l0.124,4.251l0.07,0.043v1.587l3.568,1.653
		l-1.051,0.21l0.048,4.647l32.188,15.804l31.673-8.853l1.386,0.527l2.275-0.734l0.01-0.819l26.998-7.546l0.048-4.259l-2.905-0.742
		v-1.436l-2.604,0.772l-0.595-0.152L99.976,61.963z M5.044,63.046l0.14-0.024l5.375,2.381l-0.413,0.083l-5.386-2.391L5.044,63.046z"></path>
</g>
<g id="dark">

		<polygon fill="#187AA0" points="34.258,75.828 34.148,75.855 10.558,65.403 10.142,65.486 4.755,63.096 5.183,63.022 
			2.904,62.012 2.711,60.802 61.586,50.488 61.592,49.572 60.168,49.439 0,59.229 0.124,63.48 0.194,63.523 0.194,65.11 
			3.762,66.763 2.711,66.973 2.759,71.62 34.947,87.423 66.62,78.571 62.536,77.017 62.56,75.105 65.077,74.524 66.925,75.098 
			67.014,65.75 34.197,73.701 		"></polygon>
		<polygon fill="#187AA0" points="99.976,61.963 100,58.236 98.576,58.103 82.595,61.975 82.595,61.975 70.411,64.927 
			70.291,77.544 97.289,69.998 97.338,65.739 94.433,64.997 94.433,63.369 		"></polygon>

	<path fill="#77989D" d="M65.949,27.428l0.073,6.147l8.156-1.041l0.097-5.954L65.949,27.428z M73.682,32.354l-1.286,0.18v-1.516
		l1.286-0.138V32.354z M73.682,30.521l-1.286,0.13v-1.516l1.286-0.138V30.521z M73.682,28.604l-1.286,0.163v-1.516l1.286-0.138
		V28.604z"></path>
</g>
<g id="light">
	<polygon fill="#FFFFFF" points="67.301,35.591 66.925,75.098 65.077,74.524 62.561,75.105 62.536,77.017 68.006,79.098 
		68.102,35.681 	"></polygon>
	<polygon fill="#FFFFFF" points="61.834,25.879 72.023,24.911 75.024,25.419 65.367,26.436 	"></polygon>
	<g>
		<g>
			<path fill="#FFFFFF" d="M8.044,61.008c0-0.493,0.534-0.892,1.193-0.892s1.193,0.399,1.193,0.892c0,0-0.256,0.401-1.193,0.401
				C8.299,61.409,8.044,61.008,8.044,61.008z"></path>
		</g>
		<g>
			<path fill="#FFFFFF" d="M11.319,62.356c0-0.505,0.547-0.914,1.222-0.914s1.222,0.409,1.222,0.914c0,0-0.262,0.411-1.222,0.411
				S11.319,62.356,11.319,62.356z"></path>
		</g>
		<g>
			<path fill="#FFFFFF" d="M14.594,63.704c0-0.517,0.56-0.936,1.252-0.936c0.691,0,1.252,0.419,1.252,0.936
				c0,0-0.268,0.42-1.252,0.42S14.594,63.704,14.594,63.704z"></path>
		</g>
		<g>
			<path fill="#FFFFFF" d="M17.87,65.052c0-0.529,0.573-0.958,1.281-0.958c0.707,0,1.281,0.429,1.281,0.958
				c0,0-0.274,0.43-1.281,0.43C18.144,65.482,17.87,65.052,17.87,65.052z"></path>
		</g>
		<g>
			<path fill="#FFFFFF" d="M21.145,66.4c0-0.541,0.587-0.98,1.31-0.98s1.31,0.439,1.31,0.98c0,0-0.281,0.44-1.31,0.44
				C21.426,66.84,21.145,66.4,21.145,66.4z"></path>
		</g>
		<g>
			<path fill="#FFFFFF" d="M24.42,67.748c0-0.553,0.6-1.001,1.339-1.001c0.74,0,1.339,0.448,1.339,1.001c0,0-0.287,0.45-1.339,0.45
				C24.707,68.198,24.42,67.748,24.42,67.748z"></path>
		</g>
		<g>
			<path fill="#FFFFFF" d="M27.695,69.096c0-0.565,0.613-1.023,1.368-1.023s1.368,0.458,1.368,1.023c0,0-0.293,0.46-1.368,0.46
				C27.989,69.555,27.695,69.096,27.695,69.096z"></path>
		</g>
		<g>
			<path fill="#FFFFFF" d="M30.971,70.443c0-0.577,0.626-1.045,1.398-1.045c0.772,0,1.398,0.468,1.398,1.045
				c0,0-0.3,0.47-1.398,0.47C31.27,70.913,30.971,70.443,30.971,70.443z"></path>
		</g>
		<g>
			<path fill="#FFFFFF" d="M34.246,71.791c0-0.589,0.639-1.067,1.427-1.067c0.788,0,1.427,0.478,1.427,1.067
				c0,0-0.306,0.479-1.427,0.479S34.246,71.791,34.246,71.791z"></path>
		</g>
	</g>
	<g>
		<g>
			<path fill="#FFFFFF" d="M14.78,59.951c0-0.493,0.534-0.892,1.193-0.892c0.659,0,1.193,0.399,1.193,0.892
				c0,0-0.256,0.401-1.193,0.401S14.78,59.951,14.78,59.951z"></path>
		</g>
		<g>
			<path fill="#FFFFFF" d="M18.145,61.207c0-0.505,0.547-0.914,1.222-0.914c0.675,0,1.222,0.409,1.222,0.914
				c0,0-0.262,0.411-1.222,0.411C18.407,61.618,18.145,61.207,18.145,61.207z"></path>
		</g>
		<g>
			<path fill="#FFFFFF" d="M21.51,62.463c0-0.517,0.56-0.936,1.252-0.936s1.252,0.419,1.252,0.936c0,0-0.268,0.42-1.252,0.42
				S21.51,62.463,21.51,62.463z"></path>
		</g>
		<g>
			<path fill="#FFFFFF" d="M24.875,63.72c0-0.529,0.573-0.958,1.281-0.958c0.707,0,1.281,0.429,1.281,0.958
				c0,0-0.274,0.43-1.281,0.43C25.149,64.15,24.875,63.72,24.875,63.72z"></path>
		</g>
		<g>
			<path fill="#FFFFFF" d="M28.24,64.976c0-0.541,0.587-0.98,1.31-0.98c0.724,0,1.31,0.439,1.31,0.98c0,0-0.281,0.44-1.31,0.44
				C28.521,65.416,28.24,64.976,28.24,64.976z"></path>
		</g>
		<g>
			<path fill="#FFFFFF" d="M31.605,66.232c0-0.553,0.6-1.001,1.339-1.001s1.339,0.448,1.339,1.001c0,0-0.287,0.45-1.339,0.45
				C31.892,66.682,31.605,66.232,31.605,66.232z"></path>
		</g>
		<g>
			<path fill="#FFFFFF" d="M34.97,67.488c0-0.565,0.613-1.023,1.368-1.023s1.368,0.458,1.368,1.023c0,0-0.293,0.46-1.368,0.46
				C35.263,67.948,34.97,67.488,34.97,67.488z"></path>
		</g>
		<g>
			<path fill="#FFFFFF" d="M38.335,68.744c0-0.577,0.626-1.045,1.398-1.045c0.772,0,1.398,0.468,1.398,1.045
				c0,0-0.3,0.47-1.398,0.47C38.634,69.214,38.335,68.744,38.335,68.744z"></path>
		</g>
		<g>
			<path fill="#FFFFFF" d="M41.7,70c0-0.589,0.639-1.067,1.427-1.067c0.788,0,1.427,0.478,1.427,1.067c0,0-0.306,0.479-1.427,0.479
				S41.7,70,41.7,70z"></path>
		</g>
	</g>
	<g>
		<g>
			<path fill="#FFFFFF" d="M21.5,58.652c0-0.493,0.534-0.892,1.193-0.892c0.659,0,1.193,0.399,1.193,0.892
				c0,0-0.256,0.401-1.193,0.401C21.755,59.053,21.5,58.652,21.5,58.652z"></path>
		</g>
		<g>
			<path fill="#FFFFFF" d="M24.956,59.848c0-0.505,0.547-0.914,1.222-0.914s1.222,0.409,1.222,0.914c0,0-0.262,0.411-1.222,0.411
				S24.956,59.848,24.956,59.848z"></path>
		</g>
		<g>
			<path fill="#FFFFFF" d="M28.413,61.044c0-0.517,0.56-0.936,1.252-0.936c0.691,0,1.252,0.419,1.252,0.936
				c0,0-0.268,0.42-1.252,0.42C28.681,61.464,28.413,61.044,28.413,61.044z"></path>
		</g>
		<g>
			<path fill="#FFFFFF" d="M31.87,62.239c0-0.529,0.573-0.958,1.281-0.958c0.707,0,1.281,0.429,1.281,0.958
				c0,0-0.274,0.43-1.281,0.43C32.144,62.67,31.87,62.239,31.87,62.239z"></path>
		</g>
		<g>
			<path fill="#FFFFFF" d="M35.327,63.435c0-0.541,0.587-0.98,1.31-0.98c0.724,0,1.31,0.439,1.31,0.98c0,0-0.281,0.44-1.31,0.44
				S35.327,63.435,35.327,63.435z"></path>
		</g>
		<g>
			<path fill="#FFFFFF" d="M38.784,64.631c0-0.553,0.6-1.001,1.339-1.001s1.339,0.448,1.339,1.001c0,0-0.287,0.45-1.339,0.45
				S38.784,64.631,38.784,64.631z"></path>
		</g>
		<g>
			<path fill="#FFFFFF" d="M42.24,65.826c0-0.565,0.613-1.023,1.368-1.023s1.368,0.458,1.368,1.023c0,0-0.293,0.46-1.368,0.46
				C42.534,66.286,42.24,65.826,42.24,65.826z"></path>
		</g>
		<g>
			<path fill="#FFFFFF" d="M45.697,67.022c0-0.577,0.626-1.045,1.398-1.045c0.772,0,1.398,0.468,1.398,1.045
				c0,0-0.3,0.47-1.398,0.47C45.997,67.491,45.697,67.022,45.697,67.022z"></path>
		</g>
		<g>
			<path fill="#FFFFFF" d="M49.154,68.218c0-0.589,0.639-1.067,1.427-1.067c0.788,0,1.427,0.478,1.427,1.067
				c0,0-0.306,0.479-1.427,0.479S49.154,68.218,49.154,68.218z"></path>
		</g>
	</g>
	<g>
		<g>
			<path fill="#FFFFFF" d="M28.082,57.507c0-0.493,0.534-0.892,1.193-0.892s1.193,0.399,1.193,0.892c0,0-0.256,0.401-1.193,0.401
				S28.082,57.507,28.082,57.507z"></path>
		</g>
		<g>
			<path fill="#FFFFFF" d="M31.598,58.644c0-0.505,0.547-0.914,1.222-0.914c0.675,0,1.222,0.409,1.222,0.914
				c0,0-0.262,0.411-1.222,0.411C31.86,59.055,31.598,58.644,31.598,58.644z"></path>
		</g>
		<g>
			<path fill="#FFFFFF" d="M35.113,59.781c0-0.517,0.56-0.936,1.252-0.936s1.252,0.419,1.252,0.936c0,0-0.268,0.42-1.252,0.42
				S35.113,59.781,35.113,59.781z"></path>
		</g>
		<g>
			<path fill="#FFFFFF" d="M38.628,60.918c0-0.529,0.573-0.958,1.281-0.958c0.707,0,1.281,0.429,1.281,0.958
				c0,0-0.274,0.43-1.281,0.43C38.903,61.349,38.628,60.918,38.628,60.918z"></path>
		</g>
		<g>
			<path fill="#FFFFFF" d="M42.144,62.055c0-0.541,0.587-0.98,1.31-0.98c0.724,0,1.31,0.439,1.31,0.98c0,0-0.281,0.44-1.31,0.44
				S42.144,62.055,42.144,62.055z"></path>
		</g>
		<g>
			<path fill="#FFFFFF" d="M45.659,63.193c0-0.553,0.6-1.001,1.339-1.001c0.74,0,1.339,0.448,1.339,1.001c0,0-0.287,0.45-1.339,0.45
				C45.946,63.642,45.659,63.193,45.659,63.193z"></path>
		</g>
		<g>
			<path fill="#FFFFFF" d="M49.174,64.33c0-0.565,0.613-1.023,1.368-1.023s1.368,0.458,1.368,1.023c0,0-0.293,0.46-1.368,0.46
				S49.174,64.33,49.174,64.33z"></path>
		</g>
		<g>
			<path fill="#FFFFFF" d="M52.689,65.467c0-0.577,0.626-1.045,1.398-1.045c0.772,0,1.398,0.468,1.398,1.045
				c0,0-0.3,0.47-1.398,0.47C52.989,65.936,52.689,65.467,52.689,65.467z"></path>
		</g>
		<g>
			<path fill="#FFFFFF" d="M56.205,66.604c0-0.589,0.639-1.067,1.427-1.067c0.788,0,1.427,0.478,1.427,1.067
				c0,0-0.306,0.479-1.427,0.479S56.205,66.604,56.205,66.604z"></path>
		</g>
	</g>
	<g>
		<g>
			<path fill="#FFFFFF" d="M34.173,56.321c0-0.493,0.534-0.892,1.193-0.892s1.193,0.399,1.193,0.892c0,0-0.256,0.401-1.193,0.401
				S34.173,56.321,34.173,56.321z"></path>
		</g>
		<g>
			<path fill="#FFFFFF" d="M37.841,57.366c0-0.505,0.547-0.914,1.222-0.914c0.675,0,1.222,0.409,1.222,0.914
				c0,0-0.262,0.411-1.222,0.411C38.103,57.777,37.841,57.366,37.841,57.366z"></path>
		</g>
		<g>
			<path fill="#FFFFFF" d="M41.508,58.412c0-0.517,0.56-0.936,1.252-0.936s1.252,0.419,1.252,0.936c0,0-0.268,0.42-1.252,0.42
				S41.508,58.412,41.508,58.412z"></path>
		</g>
		<g>
			<path fill="#FFFFFF" d="M45.176,59.457c0-0.529,0.573-0.958,1.281-0.958s1.281,0.429,1.281,0.958c0,0-0.274,0.43-1.281,0.43
				S45.176,59.457,45.176,59.457z"></path>
		</g>
		<g>
			<path fill="#FFFFFF" d="M48.843,60.503c0-0.541,0.587-0.98,1.31-0.98c0.724,0,1.31,0.439,1.31,0.98c0,0-0.281,0.44-1.31,0.44
				C49.124,60.943,48.843,60.503,48.843,60.503z"></path>
		</g>
		<g>
			<path fill="#FFFFFF" d="M52.511,61.548c0-0.553,0.6-1.001,1.339-1.001c0.74,0,1.339,0.448,1.339,1.001c0,0-0.287,0.45-1.339,0.45
				C52.798,61.998,52.511,61.548,52.511,61.548z"></path>
		</g>
		<g>
			<path fill="#FFFFFF" d="M56.178,62.593c0-0.565,0.613-1.023,1.368-1.023s1.368,0.458,1.368,1.023c0,0-0.293,0.46-1.368,0.46
				S56.178,62.593,56.178,62.593z"></path>
		</g>
		<g>
			<path fill="#FFFFFF" d="M59.846,63.639c0-0.577,0.626-1.045,1.398-1.045c0.772,0,1.398,0.468,1.398,1.045
				c0,0-0.3,0.47-1.398,0.47C60.146,64.108,59.846,63.639,59.846,63.639z"></path>
		</g>
		<g>
			<path fill="#FFFFFF" d="M63.514,64.684c0-0.589,0.639-1.067,1.427-1.067c0.788,0,1.427,0.478,1.427,1.067
				c0,0-0.306,0.479-1.427,0.479C63.819,65.163,63.514,64.684,63.514,64.684z"></path>
		</g>
	</g>
	<g>
		<g>
			<path fill="#FFFFFF" d="M40.819,55.07c0-0.443,0.481-0.803,1.074-0.803s1.074,0.36,1.074,0.803c0,0-0.23,0.361-1.074,0.361
				C41.049,55.431,40.819,55.07,40.819,55.07z"></path>
		</g>
		<g>
			<path fill="#FFFFFF" d="M44.567,56.078c0-0.454,0.493-0.823,1.1-0.823c0.608,0,1.1,0.368,1.1,0.823c0,0-0.236,0.37-1.1,0.37
				C44.803,56.447,44.567,56.078,44.567,56.078z"></path>
		</g>
		<g>
			<path fill="#FFFFFF" d="M48.316,57.085c0-0.465,0.504-0.842,1.126-0.842c0.622,0,1.126,0.377,1.126,0.842
				c0,0-0.241,0.378-1.126,0.378C48.557,57.463,48.316,57.085,48.316,57.085z"></path>
		</g>
		<g>
			<path fill="#FFFFFF" d="M52.064,58.092c0-0.476,0.516-0.862,1.153-0.862c0.637,0,1.153,0.386,1.153,0.862
				c0,0-0.247,0.387-1.153,0.387C52.311,58.48,52.064,58.092,52.064,58.092z"></path>
		</g>
		<g>
			<path fill="#FFFFFF" d="M55.813,59.1c0-0.487,0.528-0.882,1.179-0.882c0.651,0,1.179,0.395,1.179,0.882
				c0,0-0.253,0.396-1.179,0.396C56.065,59.496,55.813,59.1,55.813,59.1z"></path>
		</g>
		<g>
			<path fill="#FFFFFF" d="M59.561,60.107c0-0.498,0.54-0.901,1.205-0.901s1.205,0.404,1.205,0.901c0,0-0.258,0.405-1.205,0.405
				C59.82,60.512,59.561,60.107,59.561,60.107z"></path>
		</g>
		<g>
			<path fill="#FFFFFF" d="M63.31,61.115c0-0.509,0.551-0.921,1.232-0.921c0.68,0,1.232,0.412,1.232,0.921
				c0,0-0.264,0.414-1.232,0.414C63.574,61.528,63.31,61.115,63.31,61.115z"></path>
		</g>
		<g>
			<path fill="#FFFFFF" d="M70.807,63.129c0-0.53,0.575-0.96,1.284-0.96c0.709,0,1.284,0.43,1.284,0.96c0,0-0.275,0.431-1.284,0.431
				C71.082,63.561,70.807,63.129,70.807,63.129z"></path>
		</g>
	</g>
	<g>
		<g>
			<path fill="#FFFFFF" d="M47.312,53.732c0-0.431,0.467-0.78,1.043-0.78s1.043,0.349,1.043,0.78c0,0-0.224,0.35-1.043,0.35
				S47.312,53.732,47.312,53.732z"></path>
		</g>
		<g>
			<path fill="#FFFFFF" d="M50.924,54.724c0-0.441,0.478-0.799,1.069-0.799c0.59,0,1.069,0.358,1.069,0.799
				c0,0-0.229,0.359-1.069,0.359C51.153,55.083,50.924,54.724,50.924,54.724z"></path>
		</g>
		<g>
			<path fill="#FFFFFF" d="M54.535,55.716c0-0.452,0.49-0.818,1.094-0.818s1.094,0.366,1.094,0.818c0,0-0.234,0.368-1.094,0.368
				C54.77,56.083,54.535,55.716,54.535,55.716z"></path>
		</g>
		<g>
			<path fill="#FFFFFF" d="M58.147,56.707c0-0.462,0.501-0.837,1.12-0.837c0.618,0,1.12,0.375,1.12,0.837c0,0-0.24,0.376-1.12,0.376
				C58.387,57.083,58.147,56.707,58.147,56.707z"></path>
		</g>
		<g>
			<path fill="#FFFFFF" d="M61.759,57.699c0-0.473,0.513-0.856,1.145-0.856c0.633,0,1.145,0.383,1.145,0.856
				c0,0-0.245,0.385-1.145,0.385C62.004,58.084,61.759,57.699,61.759,57.699z"></path>
		</g>
		<path fill="#FFFFFF" d="M65.37,58.691c0,0,0.251,0.393,1.171,0.393c0.215,0,0.39-0.023,0.537-0.056l0.01-1.098
			c-0.166-0.067-0.346-0.115-0.548-0.115C65.895,57.815,65.37,58.207,65.37,58.691z"></path>
		<g>
			<path fill="#FFFFFF" d="M72.594,60.674c0-0.505,0.547-0.914,1.222-0.914c0.675,0,1.222,0.409,1.222,0.914
				c0,0-0.262,0.41-1.222,0.41C72.856,61.084,72.594,60.674,72.594,60.674z"></path>
		</g>
		<g>
			<path fill="#FFFFFF" d="M76.205,61.666c0-0.515,0.559-0.933,1.247-0.933c0.689,0,1.247,0.418,1.247,0.933
				c0,0-0.267,0.419-1.247,0.419C76.473,62.085,76.205,61.666,76.205,61.666z"></path>
		</g>
	</g>
	<g>
		<g>
			<path fill="#FFFFFF" d="M53.248,52.68c0-0.429,0.465-0.777,1.039-0.777c0.574,0,1.039,0.348,1.039,0.777
				c0,0-0.223,0.349-1.039,0.349C53.471,53.029,53.248,52.68,53.248,52.68z"></path>
		</g>
		<g>
			<path fill="#FFFFFF" d="M56.879,53.616c0-0.44,0.477-0.796,1.065-0.796s1.065,0.356,1.065,0.796c0,0-0.228,0.358-1.065,0.358
				S56.879,53.616,56.879,53.616z"></path>
		</g>
		<g>
			<path fill="#FFFFFF" d="M60.509,54.552c0-0.45,0.488-0.815,1.09-0.815c0.602,0,1.09,0.365,1.09,0.815c0,0-0.234,0.366-1.09,0.366
				C60.743,54.918,60.509,54.552,60.509,54.552z"></path>
		</g>
		<g>
			<path fill="#FFFFFF" d="M64.139,55.488c0-0.461,0.499-0.834,1.115-0.834s1.115,0.373,1.115,0.834c0,0-0.239,0.375-1.115,0.375
				C64.378,55.863,64.139,55.488,64.139,55.488z"></path>
		</g>
		<g>
			<path fill="#FFFFFF" d="M71.4,57.36c0-0.482,0.522-0.872,1.166-0.872s1.166,0.39,1.166,0.872c0,0-0.25,0.392-1.166,0.392
				S71.4,57.36,71.4,57.36z"></path>
		</g>
		<g>
			<path fill="#FFFFFF" d="M75.03,58.296c0-0.492,0.534-0.891,1.192-0.891c0.658,0,1.192,0.399,1.192,0.891c0,0-0.255,0.4-1.192,0.4
				S75.03,58.296,75.03,58.296z"></path>
		</g>
		<g>
			<path fill="#FFFFFF" d="M78.661,59.232c0-0.503,0.545-0.91,1.217-0.91c0.672,0,1.217,0.408,1.217,0.91
				c0,0-0.261,0.409-1.217,0.409C78.922,59.641,78.661,59.232,78.661,59.232z"></path>
		</g>
		<g>
			<path fill="#FFFFFF" d="M82.291,60.168c0-0.513,0.556-0.929,1.243-0.929s1.243,0.416,1.243,0.929c0,0-0.266,0.417-1.243,0.417
				C82.557,60.585,82.291,60.168,82.291,60.168z"></path>
		</g>
	</g>
	<g>
		<g>
			<path fill="#FFFFFF" d="M59.057,51.809c0-0.429,0.465-0.777,1.039-0.777c0.574,0,1.039,0.348,1.039,0.777
				c0,0-0.223,0.349-1.039,0.349C59.279,52.158,59.057,51.809,59.057,51.809z"></path>
		</g>
		<g>
			<path fill="#FFFFFF" d="M62.711,52.681c0-0.44,0.477-0.796,1.065-0.796s1.065,0.356,1.065,0.796c0,0-0.228,0.358-1.065,0.358
				C62.939,53.039,62.711,52.681,62.711,52.681z"></path>
		</g>
		<g>
			<path fill="#FFFFFF" d="M73.675,55.299c0-0.471,0.511-0.853,1.141-0.853s1.141,0.382,1.141,0.853c0,0-0.244,0.383-1.141,0.383
				S73.675,55.299,73.675,55.299z"></path>
		</g>
		<g>
			<path fill="#FFFFFF" d="M77.329,56.171c0-0.482,0.522-0.872,1.166-0.872c0.644,0,1.166,0.39,1.166,0.872
				c0,0-0.25,0.392-1.166,0.392S77.329,56.171,77.329,56.171z"></path>
		</g>
		<g>
			<path fill="#FFFFFF" d="M80.984,57.043c0-0.492,0.534-0.891,1.192-0.891c0.658,0,1.192,0.399,1.192,0.891
				c0,0-0.255,0.4-1.192,0.4C81.239,57.444,80.984,57.043,80.984,57.043z"></path>
		</g>
		<g>
			<path fill="#FFFFFF" d="M84.639,57.916c0-0.503,0.545-0.91,1.217-0.91c0.672,0,1.217,0.408,1.217,0.91
				c0,0-0.261,0.409-1.217,0.409C84.899,58.325,84.639,57.916,84.639,57.916z"></path>
		</g>
		<g>
			<path fill="#FFFFFF" d="M88.293,58.788c0-0.513,0.556-0.929,1.243-0.929s1.243,0.416,1.243,0.929c0,0-0.266,0.417-1.243,0.417
				S88.293,58.788,88.293,58.788z"></path>
		</g>
	</g>
	<path fill="#FFFFFF" d="M71.136,53.592c-0.235,0-0.44,0.067-0.62,0.159l-0.009,0.965c0.16,0.048,0.362,0.085,0.629,0.085
		c0.876,0,1.115-0.375,1.115-0.375C72.251,53.965,71.752,53.592,71.136,53.592z"></path>
	<path fill="#FFFFFF" d="M70.467,58.831l-0.012,1.238c0.712-0.069,0.919-0.387,0.919-0.387
		C71.375,59.265,70.984,58.93,70.467,58.831z"></path>
	<path fill="#FFFFFF" d="M66.366,53.554c0,0,0.175,0.267,0.761,0.344l0.011-1.111C66.694,52.89,66.366,53.188,66.366,53.554z"></path>
</g>
<g id="hlight">
		<polygon fill="#23B4EB" points="70.405,65.501 100,58.236 98.576,58.103 70.411,64.927 		"></polygon>
		<polygon fill="#23B4EB" points="67.014,65.75 34.197,73.701 35.72,74.016 67.009,66.335 		"></polygon>
	<polygon fill="#23B4EB" points="61.114,77.676 61.235,74.626 65.736,73.441 65.736,74.333 62,75.333 62,77.017 	"></polygon>
	<polygon fill="#23B4EB" points="0,59.229 60.168,49.439 61.592,49.572 1.625,59.5 	"></polygon>
	<polygon fill="#23B4EB" points="1.549,61.673 0.194,61.818 34.295,77.102 34.269,76.192 	"></polygon>
</g>
<g id="shadow">
	<path fill="#000000" d="M41.141,78.662c0,2.517-4.211,2.227-4.211,2.227v0.581c0,0,4.211,0.29,4.211-2.227V78.662z"></path>
	<path d="M90.318,66.755c2.13,1.355,4.114,0,4.114,0v-0.484c0,0-1.985,1.355-4.114,0V66.755z"></path>
	<polygon points="33.065,81.354 2.711,66.973 3.762,66.763 34.663,81.015 	"></polygon>
	<polygon points="68.135,34.309 68.102,35.681 70.788,35.294 70.788,33.959 	"></polygon>

		<polygon points="66.971,70.27 41.093,77.041 41.141,78.372 66.958,71.67 		"></polygon>
		<polygon points="88.915,64.529 70.367,69.382 70.353,70.789 90.477,65.565 90.484,64.762 		"></polygon>

		<path d="M60.975,51.419c0.093,0.116,0.16,0.244,0.16,0.389c0,0-0.223,0.349-1.039,0.349s-1.039-0.349-1.039-0.349
			c0-0.145,0.068-0.273,0.16-0.389c-0.275,0.114-0.457,0.275-0.457,0.46c0,0.343,0.598,0.622,1.336,0.622s1.336-0.278,1.336-0.622
			C61.432,51.695,61.25,51.533,60.975,51.419z"></path>
		<path d="M64.675,52.281c0.095,0.119,0.165,0.251,0.165,0.4c0,0-0.228,0.358-1.065,0.358s-1.065-0.358-1.065-0.358
			c0-0.149,0.07-0.281,0.165-0.4c-0.283,0.117-0.469,0.283-0.469,0.473c0,0.352,0.613,0.637,1.369,0.637s1.369-0.285,1.369-0.637
			C65.144,52.564,64.958,52.398,64.675,52.281z"></path>
		<path d="M75.777,54.867c0.104,0.129,0.18,0.271,0.18,0.432c0,0-0.244,0.383-1.141,0.383s-1.141-0.383-1.141-0.383
			c0-0.161,0.076-0.303,0.18-0.432c-0.306,0.125-0.506,0.305-0.506,0.509c0,0.377,0.657,0.682,1.467,0.682s1.467-0.306,1.467-0.682
			C76.283,55.172,76.083,54.992,75.777,54.867z"></path>
		<path d="M79.478,55.729c0.107,0.132,0.184,0.277,0.184,0.442c0,0-0.25,0.392-1.166,0.392s-1.166-0.392-1.166-0.392
			c0-0.165,0.078-0.311,0.184-0.442c-0.314,0.128-0.518,0.312-0.518,0.522c0,0.385,0.671,0.698,1.5,0.698s1.5-0.312,1.5-0.698
			C79.995,56.041,79.791,55.856,79.478,55.729z"></path>
		<path d="M83.178,56.59c0.109,0.135,0.189,0.284,0.189,0.453c0,0-0.255,0.4-1.192,0.4s-1.192-0.4-1.192-0.4
			c0-0.169,0.08-0.318,0.189-0.453c-0.321,0.131-0.53,0.32-0.53,0.534c0,0.394,0.686,0.713,1.532,0.713s1.532-0.319,1.532-0.713
			C83.708,56.91,83.5,56.721,83.178,56.59z"></path>
		<path d="M86.879,57.452c0.112,0.138,0.194,0.29,0.194,0.464c0,0-0.261,0.409-1.217,0.409s-1.217-0.409-1.217-0.409
			c0-0.173,0.082-0.326,0.194-0.464c-0.329,0.133-0.542,0.327-0.542,0.546c0,0.402,0.701,0.728,1.565,0.728s1.565-0.326,1.565-0.728
			C87.421,57.78,87.208,57.586,86.879,57.452z"></path>
		<path d="M90.579,58.314c0.115,0.141,0.199,0.297,0.199,0.474c0,0-0.266,0.417-1.243,0.417s-1.243-0.417-1.243-0.417
			c0-0.177,0.084-0.333,0.199-0.474c-0.337,0.136-0.554,0.335-0.554,0.559c0,0.411,0.715,0.743,1.598,0.743s1.598-0.333,1.598-0.743
			C91.133,58.649,90.916,58.451,90.579,58.314z"></path>

	<path d="M66.366,53.554c0-0.153,0.072-0.288,0.17-0.411c-0.291,0.119-0.481,0.29-0.481,0.485c0,0.307,0.456,0.562,1.069,0.632
		l0.003-0.362C66.54,53.821,66.366,53.554,66.366,53.554z"></path>
	<path d="M72.076,54.005c0.101,0.125,0.175,0.264,0.175,0.421c0,0-0.239,0.375-1.115,0.375c-0.267,0-0.469-0.036-0.629-0.085
		l-0.004,0.382c0.192,0.044,0.404,0.071,0.633,0.071c0.792,0,1.434-0.299,1.434-0.667C72.57,54.302,72.375,54.127,72.076,54.005z"></path>

		<path d="M10.239,60.553c0.11,0.135,0.191,0.285,0.191,0.455c0,0-0.256,0.401-1.193,0.401s-1.193-0.401-1.193-0.401
			c0-0.17,0.081-0.32,0.191-0.455c-0.323,0.131-0.532,0.321-0.532,0.536c0,0.394,0.687,0.714,1.534,0.714
			c0.847,0,1.534-0.32,1.534-0.714C10.771,60.874,10.562,60.684,10.239,60.553z"></path>
		<path d="M13.572,61.891c0.112,0.138,0.192,0.292,0.192,0.465c0,0-0.262,0.411-1.222,0.411s-1.222-0.411-1.222-0.411
			c0-0.173,0.08-0.327,0.192-0.465c-0.329,0.134-0.541,0.329-0.541,0.548c0,0.404,0.704,0.731,1.572,0.731
			c0.868,0,1.572-0.327,1.572-0.731C14.113,62.22,13.901,62.025,13.572,61.891z"></path>
		<path d="M16.905,63.229c0.113,0.141,0.193,0.298,0.193,0.475c0,0-0.268,0.42-1.252,0.42s-1.252-0.42-1.252-0.42
			c0-0.176,0.079-0.334,0.193-0.475c-0.335,0.137-0.55,0.336-0.55,0.56c0,0.413,0.72,0.749,1.609,0.749
			c0.889,0,1.609-0.335,1.609-0.749C17.455,63.565,17.24,63.367,16.905,63.229z"></path>
		<path d="M20.238,64.568c0.115,0.143,0.193,0.305,0.193,0.484c0,0-0.274,0.43-1.281,0.43s-1.281-0.43-1.281-0.43
			c0-0.179,0.079-0.341,0.193-0.484c-0.34,0.14-0.559,0.343-0.559,0.571c0,0.423,0.737,0.766,1.647,0.766
			c0.909,0,1.647-0.343,1.647-0.766C20.797,64.911,20.578,64.708,20.238,64.568z"></path>
		<path d="M23.571,65.906c0.116,0.146,0.194,0.311,0.194,0.494c0,0-0.281,0.44-1.31,0.44s-1.31-0.44-1.31-0.44
			c0-0.182,0.078-0.348,0.194-0.494c-0.346,0.144-0.568,0.35-0.568,0.583c0,0.433,0.754,0.784,1.684,0.784s1.684-0.351,1.684-0.784
			C24.139,66.256,23.917,66.049,23.571,65.906z"></path>
		<path d="M26.904,67.244c0.118,0.149,0.195,0.318,0.195,0.503c0,0-0.287,0.45-1.339,0.45s-1.339-0.45-1.339-0.45
			c0-0.186,0.077-0.354,0.195-0.503c-0.352,0.147-0.578,0.357-0.578,0.595c0,0.442,0.771,0.801,1.722,0.801
			c0.951,0,1.722-0.359,1.722-0.801C27.481,67.602,27.256,67.391,26.904,67.244z"></path>
		<path d="M30.237,68.582c0.119,0.152,0.196,0.324,0.196,0.513c0,0-0.293,0.46-1.368,0.46s-1.368-0.46-1.368-0.46
			c0-0.189,0.076-0.361,0.196-0.513c-0.358,0.15-0.587,0.365-0.587,0.606c0,0.452,0.788,0.819,1.759,0.819
			c0.972,0,1.759-0.367,1.759-0.819C30.823,68.947,30.594,68.732,30.237,68.582z"></path>
		<path d="M33.57,69.921c0.121,0.154,0.196,0.331,0.196,0.523c0,0-0.3,0.47-1.398,0.47s-1.398-0.47-1.398-0.47
			c0-0.192,0.076-0.368,0.196-0.523c-0.363,0.153-0.596,0.372-0.596,0.618c0,0.462,0.805,0.836,1.797,0.836
			c0.992,0,1.797-0.374,1.797-0.836C34.165,70.293,33.933,70.074,33.57,69.921z"></path>
		<path d="M36.903,71.259c0.122,0.157,0.197,0.337,0.197,0.532c0,0-0.306,0.479-1.427,0.479s-1.427-0.479-1.427-0.479
			c0-0.195,0.075-0.375,0.197-0.532c-0.369,0.156-0.605,0.379-0.605,0.63c0,0.471,0.821,0.854,1.835,0.854
			c1.013,0,1.835-0.382,1.835-0.854C37.507,71.638,37.272,71.415,36.903,71.259z"></path>

		<path d="M16.975,59.496c0.11,0.135,0.191,0.285,0.191,0.455c0,0-0.256,0.401-1.193,0.401s-1.193-0.401-1.193-0.401
			c0-0.17,0.081-0.32,0.191-0.455c-0.323,0.131-0.532,0.321-0.532,0.536c0,0.394,0.687,0.714,1.534,0.714
			c0.847,0,1.534-0.32,1.534-0.714C17.507,59.817,17.298,59.627,16.975,59.496z"></path>
		<path d="M20.398,60.742c0.112,0.138,0.192,0.292,0.192,0.465c0,0-0.262,0.411-1.222,0.411s-1.222-0.411-1.222-0.411
			c0-0.173,0.08-0.327,0.192-0.465c-0.329,0.134-0.541,0.329-0.541,0.548c0,0.404,0.704,0.731,1.572,0.731
			c0.868,0,1.572-0.327,1.572-0.731C20.939,61.071,20.727,60.876,20.398,60.742z"></path>
		<path d="M23.82,61.989c0.113,0.141,0.193,0.298,0.193,0.475c0,0-0.268,0.42-1.252,0.42s-1.252-0.42-1.252-0.42
			c0-0.176,0.079-0.334,0.193-0.475c-0.335,0.137-0.55,0.336-0.55,0.56c0,0.414,0.72,0.749,1.609,0.749
			c0.889,0,1.609-0.335,1.609-0.749C24.371,62.325,24.155,62.126,23.82,61.989z"></path>
		<path d="M27.243,63.235c0.115,0.143,0.193,0.305,0.193,0.484c0,0-0.274,0.43-1.281,0.43s-1.281-0.43-1.281-0.43
			c0-0.179,0.079-0.341,0.193-0.484c-0.34,0.14-0.559,0.343-0.559,0.571c0,0.423,0.737,0.766,1.647,0.766
			c0.909,0,1.647-0.343,1.647-0.766C27.802,63.579,27.584,63.376,27.243,63.235z"></path>
		<path d="M30.666,64.482c0.116,0.146,0.194,0.311,0.194,0.494c0,0-0.281,0.44-1.31,0.44s-1.31-0.44-1.31-0.44
			c0-0.182,0.078-0.348,0.194-0.494c-0.346,0.143-0.568,0.35-0.568,0.583c0,0.433,0.754,0.784,1.684,0.784
			c0.93,0,1.684-0.351,1.684-0.784C31.234,64.832,31.012,64.626,30.666,64.482z"></path>
		<path d="M34.089,65.729c0.118,0.149,0.195,0.318,0.195,0.503c0,0-0.287,0.45-1.339,0.45s-1.339-0.45-1.339-0.45
			c0-0.186,0.077-0.354,0.195-0.503c-0.352,0.147-0.577,0.357-0.577,0.595c0,0.442,0.771,0.801,1.722,0.801
			c0.951,0,1.722-0.359,1.722-0.801C34.666,66.086,34.44,65.875,34.089,65.729z"></path>
		<path d="M37.511,66.975c0.119,0.152,0.196,0.324,0.196,0.513c0,0-0.293,0.46-1.368,0.46s-1.368-0.46-1.368-0.46
			c0-0.189,0.076-0.361,0.196-0.513c-0.358,0.15-0.587,0.365-0.587,0.606c0,0.452,0.788,0.819,1.759,0.819
			c0.972,0,1.759-0.367,1.759-0.819C38.098,67.34,37.869,67.125,37.511,66.975z"></path>
		<path d="M40.934,68.222c0.121,0.154,0.196,0.331,0.196,0.523c0,0-0.299,0.47-1.398,0.47s-1.398-0.47-1.398-0.47
			c0-0.192,0.076-0.368,0.196-0.523c-0.363,0.153-0.596,0.372-0.596,0.618c0,0.462,0.805,0.836,1.797,0.836
			c0.992,0,1.797-0.374,1.797-0.836C41.53,68.593,41.297,68.375,40.934,68.222z"></path>
		<path d="M44.357,69.468c0.122,0.157,0.197,0.337,0.197,0.532c0,0-0.306,0.479-1.427,0.479S41.7,70,41.7,70
			c0-0.195,0.075-0.375,0.197-0.532c-0.369,0.156-0.605,0.379-0.605,0.63c0,0.471,0.821,0.854,1.835,0.854
			c1.013,0,1.835-0.382,1.835-0.854C44.961,69.847,44.726,69.624,44.357,69.468z"></path>

		<path d="M23.695,58.197c0.11,0.135,0.191,0.285,0.191,0.455c0,0-0.256,0.401-1.193,0.401S21.5,58.652,21.5,58.652
			c0-0.17,0.081-0.32,0.191-0.455c-0.323,0.131-0.532,0.321-0.532,0.536c0,0.394,0.687,0.714,1.534,0.714
			c0.847,0,1.534-0.32,1.534-0.714C24.227,58.518,24.018,58.328,23.695,58.197z"></path>
		<path d="M27.209,59.383c0.112,0.138,0.192,0.292,0.192,0.465c0,0-0.262,0.411-1.222,0.411c-0.96,0-1.222-0.411-1.222-0.411
			c0-0.173,0.08-0.327,0.192-0.465c-0.329,0.134-0.541,0.329-0.541,0.548c0,0.404,0.704,0.731,1.572,0.731
			c0.868,0,1.572-0.327,1.572-0.731C27.751,59.712,27.538,59.517,27.209,59.383z"></path>
		<path d="M30.724,60.569c0.113,0.141,0.193,0.298,0.193,0.475c0,0-0.268,0.42-1.252,0.42c-0.983,0-1.252-0.42-1.252-0.42
			c0-0.176,0.079-0.334,0.193-0.475c-0.335,0.137-0.55,0.336-0.55,0.56c0,0.414,0.72,0.749,1.609,0.749
			c0.889,0,1.609-0.335,1.609-0.749C31.274,60.905,31.059,60.706,30.724,60.569z"></path>
		<path d="M34.238,61.755c0.115,0.143,0.193,0.305,0.193,0.484c0,0-0.274,0.43-1.281,0.43c-1.006,0-1.281-0.43-1.281-0.43
			c0-0.179,0.079-0.341,0.193-0.484c-0.34,0.14-0.559,0.343-0.559,0.571c0,0.423,0.737,0.766,1.647,0.766
			c0.91,0,1.647-0.343,1.647-0.766C34.798,62.098,34.579,61.895,34.238,61.755z"></path>
		<path d="M37.753,62.941c0.116,0.146,0.194,0.311,0.194,0.494c0,0-0.281,0.44-1.31,0.44c-1.029,0-1.31-0.44-1.31-0.44
			c0-0.182,0.078-0.348,0.194-0.494c-0.346,0.143-0.568,0.35-0.568,0.583c0,0.433,0.754,0.784,1.684,0.784
			c0.93,0,1.684-0.351,1.684-0.784C38.321,63.291,38.099,63.085,37.753,62.941z"></path>
		<path d="M41.267,64.127c0.118,0.149,0.195,0.318,0.195,0.503c0,0-0.287,0.45-1.339,0.45c-1.052,0-1.339-0.45-1.339-0.45
			c0-0.186,0.077-0.354,0.195-0.503c-0.352,0.147-0.577,0.357-0.577,0.595c0,0.442,0.771,0.801,1.722,0.801
			c0.951,0,1.722-0.359,1.722-0.801C41.845,64.485,41.619,64.274,41.267,64.127z"></path>
		<path d="M44.782,65.313c0.119,0.152,0.196,0.324,0.196,0.513c0,0-0.293,0.46-1.368,0.46c-1.075,0-1.368-0.46-1.368-0.46
			c0-0.189,0.076-0.361,0.196-0.513c-0.358,0.15-0.587,0.365-0.587,0.606c0,0.452,0.788,0.819,1.759,0.819
			c0.972,0,1.759-0.367,1.759-0.819C45.368,65.678,45.139,65.463,44.782,65.313z"></path>
		<path d="M48.296,66.499c0.121,0.154,0.196,0.331,0.196,0.523c0,0-0.3,0.469-1.398,0.469c-1.098,0-1.398-0.469-1.398-0.469
			c0-0.192,0.076-0.368,0.196-0.523c-0.363,0.153-0.596,0.372-0.596,0.618c0,0.462,0.805,0.836,1.797,0.836
			c0.993,0,1.797-0.374,1.797-0.836C48.892,66.871,48.659,66.652,48.296,66.499z"></path>
		<path d="M51.811,67.685c0.122,0.157,0.197,0.337,0.197,0.532c0,0-0.306,0.479-1.427,0.479c-1.121,0-1.427-0.479-1.427-0.479
			c0-0.195,0.075-0.375,0.197-0.532c-0.369,0.156-0.605,0.379-0.605,0.629c0,0.471,0.821,0.854,1.835,0.854
			c1.013,0,1.835-0.382,1.835-0.854C52.415,68.064,52.18,67.841,51.811,67.685z"></path>

		<path d="M30.278,57.052c0.11,0.135,0.191,0.285,0.191,0.455c0,0-0.256,0.401-1.193,0.401s-1.193-0.401-1.193-0.401
			c0-0.17,0.081-0.32,0.191-0.455c-0.323,0.131-0.532,0.321-0.532,0.536c0,0.394,0.687,0.714,1.534,0.714
			c0.847,0,1.534-0.32,1.534-0.714C30.81,57.373,30.601,57.182,30.278,57.052z"></path>
		<path d="M33.851,58.179c0.112,0.138,0.192,0.292,0.192,0.465c0,0-0.262,0.411-1.222,0.411s-1.222-0.411-1.222-0.411
			c0-0.173,0.08-0.327,0.192-0.465c-0.329,0.134-0.541,0.329-0.541,0.548c0,0.404,0.704,0.731,1.572,0.731
			c0.868,0,1.572-0.327,1.572-0.731C34.392,58.508,34.18,58.313,33.851,58.179z"></path>
		<path d="M37.424,59.307c0.113,0.141,0.193,0.298,0.193,0.475c0,0-0.268,0.42-1.252,0.42s-1.252-0.42-1.252-0.42
			c0-0.176,0.079-0.334,0.193-0.475c-0.335,0.137-0.55,0.336-0.55,0.56c0,0.414,0.72,0.749,1.609,0.749
			c0.889,0,1.609-0.335,1.609-0.749C37.974,59.642,37.758,59.444,37.424,59.307z"></path>
		<path d="M40.997,60.434c0.115,0.143,0.193,0.305,0.193,0.484c0,0-0.274,0.43-1.281,0.43s-1.281-0.43-1.281-0.43
			c0-0.179,0.079-0.341,0.193-0.484c-0.34,0.14-0.559,0.343-0.559,0.571c0,0.423,0.737,0.766,1.647,0.766
			c0.91,0,1.647-0.343,1.647-0.766C41.556,60.777,41.337,60.574,40.997,60.434z"></path>
		<path d="M44.57,61.562c0.116,0.146,0.194,0.311,0.194,0.494c0,0-0.281,0.44-1.31,0.44s-1.31-0.44-1.31-0.44
			c0-0.182,0.078-0.348,0.194-0.494c-0.346,0.144-0.568,0.35-0.568,0.583c0,0.433,0.754,0.784,1.684,0.784
			c0.93,0,1.684-0.351,1.684-0.784C45.138,61.912,44.916,61.705,44.57,61.562z"></path>
		<path d="M48.143,62.689c0.118,0.149,0.195,0.318,0.195,0.503c0,0-0.287,0.45-1.339,0.45s-1.339-0.45-1.339-0.45
			c0-0.186,0.077-0.354,0.195-0.503c-0.352,0.147-0.577,0.358-0.577,0.595c0,0.442,0.771,0.801,1.722,0.801
			c0.951,0,1.722-0.359,1.722-0.801C48.72,63.047,48.494,62.836,48.143,62.689z"></path>
		<path d="M51.716,63.817c0.119,0.152,0.196,0.324,0.196,0.513c0,0-0.293,0.46-1.368,0.46s-1.368-0.46-1.368-0.46
			c0-0.189,0.076-0.361,0.196-0.513c-0.358,0.15-0.587,0.365-0.587,0.606c0,0.452,0.788,0.819,1.759,0.819
			c0.972,0,1.759-0.366,1.759-0.819C52.302,64.181,52.073,63.966,51.716,63.817z"></path>
		<path d="M55.289,64.944c0.121,0.154,0.196,0.331,0.196,0.523c0,0-0.3,0.47-1.398,0.47s-1.398-0.47-1.398-0.47
			c0-0.192,0.076-0.368,0.196-0.523c-0.363,0.153-0.596,0.372-0.596,0.618c0,0.462,0.805,0.836,1.797,0.836
			c0.993,0,1.797-0.374,1.797-0.836C55.884,65.316,55.652,65.097,55.289,64.944z"></path>
		<path d="M58.862,66.072c0.122,0.157,0.197,0.337,0.197,0.532c0,0-0.306,0.479-1.427,0.479s-1.427-0.479-1.427-0.479
			c0-0.195,0.075-0.375,0.197-0.532c-0.369,0.156-0.605,0.379-0.605,0.63c0,0.471,0.821,0.854,1.835,0.854s1.835-0.382,1.835-0.854
			C59.466,66.451,59.23,66.228,58.862,66.072z"></path>

		<path d="M36.368,55.866c0.11,0.135,0.191,0.285,0.191,0.455c0,0-0.256,0.401-1.193,0.401s-1.193-0.401-1.193-0.401
			c0-0.17,0.081-0.32,0.191-0.455c-0.323,0.131-0.532,0.321-0.532,0.536c0,0.394,0.687,0.714,1.534,0.714
			c0.847,0,1.534-0.32,1.534-0.714C36.901,56.187,36.692,55.997,36.368,55.866z"></path>
		<path d="M40.094,56.901c0.112,0.138,0.192,0.292,0.192,0.465c0,0-0.262,0.411-1.222,0.411c-0.96,0-1.222-0.411-1.222-0.411
			c0-0.173,0.08-0.327,0.192-0.465c-0.329,0.134-0.541,0.329-0.541,0.548c0,0.404,0.704,0.731,1.572,0.731
			c0.868,0,1.572-0.327,1.572-0.731C40.635,57.23,40.423,57.035,40.094,56.901z"></path>
		<path d="M43.819,57.937c0.113,0.141,0.193,0.298,0.193,0.475c0,0-0.268,0.42-1.252,0.42c-0.983,0-1.252-0.42-1.252-0.42
			c0-0.176,0.079-0.334,0.193-0.475c-0.335,0.137-0.55,0.336-0.55,0.56c0,0.413,0.72,0.749,1.609,0.749
			c0.889,0,1.609-0.335,1.609-0.749C44.369,58.273,44.154,58.074,43.819,57.937z"></path>
		<path d="M47.544,58.973c0.115,0.143,0.193,0.305,0.193,0.484c0,0-0.274,0.43-1.281,0.43c-1.006,0-1.281-0.43-1.281-0.43
			c0-0.179,0.079-0.341,0.193-0.484c-0.34,0.14-0.559,0.343-0.559,0.571c0,0.423,0.737,0.766,1.647,0.766
			c0.91,0,1.647-0.343,1.647-0.766C48.103,59.316,47.885,59.113,47.544,58.973z"></path>
		<path d="M51.269,60.009c0.116,0.146,0.194,0.311,0.194,0.494c0,0-0.281,0.44-1.31,0.44c-1.029,0-1.31-0.44-1.31-0.44
			c0-0.182,0.078-0.348,0.194-0.494c-0.346,0.143-0.568,0.35-0.568,0.583c0,0.433,0.754,0.784,1.684,0.784s1.684-0.351,1.684-0.784
			C51.838,60.359,51.616,60.152,51.269,60.009z"></path>
		<path d="M54.995,61.045c0.118,0.149,0.195,0.318,0.195,0.503c0,0-0.287,0.45-1.339,0.45c-1.052,0-1.339-0.45-1.339-0.45
			c0-0.186,0.077-0.354,0.195-0.503c-0.352,0.147-0.577,0.357-0.577,0.595c0,0.442,0.771,0.801,1.722,0.801
			c0.951,0,1.722-0.359,1.722-0.801C55.572,61.402,55.347,61.191,54.995,61.045z"></path>
		<path d="M58.72,62.08c0.119,0.152,0.196,0.324,0.196,0.513c0,0-0.293,0.46-1.368,0.46c-1.075,0-1.368-0.46-1.368-0.46
			c0-0.189,0.076-0.361,0.196-0.513c-0.358,0.15-0.587,0.365-0.587,0.606c0,0.452,0.788,0.819,1.759,0.819
			c0.972,0,1.759-0.367,1.759-0.819C59.306,62.445,59.077,62.23,58.72,62.08z"></path>
		<path d="M62.445,63.116c0.121,0.154,0.196,0.331,0.196,0.523c0,0-0.3,0.469-1.398,0.469c-1.098,0-1.398-0.469-1.398-0.469
			c0-0.192,0.076-0.368,0.196-0.523c-0.363,0.153-0.596,0.372-0.596,0.618c0,0.462,0.805,0.836,1.797,0.836
			c0.992,0,1.797-0.374,1.797-0.836C63.041,63.488,62.808,63.269,62.445,63.116z"></path>
		<path d="M66.17,64.152c0.122,0.157,0.197,0.337,0.197,0.532c0,0-0.306,0.479-1.427,0.479c-1.121,0-1.427-0.479-1.427-0.479
			c0-0.195,0.075-0.375,0.197-0.532c-0.369,0.156-0.605,0.379-0.605,0.629c0,0.471,0.821,0.854,1.835,0.854
			c1.013,0,1.835-0.382,1.835-0.854C66.775,64.531,66.539,64.308,66.17,64.152z"></path>

		<path d="M42.794,54.66c0.099,0.122,0.172,0.257,0.172,0.41c0,0-0.23,0.361-1.074,0.361s-1.074-0.361-1.074-0.361
			c0-0.153,0.073-0.288,0.172-0.41c-0.291,0.118-0.479,0.289-0.479,0.483c0,0.355,0.618,0.642,1.381,0.642s1.381-0.288,1.381-0.642
			C43.273,54.95,43.086,54.778,42.794,54.66z"></path>
		<path d="M46.591,55.658c0.102,0.125,0.176,0.263,0.176,0.42c0,0-0.236,0.37-1.1,0.37s-1.1-0.37-1.1-0.37
			c0-0.157,0.074-0.295,0.176-0.42c-0.298,0.121-0.49,0.296-0.49,0.495c0,0.363,0.633,0.658,1.414,0.658
			c0.781,0,1.414-0.295,1.414-0.658C47.082,55.954,46.89,55.778,46.591,55.658z"></path>
		<path d="M50.388,56.655c0.104,0.128,0.18,0.269,0.18,0.43c0,0-0.241,0.378-1.126,0.378s-1.126-0.378-1.126-0.378
			c0-0.161,0.076-0.302,0.18-0.43c-0.305,0.124-0.502,0.303-0.502,0.506c0,0.372,0.648,0.674,1.448,0.674
			c0.8,0,1.448-0.302,1.448-0.674C50.891,56.959,50.694,56.779,50.388,56.655z"></path>
		<path d="M54.185,57.653c0.107,0.131,0.185,0.275,0.185,0.44c0,0-0.247,0.387-1.153,0.387s-1.153-0.387-1.153-0.387
			c0-0.164,0.078-0.309,0.185-0.44c-0.312,0.126-0.514,0.311-0.514,0.518c0,0.381,0.664,0.69,1.482,0.69
			c0.819,0,1.482-0.309,1.482-0.69C54.699,57.963,54.498,57.779,54.185,57.653z"></path>
		<path d="M57.982,58.65c0.109,0.134,0.189,0.282,0.189,0.45c0,0-0.253,0.396-1.179,0.396S55.813,59.1,55.813,59.1
			c0-0.168,0.08-0.316,0.189-0.45c-0.32,0.129-0.526,0.318-0.526,0.53c0,0.39,0.679,0.705,1.516,0.705
			c0.837,0,1.516-0.316,1.516-0.705C58.508,58.967,58.302,58.779,57.982,58.65z"></path>
		<path d="M61.779,59.647c0.112,0.137,0.193,0.288,0.193,0.46c0,0-0.258,0.405-1.205,0.405s-1.205-0.405-1.205-0.405
			c0-0.172,0.081-0.323,0.193-0.46c-0.327,0.132-0.537,0.325-0.537,0.542c0,0.398,0.694,0.721,1.55,0.721
			c0.856,0,1.55-0.323,1.55-0.721C62.316,59.972,62.106,59.779,61.779,59.647z"></path>
		<path d="M65.576,60.645c0.114,0.14,0.197,0.294,0.197,0.47c0,0-0.264,0.414-1.232,0.414s-1.232-0.414-1.232-0.414
			c0-0.176,0.083-0.33,0.197-0.47c-0.334,0.135-0.549,0.332-0.549,0.554c0,0.407,0.709,0.737,1.584,0.737
			c0.875,0,1.584-0.33,1.584-0.737C66.125,60.976,65.91,60.78,65.576,60.645z"></path>
		<path d="M73.17,62.639c0.119,0.146,0.206,0.307,0.206,0.49c0,0-0.275,0.431-1.284,0.431s-1.284-0.431-1.284-0.431
			c0-0.183,0.087-0.344,0.206-0.49c-0.348,0.141-0.573,0.346-0.573,0.577c0,0.424,0.739,0.768,1.651,0.768
			c0.912,0,1.651-0.344,1.651-0.768C73.742,62.985,73.518,62.78,73.17,62.639z"></path>

		<path d="M49.237,53.341c0.093,0.117,0.161,0.245,0.161,0.391c0,0-0.224,0.35-1.043,0.35c-0.82,0-1.043-0.35-1.043-0.35
			c0-0.146,0.068-0.274,0.161-0.391c-0.277,0.114-0.459,0.276-0.459,0.462c0,0.345,0.601,0.624,1.341,0.624s1.341-0.279,1.341-0.624
			C49.696,53.618,49.514,53.456,49.237,53.341z"></path>
		<path d="M52.895,54.322c0.096,0.12,0.166,0.252,0.166,0.402c0,0-0.229,0.359-1.069,0.359c-0.84,0-1.069-0.359-1.069-0.359
			c0-0.15,0.07-0.282,0.166-0.402c-0.284,0.117-0.471,0.284-0.471,0.474c0,0.353,0.615,0.639,1.374,0.639
			c0.759,0,1.374-0.286,1.374-0.639C53.366,54.606,53.18,54.439,52.895,54.322z"></path>
		<path d="M56.553,55.303c0.099,0.123,0.17,0.258,0.17,0.412c0,0-0.235,0.368-1.094,0.368c-0.86,0-1.094-0.368-1.094-0.368
			c0-0.154,0.072-0.289,0.17-0.412c-0.292,0.12-0.483,0.291-0.483,0.487c0,0.361,0.63,0.655,1.407,0.655
			c0.777,0,1.407-0.293,1.407-0.655C57.036,55.595,56.845,55.423,56.553,55.303z"></path>
		<path d="M60.211,56.284c0.101,0.126,0.175,0.265,0.175,0.423c0,0-0.24,0.376-1.12,0.376c-0.88,0-1.12-0.376-1.12-0.376
			c0-0.158,0.074-0.297,0.175-0.423c-0.3,0.123-0.495,0.299-0.495,0.499c0,0.37,0.645,0.67,1.44,0.67c0.795,0,1.44-0.3,1.44-0.67
			C60.706,56.583,60.511,56.407,60.211,56.284z"></path>
		<path d="M63.869,57.265c0.104,0.129,0.18,0.272,0.18,0.433c0,0-0.245,0.385-1.145,0.385c-0.9,0-1.145-0.385-1.145-0.385
			c0-0.162,0.076-0.304,0.18-0.433c-0.307,0.126-0.507,0.306-0.507,0.511c0,0.378,0.659,0.685,1.473,0.685
			c0.813,0,1.473-0.307,1.473-0.685C64.377,57.572,64.176,57.391,63.869,57.265z"></path>
		<path d="M74.843,60.209c0.113,0.138,0.195,0.291,0.195,0.465c0,0-0.262,0.41-1.222,0.41c-0.96,0-1.222-0.41-1.222-0.41
			c0-0.174,0.082-0.327,0.195-0.465c-0.33,0.134-0.544,0.329-0.544,0.548c0,0.404,0.703,0.731,1.571,0.731
			c0.868,0,1.571-0.327,1.571-0.731C75.387,60.537,75.173,60.343,74.843,60.209z"></path>
		<path d="M78.501,61.19c0.115,0.141,0.2,0.298,0.2,0.476c0,0-0.267,0.419-1.247,0.419s-1.247-0.419-1.247-0.419
			c0-0.178,0.084-0.334,0.2-0.476c-0.338,0.137-0.556,0.336-0.556,0.561c0,0.412,0.718,0.746,1.604,0.746
			c0.886,0,1.604-0.334,1.604-0.746C79.057,61.526,78.839,61.326,78.501,61.19z"></path>

		<path d="M55.167,52.291c0.093,0.116,0.16,0.244,0.16,0.389c0,0-0.223,0.349-1.039,0.349c-0.816,0-1.039-0.349-1.039-0.349
			c0-0.145,0.068-0.273,0.16-0.389c-0.275,0.114-0.457,0.275-0.457,0.46c0,0.343,0.598,0.622,1.336,0.622s1.336-0.278,1.336-0.622
			C55.623,52.566,55.442,52.404,55.167,52.291z"></path>
		<path d="M58.843,53.216c0.095,0.119,0.165,0.251,0.165,0.4c0,0-0.228,0.358-1.065,0.358c-0.836,0-1.065-0.358-1.065-0.358
			c0-0.149,0.07-0.281,0.165-0.4c-0.283,0.117-0.469,0.283-0.469,0.472c0,0.352,0.613,0.637,1.369,0.637s1.369-0.285,1.369-0.637
			C59.312,53.499,59.126,53.333,58.843,53.216z"></path>
		<path d="M62.519,54.141c0.098,0.122,0.17,0.257,0.17,0.411c0,0-0.234,0.366-1.09,0.366c-0.856,0-1.09-0.366-1.09-0.366
			c0-0.153,0.072-0.288,0.17-0.411c-0.291,0.119-0.481,0.29-0.481,0.485c0,0.36,0.627,0.652,1.401,0.652S63,54.986,63,54.626
			C63,54.431,62.81,54.261,62.519,54.141z"></path>
		<path d="M66.196,55.067c0.101,0.125,0.175,0.264,0.175,0.421c0,0-0.239,0.375-1.115,0.375c-0.876,0-1.115-0.375-1.115-0.375
			c0-0.157,0.074-0.296,0.175-0.421c-0.298,0.122-0.493,0.298-0.493,0.497c0,0.369,0.642,0.667,1.434,0.667s1.434-0.299,1.434-0.667
			C66.689,55.364,66.494,55.189,66.196,55.067z"></path>
		<path d="M73.548,56.918c0.107,0.132,0.184,0.277,0.184,0.442c0,0-0.25,0.392-1.166,0.392c-0.916,0-1.166-0.392-1.166-0.392
			c0-0.165,0.078-0.311,0.184-0.442c-0.314,0.128-0.518,0.312-0.518,0.522c0,0.385,0.671,0.698,1.5,0.698s1.5-0.312,1.5-0.698
			C74.066,57.23,73.862,57.045,73.548,56.918z"></path>
		<path d="M77.225,57.843c0.109,0.135,0.189,0.284,0.189,0.453c0,0-0.255,0.4-1.192,0.4c-0.936,0-1.192-0.4-1.192-0.4
			c0-0.169,0.08-0.318,0.189-0.453c-0.321,0.131-0.53,0.32-0.53,0.534c0,0.394,0.686,0.713,1.532,0.713s1.532-0.319,1.532-0.713
			C77.755,58.163,77.546,57.974,77.225,57.843z"></path>
		<path d="M80.901,58.768c0.112,0.138,0.194,0.29,0.194,0.463c0,0-0.261,0.409-1.217,0.409c-0.956,0-1.217-0.409-1.217-0.409
			c0-0.173,0.082-0.326,0.194-0.464c-0.329,0.133-0.542,0.327-0.542,0.546c0,0.402,0.701,0.728,1.565,0.728s1.565-0.326,1.565-0.728
			C81.443,59.096,81.23,58.902,80.901,58.768z"></path>
		<path d="M84.578,59.694c0.115,0.141,0.199,0.297,0.199,0.474c0,0-0.266,0.417-1.243,0.417s-1.243-0.417-1.243-0.417
			c0-0.177,0.084-0.333,0.199-0.474c-0.337,0.136-0.554,0.335-0.554,0.559c0,0.411,0.715,0.743,1.598,0.743s1.598-0.333,1.598-0.743
			C85.132,60.029,84.914,59.83,84.578,59.694z"></path>

	<path d="M71.185,59.228c0.11,0.135,0.19,0.285,0.19,0.455c0,0-0.208,0.318-0.919,0.387l-0.004,0.397
		c0.719-0.06,1.265-0.351,1.265-0.703C71.717,59.549,71.508,59.359,71.185,59.228z"></path>
	<path d="M65.37,58.691c0-0.166,0.078-0.312,0.185-0.444c-0.315,0.128-0.52,0.314-0.52,0.524c0,0.387,0.674,0.7,1.505,0.7
		c0.188,0,0.367-0.018,0.533-0.047l0.004-0.395c-0.147,0.033-0.322,0.056-0.537,0.056C65.621,59.084,65.37,58.691,65.37,58.691z"></path>
	<path d="M66.699,62.208c0,0.174,0.132,0.332,0.345,0.459l0.009-0.922C66.834,61.872,66.699,62.032,66.699,62.208z"></path>
</g>
</g></svg>