<svg version="1.1" id="Layer_1" xmlns="http://www.w3.org/2000/svg" xmlns:xlink="http://www.w3.org/1999/xlink" x="0px" y="28px" width="99px" height="43px" viewBox="0 28 99 43" enable-background="0 28 99 43" xml:space="preserve"><desc>Copyright Opto 22</desc> <p id="title">Switch</p><desc>Created with Snap</desc><defs><linearGradient x1="27.2012" y1="52.8758" x2="27.408" y2="53.5183" gradientUnits="userSpaceOnUse" id="Sizk498bc1mo"><stop offset="0%" stop-color="#c6e2ff"/><stop offset="37.63%" stop-color="#e0efff"/><stop offset="100%" stop-color="#4c5e70"/></linearGradient><linearGradient x1="31.5635" y1="48.438" x2="32.6514" y2="51.8165" gradientUnits="userSpaceOnUse" id="Sizk498bc1mv"><stop offset="0%" stop-color="#c6e2ff"/><stop offset="37.63%" stop-color="#e0efff"/><stop offset="100%" stop-color="#4c5e70"/></linearGradient><linearGradient x1="61.0123" y1="49.4725" x2="62.1673" y2="52.1675" gradientUnits="userSpaceOnUse" id="Sizk498bc1n2"><stop offset="0%" stop-color="#c6e2ff"/><stop offset="37.63%" stop-color="#e0efff"/><stop offset="100%" stop-color="#4c5e70"/></linearGradient><linearGradient x1="4.3781" y1="71.2322" x2="2.7807" y2="89.3924" gradientUnits="userSpaceOnUse" id="Sizk498bc1n8"><stop offset="1.06%" stop-color="#c6e2ff"/><stop offset="77.25%" stop-color="#4c5e70"/></linearGradient><linearGradient x1="25.0381" y1="72.4517" x2="23.3727" y2="91.3841" gradientUnits="userSpaceOnUse" id="Sizk498bc1nd"><stop offset="1.06%" stop-color="#c6e2ff"/><stop offset="77.25%" stop-color="#4c5e70"/></linearGradient><linearGradient x1="70.6641" y1="27.4651" x2="71.8002" y2="33.9979" gradientUnits="userSpaceOnUse" id="Sizk498bc1ni"><stop offset="12.93%" stop-color="#c6e2ff"/><stop offset="100%" stop-color="#4c5e70"/></linearGradient><linearGradient x1="65.4051" y1="7.1391" x2="42.0463" y2="7.1391" gradientUnits="userSpaceOnUse" id="Sizk498bc1nn"><stop offset="0%" stop-color="#c6e2ff"/><stop offset="100%" stop-color="#4c5e70"/></linearGradient><linearGradient x1="21.7043" y1="49.1433" x2="24.8936" y2="56.534" gradientUnits="userSpaceOnUse" id="Sizk498bc1nt"><stop offset="0%" stop-color="#c6e2ff"/><stop offset="37.63%" stop-color="#e0efff"/><stop offset="100%" stop-color="#4c5e70"/></linearGradient><linearGradient x1="58.2238" y1="50.5238" x2="58.5303" y2="51.2392" gradientUnits="userSpaceOnUse" id="Sizk498bc1o0"><stop offset="0%" stop-color="#c6e2ff"/><stop offset="37.63%" stop-color="#e0efff"/><stop offset="100%" stop-color="#4c5e70"/></linearGradient><linearGradient x1="52.6983" y1="50.7103" x2="56.1965" y2="57.6192" gradientUnits="userSpaceOnUse" id="Sizk498bc1o7"><stop offset="0%" stop-color="#c6e2ff"/><stop offset="37.63%" stop-color="#e0efff"/><stop offset="100%" stop-color="#4c5e70"/></linearGradient><radialGradient cx="47.1542" cy="77.6098" r="9.1845" gradientUnits="userSpaceOnUse" id="Sizk498bc1oe"><stop offset="0%" stop-color="#c6e2ff"/><stop offset="100%" stop-color="#4c5e70"/></radialGradient><linearGradient x1="27.2012" y1="52.8758" x2="27.408" y2="53.5183" gradientUnits="userSpaceOnUse" id="Sizk498bc1oh"><stop offset="0%" stop-color="#96c9eb"/><stop offset="37.63%" stop-color="#b0dfff"/><stop offset="100%" stop-color="#547387"/></linearGradient><linearGradient x1="31.5635" y1="48.438" x2="32.6514" y2="51.8165" gradientUnits="userSpaceOnUse" id="Sizk498bc1ol"><stop offset="0%" stop-color="#96c9eb"/><stop offset="37.63%" stop-color="#b0dfff"/><stop offset="100%" stop-color="#547387"/></linearGradient><linearGradient x1="61.0123" y1="49.4725" x2="62.1673" y2="52.1675" gradientUnits="userSpaceOnUse" id="Sizk498bc1op"><stop offset="0%" stop-color="#96c9eb"/><stop offset="37.63%" stop-color="#b0dfff"/><stop offset="100%" stop-color="#547387"/></linearGradient><linearGradient x1="4.3781" y1="71.2322" x2="2.7807" y2="89.3924" gradientUnits="userSpaceOnUse" id="Sizk498bc1ot"><stop offset="1.06%" stop-color="#96c9eb"/><stop offset="77.25%" stop-color="#547387"/></linearGradient><linearGradient x1="25.0381" y1="72.4517" x2="23.3727" y2="91.3841" gradientUnits="userSpaceOnUse" id="Sizk498bc1ow"><stop offset="1.06%" stop-color="#96c9eb"/><stop offset="77.25%" stop-color="#547387"/></linearGradient><linearGradient x1="70.6641" y1="27.4651" x2="71.8002" y2="33.9979" gradientUnits="userSpaceOnUse" id="Sizk498bc1oz"><stop offset="12.93%" stop-color="#96c9eb"/><stop offset="100%" stop-color="#547387"/></linearGradient><linearGradient x1="65.4051" y1="7.1391" x2="42.0463" y2="7.1391" gradientUnits="userSpaceOnUse" id="Sizk498bc1p2"><stop offset="0%" stop-color="#96c9eb"/><stop offset="100%" stop-color="#547387"/></linearGradient><linearGradient x1="21.7043" y1="49.1433" x2="24.8936" y2="56.534" gradientUnits="userSpaceOnUse" id="Sizk498bc1p5"><stop offset="0%" stop-color="#96c9eb"/><stop offset="37.63%" stop-color="#b0dfff"/><stop offset="100%" stop-color="#547387"/></linearGradient><linearGradient x1="58.2238" y1="50.5238" x2="58.5303" y2="51.2392" gradientUnits="userSpaceOnUse" id="Sizk498bc1p9"><stop offset="0%" stop-color="#96c9eb"/><stop offset="37.63%" stop-color="#b0dfff"/><stop offset="100%" stop-color="#547387"/></linearGradient><linearGradient x1="52.6983" y1="50.7103" x2="56.1965" y2="57.6192" gradientUnits="userSpaceOnUse" id="Sizk498bc1pd"><stop offset="0%" stop-color="#96c9eb"/><stop offset="37.63%" stop-color="#b0dfff"/><stop offset="100%" stop-color="#547387"/></linearGradient><radialGradient cx="47.1542" cy="77.6098" r="9.1845" gradientUnits="userSpaceOnUse" id="Sizk498bc1ph"><stop offset="0%" stop-color="#96c9eb"/><stop offset="100%" stop-color="#547387"/></radialGradient></defs><g id="shape" xmlns="http://www.w3.org/2000/svg">
	<path fill="#660000" d="M63,28.6c-0.6-0.6-1.6-0.6-2.2,0L37.6,51.7c-1.9-1.4-4.2-2.2-6.7-2.2c-5.6,0-10.3,4.2-11.1,9.6H1.6
		c-0.9,0-1.6,0.7-1.6,1.6s0.7,1.6,1.6,1.6h18.2c0.8,5.4,5.4,9.6,11.1,9.6c6.2,0,11.2-5,11.2-11.2c0-2.5-0.8-4.8-2.2-6.7L63,30.8
		C63.6,30.2,63.6,29.2,63,28.6z M30.9,68.7c-4.4,0-8-3.6-8-8s3.6-8,8-8s8,3.6,8,8S35.3,68.7,30.9,68.7z"></path>
	<path fill="#660000" d="M98.4,59.1H81.6c-0.8-5.4-5.4-9.6-11.1-9.6c-6.2,0-11.2,5-11.2,11.2s5,11.2,11.2,11.2
		c5.6,0,10.3-4.2,11.1-9.6h16.8c0.9,0,1.6-0.7,1.6-1.6S99.3,59.1,98.4,59.1z M70.5,68.7c-4.4,0-8-3.6-8-8s3.6-8,8-8c4.4,0,8,3.6,8,8
		S75,68.7,70.5,68.7z"></path>
</g></svg>