<?xml version="1.0" encoding="iso-8859-1"?>
<!-- Generator: Adobe Illustrator 19.0.0, SVG Export Plug-In . SVG Version: 6.00 Build 0)  -->
<svg version="1.1" id="Layer_1" xmlns="http://www.w3.org/2000/svg" xmlns:xlink="http://www.w3.org/1999/xlink" x="0px" y="0px"
	 viewBox="0 0 484 484" style="enable-background:new 0 0 484 484;" xml:space="preserve">
<g>
	<g>
		<path style="fill:#AFB6BB;" d="M340.737,69.211c0,6.788-5.554,12.342-12.342,12.342h-172.79c-6.788,0-12.342-5.554-12.342-12.342
			V19.842c0-6.788,5.554-12.342,12.342-12.342h172.789c6.788,0,12.342,5.554,12.342,12.342v49.369H340.737z"/>
		<path style="fill:#E7ECED;" d="M143.263,69.211c0,6.788,5.554,12.342,12.342,12.342h172.789c6.788,0,12.342-5.554,12.342-12.342
			h37.026v364.092H106.237V69.211H143.263z"/>
		<polygon style="fill:#546A79;" points="340.737,32.184 420.961,32.184 420.961,476.5 63.04,476.5 63.04,32.184 143.263,32.184 
			143.263,69.211 106.237,69.211 106.237,433.303 377.763,433.303 377.763,69.211 340.737,69.211 		"/>
	</g>
	<g>
		<path d="M348.237,24.684v-4.842C348.237,8.901,339.336,0,328.395,0h-172.79c-10.941,0-19.842,8.901-19.842,19.842v4.842H55.54V484
			h372.92V24.684H348.237z M137.246,76.71c2.965,7.231,10.073,12.342,18.36,12.342h172.79c8.287,0,15.394-5.111,18.359-12.342
			h23.509v349.092H113.737V76.71H137.246z M150.763,19.842c0-2.625,2.217-4.842,4.842-4.842h172.79c2.625,0,4.842,2.217,4.842,4.842
			V69.21c0,2.625-2.217,4.842-4.842,4.842h-172.79c-2.625,0-4.842-2.217-4.842-4.842V19.842z M413.46,469H70.54V39.684h65.224V61.71
			H98.737v379.092h286.526V61.71h-37.026V39.684h65.224V469H413.46z"/>
		<rect x="186.46" y="37.026" width="111.079" height="15"/>
		<rect x="143.263" y="135.763" width="37.026" height="15"/>
		<rect x="204.974" y="135.763" width="135.763" height="15"/>
		<rect x="143.263" y="209.816" width="37.026" height="15"/>
		<rect x="204.974" y="209.816" width="135.763" height="15"/>
		<rect x="143.263" y="283.868" width="37.026" height="15"/>
		<rect x="204.974" y="283.868" width="135.763" height="15"/>
		<rect x="143.263" y="357.921" width="37.026" height="15"/>
		<rect x="204.974" y="357.921" width="135.763" height="15"/>
	</g>
</g>
<g>
</g>
<g>
</g>
<g>
</g>
<g>
</g>
<g>
</g>
<g>
</g>
<g>
</g>
<g>
</g>
<g>
</g>
<g>
</g>
<g>
</g>
<g>
</g>
<g>
</g>
<g>
</g>
<g>
</g>
</svg>
