<?xml version="1.0" encoding="iso-8859-1"?>
<!-- Generator: Adobe Illustrator 18.0.0, SVG Export Plug-In . SVG Version: 6.00 Build 0)  -->
<!DOCTYPE svg PUBLIC "-//W3C//DTD SVG 1.1//EN" "http://www.w3.org/Graphics/SVG/1.1/DTD/svg11.dtd">
<svg version="1.1" id="Capa_1" xmlns="http://www.w3.org/2000/svg" xmlns:xlink="http://www.w3.org/1999/xlink" x="0px" y="0px"
	 viewBox="0 0 55 55" style="enable-background:new 0 0 55 55;" xml:space="preserve">
<g>
	<path d="M42.5,31c-6.617,0-12,5.383-12,12s5.383,12,12,12s12-5.383,12-12S49.117,31,42.5,31z M42.5,53c-5.514,0-10-4.486-10-10
		s4.486-10,10-10s10,4.486,10,10S48.014,53,42.5,53z"/>
	<path d="M48.5,42h-5v-5c0-0.553-0.447-1-1-1s-1,0.447-1,1v6c0,0.553,0.447,1,1,1h6c0.553,0,1-0.447,1-1S49.053,42,48.5,42z"/>
	<path d="M42.324,0H12.676C5.962,0,0.5,5.462,0.5,12.176v29.648C0.5,48.538,5.962,54,12.676,54h19.66
		c-2.965-2.742-4.836-6.652-4.836-11c-0.094-0.375,0.149-2,0.149-2c0.983-7.327,7.259-13,14.851-13h-15c-0.552,0-1-0.447-1-1
		s0.448-1,1-1h18c0.552,0,1,0.447,1,1s-0.448,1-1,1h-3c4.91,0,9.262,2.381,12,6.038V12.176C54.5,5.462,49.038,0,42.324,0z
		 M21.188,37.65l-6.857,7.999c-0.197,0.23-0.477,0.35-0.76,0.35c-0.209,0-0.42-0.065-0.6-0.2L8.4,42.37
		c-0.442-0.331-0.531-0.958-0.2-1.399c0.332-0.442,0.958-0.53,1.4-0.2l3.822,2.866l6.248-7.287c0.359-0.42,0.992-0.468,1.41-0.108
		C21.499,36.601,21.547,37.231,21.188,37.65z M21.188,22.65l-6.857,8c-0.197,0.23-0.477,0.35-0.76,0.35c-0.209,0-0.42-0.065-0.6-0.2
		L8.4,27.371c-0.442-0.331-0.531-0.958-0.2-1.399c0.332-0.442,0.958-0.531,1.4-0.2l3.822,2.866l6.248-7.288
		c0.359-0.42,0.992-0.468,1.41-0.108C21.499,21.601,21.547,22.231,21.188,22.65z M21.188,8.65l-6.857,8
		c-0.197,0.23-0.477,0.35-0.76,0.35c-0.209,0-0.42-0.065-0.6-0.2L8.4,13.371c-0.442-0.331-0.531-0.958-0.2-1.399
		c0.332-0.442,0.958-0.531,1.4-0.2l3.822,2.866l6.248-7.288c0.359-0.42,0.992-0.468,1.41-0.108
		C21.499,7.601,21.547,8.231,21.188,8.65z M45.5,14h-18c-0.552,0-1-0.447-1-1s0.448-1,1-1h18c0.552,0,1,0.447,1,1S46.052,14,45.5,14
		z"/>
</g>
<g>
</g>
<g>
</g>
<g>
</g>
<g>
</g>
<g>
</g>
<g>
</g>
<g>
</g>
<g>
</g>
<g>
</g>
<g>
</g>
<g>
</g>
<g>
</g>
<g>
</g>
<g>
</g>
<g>
</g>
</svg>
