<svg version="1.1" id="Layer_1" xmlns="http://www.w3.org/2000/svg" xmlns:xlink="http://www.w3.org/1999/xlink" x="20px" y="0px" width="60px" height="100px" viewBox="20 0 60 100" enable-background="20 0 60 100" xml:space="preserve"><desc>Copyright Opto 22</desc> <p id="title">Wall socket</p><desc>Created with Snap</desc><defs><linearGradient x1="27.2012" y1="52.8758" x2="27.408" y2="53.5183" gradientUnits="userSpaceOnUse" id="Sizk498bc1mo"><stop offset="0%" stop-color="#c6e2ff"/><stop offset="37.63%" stop-color="#e0efff"/><stop offset="100%" stop-color="#4c5e70"/></linearGradient><linearGradient x1="31.5635" y1="48.438" x2="32.6514" y2="51.8165" gradientUnits="userSpaceOnUse" id="Sizk498bc1mv"><stop offset="0%" stop-color="#c6e2ff"/><stop offset="37.63%" stop-color="#e0efff"/><stop offset="100%" stop-color="#4c5e70"/></linearGradient><linearGradient x1="61.0123" y1="49.4725" x2="62.1673" y2="52.1675" gradientUnits="userSpaceOnUse" id="Sizk498bc1n2"><stop offset="0%" stop-color="#c6e2ff"/><stop offset="37.63%" stop-color="#e0efff"/><stop offset="100%" stop-color="#4c5e70"/></linearGradient><linearGradient x1="4.3781" y1="71.2322" x2="2.7807" y2="89.3924" gradientUnits="userSpaceOnUse" id="Sizk498bc1n8"><stop offset="1.06%" stop-color="#c6e2ff"/><stop offset="77.25%" stop-color="#4c5e70"/></linearGradient><linearGradient x1="25.0381" y1="72.4517" x2="23.3727" y2="91.3841" gradientUnits="userSpaceOnUse" id="Sizk498bc1nd"><stop offset="1.06%" stop-color="#c6e2ff"/><stop offset="77.25%" stop-color="#4c5e70"/></linearGradient><linearGradient x1="70.6641" y1="27.4651" x2="71.8002" y2="33.9979" gradientUnits="userSpaceOnUse" id="Sizk498bc1ni"><stop offset="12.93%" stop-color="#c6e2ff"/><stop offset="100%" stop-color="#4c5e70"/></linearGradient><linearGradient x1="65.4051" y1="7.1391" x2="42.0463" y2="7.1391" gradientUnits="userSpaceOnUse" id="Sizk498bc1nn"><stop offset="0%" stop-color="#c6e2ff"/><stop offset="100%" stop-color="#4c5e70"/></linearGradient><linearGradient x1="21.7043" y1="49.1433" x2="24.8936" y2="56.534" gradientUnits="userSpaceOnUse" id="Sizk498bc1nt"><stop offset="0%" stop-color="#c6e2ff"/><stop offset="37.63%" stop-color="#e0efff"/><stop offset="100%" stop-color="#4c5e70"/></linearGradient><linearGradient x1="58.2238" y1="50.5238" x2="58.5303" y2="51.2392" gradientUnits="userSpaceOnUse" id="Sizk498bc1o0"><stop offset="0%" stop-color="#c6e2ff"/><stop offset="37.63%" stop-color="#e0efff"/><stop offset="100%" stop-color="#4c5e70"/></linearGradient><linearGradient x1="52.6983" y1="50.7103" x2="56.1965" y2="57.6192" gradientUnits="userSpaceOnUse" id="Sizk498bc1o7"><stop offset="0%" stop-color="#c6e2ff"/><stop offset="37.63%" stop-color="#e0efff"/><stop offset="100%" stop-color="#4c5e70"/></linearGradient><radialGradient cx="47.1542" cy="77.6098" r="9.1845" gradientUnits="userSpaceOnUse" id="Sizk498bc1oe"><stop offset="0%" stop-color="#c6e2ff"/><stop offset="100%" stop-color="#4c5e70"/></radialGradient><linearGradient x1="27.2012" y1="52.8758" x2="27.408" y2="53.5183" gradientUnits="userSpaceOnUse" id="Sizk498bc1oh"><stop offset="0%" stop-color="#96c9eb"/><stop offset="37.63%" stop-color="#b0dfff"/><stop offset="100%" stop-color="#547387"/></linearGradient><linearGradient x1="31.5635" y1="48.438" x2="32.6514" y2="51.8165" gradientUnits="userSpaceOnUse" id="Sizk498bc1ol"><stop offset="0%" stop-color="#96c9eb"/><stop offset="37.63%" stop-color="#b0dfff"/><stop offset="100%" stop-color="#547387"/></linearGradient><linearGradient x1="61.0123" y1="49.4725" x2="62.1673" y2="52.1675" gradientUnits="userSpaceOnUse" id="Sizk498bc1op"><stop offset="0%" stop-color="#96c9eb"/><stop offset="37.63%" stop-color="#b0dfff"/><stop offset="100%" stop-color="#547387"/></linearGradient><linearGradient x1="4.3781" y1="71.2322" x2="2.7807" y2="89.3924" gradientUnits="userSpaceOnUse" id="Sizk498bc1ot"><stop offset="1.06%" stop-color="#96c9eb"/><stop offset="77.25%" stop-color="#547387"/></linearGradient><linearGradient x1="25.0381" y1="72.4517" x2="23.3727" y2="91.3841" gradientUnits="userSpaceOnUse" id="Sizk498bc1ow"><stop offset="1.06%" stop-color="#96c9eb"/><stop offset="77.25%" stop-color="#547387"/></linearGradient><linearGradient x1="70.6641" y1="27.4651" x2="71.8002" y2="33.9979" gradientUnits="userSpaceOnUse" id="Sizk498bc1oz"><stop offset="12.93%" stop-color="#96c9eb"/><stop offset="100%" stop-color="#547387"/></linearGradient><linearGradient x1="65.4051" y1="7.1391" x2="42.0463" y2="7.1391" gradientUnits="userSpaceOnUse" id="Sizk498bc1p2"><stop offset="0%" stop-color="#96c9eb"/><stop offset="100%" stop-color="#547387"/></linearGradient><linearGradient x1="21.7043" y1="49.1433" x2="24.8936" y2="56.534" gradientUnits="userSpaceOnUse" id="Sizk498bc1p5"><stop offset="0%" stop-color="#96c9eb"/><stop offset="37.63%" stop-color="#b0dfff"/><stop offset="100%" stop-color="#547387"/></linearGradient><linearGradient x1="58.2238" y1="50.5238" x2="58.5303" y2="51.2392" gradientUnits="userSpaceOnUse" id="Sizk498bc1p9"><stop offset="0%" stop-color="#96c9eb"/><stop offset="37.63%" stop-color="#b0dfff"/><stop offset="100%" stop-color="#547387"/></linearGradient><linearGradient x1="52.6983" y1="50.7103" x2="56.1965" y2="57.6192" gradientUnits="userSpaceOnUse" id="Sizk498bc1pd"><stop offset="0%" stop-color="#96c9eb"/><stop offset="37.63%" stop-color="#b0dfff"/><stop offset="100%" stop-color="#547387"/></linearGradient><radialGradient cx="47.1542" cy="77.6098" r="9.1845" gradientUnits="userSpaceOnUse" id="Sizk498bc1ph"><stop offset="0%" stop-color="#96c9eb"/><stop offset="100%" stop-color="#547387"/></radialGradient></defs><g xmlns="http://www.w3.org/2000/svg">
<g id="shape">
	<path fill="#77a3bf" d="M80,97c0,1.65-1.35,3-3,3H23c-1.65,0-3-1.35-3-3V3.25c0-1.65,1.35-3,3-3h54c1.65,0,3,1.35,3,3V97z" style=""></path>
</g>
<g id="light">
	<circle fill="#bcdff7" cx="50" cy="72.417" r="15.417" style=""></circle>
	<circle fill="#bcdff7" cx="50" cy="27.583" r="15.417" style=""></circle>
	<circle fill="#bcdff7" cx="50" cy="50" r="2.5" style=""></circle>
	<path fill="#bcdff7" d="M25,5h50l4.094-3.889C78.552,0.58,77.813,0.25,77,0.25H23c-1.65,0-3,1.35-3,3V97
		c0,0.825,0.338,1.575,0.881,2.119L25,95V5z" style=""></path>
</g>
<g id="dark">
	<polygon fill="#40667d" points="44.75,64.333 44.75,71.667 42.25,71.667 42.25,72.667 45.75,72.667 45.75,64.333 	" style=""></polygon>
	<polygon fill="#40667d" points="56.75,64.333 56.75,71.667 54.25,71.667 54.25,72.667 57.75,72.667 57.75,64.333 	" style=""></polygon>
	<polygon fill="#40667d" points="44.75,19.5 44.75,26.833 42.25,26.833 42.25,27.833 45.75,27.833 45.75,19.5 	" style=""></polygon>
	<polygon fill="#40667d" points="56.75,19.5 56.75,26.833 54.25,26.833 54.25,27.833 57.75,27.833 57.75,19.5 	" style=""></polygon>
	<rect x="49.5" y="47.46" transform="matrix(0.6566 0.7543 -0.7543 0.6566 54.8852 -20.5419)" fill="#40667d" width="1" height="5.08" style=""></rect>
	<path fill="#40667d" d="M79.094,1.111L75,5v90H25l-4.119,4.119C21.425,99.662,22.175,100,23,100h54c1.65,0,3-1.35,3-3V3.25
		C80,2.413,79.651,1.656,79.094,1.111z" style=""></path>
</g>
<g id="shadow">
	<path fill="#092f45" d="M35.583,73.417C35.583,64.902,42.486,58,51,58c4.003,0,7.637,1.538,10.377,4.039C58.558,58.95,54.512,57,50,57
		c-8.514,0-15.417,6.902-15.417,15.417c0,4.512,1.95,8.558,5.039,11.377C37.122,81.054,35.583,77.419,35.583,73.417z" style=""></path>
	<rect x="42.25" y="64.333" width="2.5" height="7.333" style="" fill="#092f45"></rect>
	<rect x="54.25" y="64.333" width="2.5" height="7.333" style="" fill="#092f45"></rect>
	<path d="M46.75,82.833v-2.417c0-1.795,1.455-3.25,3.25-3.25s3.25,1.455,3.25,3.25v2.417H46.75z" style="" fill="#092f45"></path>
	<path d="M35.583,28.583c0-8.514,6.902-15.417,15.417-15.417c4.003,0,7.637,1.538,10.377,4.039
		c-2.819-3.089-6.865-5.039-11.377-5.039c-8.514,0-15.417,6.902-15.417,15.417c0,4.512,1.95,8.558,5.039,11.377
		C37.122,36.22,35.583,32.586,35.583,28.583z" style="" fill="#092f45"></path>
	<rect x="42.25" y="19.5" width="2.5" height="7.333" style="" fill="#092f45"></rect>
	<rect x="54.25" y="19.5" width="2.5" height="7.333" style="" fill="#092f45"></rect>
	<path d="M46.75,38v-2.417c0-1.795,1.455-3.25,3.25-3.25s3.25,1.455,3.25,3.25V38H46.75z" style="" fill="#092f45"></path>
</g>
<g id="hlight">
	<polygon fill="#e8f6ff" points="25.25,95 24.75,95 24.75,4.75 75,4.75 75,5.25 25.25,5.25 	" style=""></polygon>
	<rect x="20.241" y="2.7" transform="matrix(0.725 0.6887 -0.6887 0.725 8.4597 -14.9883)" fill="#e8f6ff" width="5.517" height="0.8" style=""></rect>
</g>
</g></svg>