<?xml version="1.0" encoding="iso-8859-1"?>
<!-- Generator: Adobe Illustrator 19.0.0, SVG Export Plug-In . SVG Version: 6.00 Build 0)  -->
<svg version="1.1" id="Layer_1" xmlns="http://www.w3.org/2000/svg" xmlns:xlink="http://www.w3.org/1999/xlink" x="0px" y="0px"
	 viewBox="0 0 512.001 512.001" style="enable-background:new 0 0 512.001 512.001;" xml:space="preserve">
<path style="fill:#C7C5CB;" d="M491.828,75.162l-44.493,26.228c-3.693,2.177-8.45,0.948-10.627-2.745l-18.587-31.53
	c-2.177-3.693-0.948-8.45,2.745-10.627l43.553-25.674c5.957-3.511,4.694-12.471-2.001-14.2l-20.363-5.259
	c-6.025-1.556-12.422-0.655-17.783,2.505l-23.485,13.844l-3.433,2.024l-0.298,0.175c-5.361,3.16-9.247,8.321-10.803,14.345
	l-10.33,39.999l0.103,0.175L111.265,239.58c-1.886-1.333-4.011-2.332-6.29-2.921l-33.729-8.71
	c-4.941-1.276-10.185-0.537-14.581,2.054l-30.009,17.691c-4.396,2.591-7.582,6.822-8.858,11.763l-8.71,33.729
	c-1.276,4.941-0.537,10.185,2.054,14.581l17.691,30.009c2.591,4.396,6.822,7.582,11.763,8.858l33.729,8.71
	c4.941,1.276,10.185,0.537,14.581-2.054l30.009-17.691c4.396-2.591,7.582-6.822,8.858-11.763l8.71-33.729
	c0.554-2.148,0.728-4.352,0.534-6.52l265.042-155.321l39.778,10.272c6.026,1.556,12.422,0.655,17.783-2.505l27.216-16.044
	c5.361-3.16,9.246-8.321,10.803-14.345l5.645-21.857C505.012,77.094,497.785,71.65,491.828,75.162z M104.949,290.87l-4.398,17.031
	c-0.644,2.494-2.254,4.632-4.473,5.94l-15.154,8.933c-2.22,1.308-4.868,1.682-7.363,1.037l-17.031-4.398
	c-2.495-0.644-4.632-2.254-5.94-4.473l-8.933-15.154c-1.308-2.22-1.682-4.868-1.037-7.363l4.398-17.031
	c0.644-2.495,2.254-4.632,4.473-5.94l15.154-8.933c2.22-1.308,4.868-1.682,7.363-1.037l17.031,4.398
	c2.495,0.644,4.632,2.254,5.94,4.473l8.933,15.154C105.221,285.726,105.593,288.375,104.949,290.87z"/>
<path style="fill:#AEADB3;" d="M491.828,75.163l-10.965,6.463l-1.244,4.815c-1.556,6.026-5.442,11.185-10.803,14.345l-27.216,16.044
	c-5.361,3.16-11.758,4.062-17.783,2.505l-39.778-10.272L118.999,264.383c0.193,2.168,0.02,4.372-0.534,6.52l-8.71,33.729
	c-1.276,4.941-4.462,9.172-8.858,11.763l-30.009,17.691c-4.396,2.591-9.642,3.33-14.581,2.054l-33.545-8.663l6.072,10.299
	c2.591,4.396,6.822,7.582,11.763,8.858l33.729,8.71c4.941,1.276,10.185,0.537,14.581-2.054l30.009-17.691
	c4.396-2.591,7.582-6.822,8.858-11.763l8.71-33.729c0.554-2.148,0.728-4.352,0.534-6.52l265.042-155.321l39.778,10.272
	c6.026,1.556,12.422,0.655,17.783-2.505l27.216-16.044c5.361-3.16,9.247-8.321,10.803-14.345l5.645-21.857
	C505.012,77.094,497.785,71.65,491.828,75.163z"/>
<path style="fill:#FED9A8;" d="M408.271,349.541l-3.947-36.387l9.798-90.21c0.998-9.186-0.302-18.522-3.78-27.145l-17.412-43.171
	c-8.466-20.988-31.93-31.271-52.309-22.924l-1.727,0.708l-7.016-17.077c-6.389-15.547-24.173-22.97-39.719-16.577l0,0
	c-15.537,6.391-22.955,24.164-16.57,39.705l6.992,17.016l-0.019,0.008l-6.285-15.296c-6.389-15.547-24.173-22.97-39.719-16.577l0,0
	c-14.85,6.108-22.273,22.611-17.328,37.627c-6.936-14.408-23.994-21.08-38.975-14.919l0,0c-15.537,6.391-22.955,24.165-16.57,39.705
	l3.816,9.286c-7.45-12.637-23.242-18.213-37.205-12.47l0,0c-15.307,6.295-22.613,23.805-16.324,39.115l19.466,47.375
	c2.937,7.147,8.319,12.55,14.78,15.641l26.496,62.431c5.285,12.685,14.024,23.609,25.163,31.459l59.685,33.694l13.366,77.292
	c1.354,7.835,8.152,13.557,16.102,13.557h186.867c12.926,0,20.734-14.296,13.75-25.172L408.271,349.541z"/>
<g>
	<path style="fill:#F4C08E;" d="M246.939,138.192l13.655,33.232c2.428-6.52,7.387-12.004,14.231-14.808l7.721-3.162l-6.272-15.263
		c-6.389-15.547-24.173-22.97-39.719-16.577l0,0c-1.07,0.44-2.097,0.939-3.089,1.483c-0.002,0.001-0.005,0.002-0.007,0.003
		C239.337,126.332,244.193,131.507,246.939,138.192z"/>
	<path style="fill:#F4C08E;" d="M331.877,113.335c-6.389-15.547-24.173-22.97-39.719-16.577l0,0
		c-1.047,0.431-2.054,0.918-3.026,1.448c-0.188,0.105-0.376,0.211-0.562,0.319c-0.167,0.096-0.332,0.195-0.497,0.295
		c-6.615,4.045-11.257,10.367-13.322,17.499c14.69-4.179,30.492,3.245,36.434,17.708l2.707,6.589l24.987-10.235L331.877,113.335z"/>
	<path style="fill:#F4C08E;" d="M188.888,244.55l-19.466-47.375c-6.293-15.316-23.814-22.628-39.128-16.33l0,0
		c-8.88,3.652-15.06,11.082-17.461,19.663c14.439-4.048,29.943,3.264,35.782,17.475l19.466,47.375
		c2.641,6.427,2.877,13.241,1.139,19.451c1.123-0.315,2.241-0.691,3.346-1.146l0,0C187.871,277.368,195.177,259.858,188.888,244.55z
		"/>
	<path style="fill:#F4C08E;" d="M239.094,207.439l-19.122-46.537c-6.389-15.547-24.173-22.97-39.719-16.577l0,0
		c-8.906,3.663-15.137,11.068-17.636,19.646c14.744-4.301,30.661,3.128,36.631,17.656l19.122,46.537
		c2.726,6.633,2.929,13.671,1.067,20.058c1.036-0.302,2.068-0.659,3.089-1.079l0,0C238.061,240.752,245.479,222.978,239.094,207.439
		z"/>
	<path style="fill:#F4C08E;" d="M408.271,349.541l-3.947-36.387l9.798-90.21c0.998-9.186-0.302-18.522-3.78-27.145l-17.412-43.171
		c-8.317-20.619-31.107-30.893-51.229-23.334c10.416,3.862,19.308,12.047,23.861,23.334l17.412,43.171
		c3.477,8.622,4.777,17.959,3.78,27.145l-8.4,126.597l97.539,151.867l0,0c12.926,0,20.734-14.296,13.75-25.172L408.271,349.541z"/>
	<path style="fill:#F4C08E;" d="M299.656,193.156l-25.241,10.67c-2.41,1.018-4.886,1.657-7.366,1.958
		c7.805,9.661,21.091,13.505,32.814,8.549l25.241-10.67c1.375-0.581,2.775-1.015,4.184-1.322L299.656,193.156z"/>
	<path style="fill:#F4C08E;" d="M350.812,217.543c-0.853-2.051-2.069-4.19-3.548-6.307c-2.35-2.833-5.345-5.071-8.813-6.51
		c-5.416-2.248-11.337-2.276-16.686-0.084c-0.041,0.017-0.081,0.034-0.122,0.051l-23.33,9.727c-0.047,0.02-0.096,0.04-0.142,0.059
		c-2.641,1.082-5.365,1.678-8.08,1.842c-3.086,3.52-6.849,6.224-11.188,8.037l-0.194,0.08c-14.445,5.921-30.935-0.117-38.329-13.483
		c4.095,14.635-3.279,30.417-17.652,36.422l-0.194,0.08c-13.602,5.575-29.019,0.547-36.948-11.219l3.566,8.547
		c6.393,15.319-0.867,32.989-16.184,39.388l-0.191,0.079c-0.464,0.19-0.93,0.367-1.397,0.532l22.642,55.238
		c10.305,25.142,39.041,37.169,64.183,26.864l71.802-29.431c17.087-7.004,25.567-26.518,18.589-43.616
		c-1.949-4.776-3.456-9.723-4.505-14.76c-2.757-10.533-3.58-21.603-2.245-32.638L350.812,217.543z"/>
</g>
<path style="fill:#F7AD6B;" d="M321.854,205.171l-23.4,9.558c-2.701,1.103-5.484,1.696-8.251,1.84
	c-2.991,3.373-6.776,6.135-11.229,7.959l0,0c-14.992,6.137-32.037-0.565-38.95-14.984c4.919,15.024-2.531,31.516-17.392,37.599
	c-14.195,5.811-30.231,0.109-37.764-12.754L189,244.492c6.265,15.319-1.072,32.817-16.389,39.086
	c-10.049,4.114-20.486,1.029-24.515-0.561l-0.054,0.026l9.19,21.755c7.389,0.626,15.018-0.4,22.338-3.338l0.309-0.125
	c14.761-6.041,25.004-18.492,28.848-32.826c6.928,0.35,14.028-0.739,20.861-3.483l0.313-0.126
	c10.454-4.28,18.658-11.747,23.967-20.818c10.55,3.025,21.725,2.481,32.056-1.667c0.106-0.043,0.212-0.086,0.317-0.129
	c5.058-2.071,9.635-4.903,13.689-8.424c1.901-0.147,3.809-0.578,5.67-1.325c0.036-0.015,0.072-0.029,0.109-0.044l43.835-17.723
	C343.859,205.257,332.17,200.958,321.854,205.171z"/>
<g>
	<path style="fill:#1A1A1A;" d="M343.344,237.774c-4.644-0.562-8.858,2.746-9.42,7.387c-1.441,11.912-0.632,23.887,2.405,35.591
		c1.153,5.474,2.806,10.863,4.912,16.021c1.34,3.281,4.502,5.268,7.84,5.268c1.064,0,2.148-0.202,3.195-0.63
		c4.328-1.766,6.405-6.706,4.638-11.035c-1.745-4.275-3.109-8.747-4.056-13.288c-0.029-0.14-0.062-0.279-0.098-0.416
		c-2.539-9.701-3.222-19.618-2.029-29.478C351.292,242.553,347.986,238.335,343.344,237.774z"/>
	<path style="fill:#1A1A1A;" d="M505.529,68.887c-5.263-3.961-12.328-4.36-18-1.016l-43.887,25.872L425.77,63.423l42.947-25.318
		c5.673-3.344,8.747-9.719,7.827-16.241c-0.919-6.522-5.633-11.799-12.009-13.446l-20.362-5.259
		c-8.259-2.133-16.852-0.922-24.198,3.409c-4.027,2.375-5.368,7.563-2.993,11.591s7.563,5.366,11.591,2.993
		c3.452-2.034,7.489-2.603,11.368-1.601l18.718,4.834l-42.092,24.813c-7.706,4.544-10.28,14.509-5.738,22.217l18.587,31.53
		c2.201,3.733,5.724,6.387,9.92,7.471c4.195,1.082,8.563,0.468,12.297-1.732l43.031-25.366l-5.22,20.213
		c-1.002,3.879-3.455,7.136-6.906,9.171l-27.216,16.044c-3.451,2.035-7.489,2.604-11.368,1.601l-39.778-10.274
		c-2.167-0.559-4.466-0.239-6.396,0.893l-12.858,7.536c-0.708-0.538-1.413-1.078-2.15-1.578c-2.722-1.863-5.646-3.467-8.748-4.775
		c-9.734-4.108-20.252-4.904-30.222-2.38l-3.913-9.523l1.712,4.166l38.706-22.682c1.939-1.136,3.346-2.996,3.912-5.171
		c0.133-0.512,0.218-1.034,0.253-1.554l9.978-38.635c1.002-3.879,3.455-7.136,6.902-9.169l0.298-0.175
		c4.028-2.372,5.371-7.56,2.999-11.589c-2.373-4.029-7.563-5.373-11.588-2.999l-0.301,0.177c-7.347,4.332-12.567,11.263-14.7,19.521
		l-9.522,36.87l-35.188,20.62c-1.876-2.174-3.965-4.134-6.248-5.831c-0.097-0.072-0.196-0.141-0.295-0.213
		c-0.661-0.482-1.336-0.945-2.027-1.384c-0.406-0.261-0.816-0.517-1.232-0.763c-0.251-0.147-0.502-0.29-0.756-0.431
		c-1.313-0.735-2.669-1.406-4.078-1.994c-9.59-4.003-20.163-4.03-29.773-0.077c-11.775,4.843-19.908,14.841-22.864,26.315
		c-0.183-0.095-0.378-0.17-0.562-0.262c-0.385-0.19-0.775-0.368-1.168-0.545c-0.413-0.19-0.813-0.4-1.234-0.576
		c-9.59-4.003-20.163-4.03-29.773-0.077c-11.163,4.591-19.127,13.93-22.413,24.8c-0.239-0.133-0.486-0.253-0.729-0.38
		c-0.423-0.227-0.845-0.455-1.275-0.666c-0.182-0.087-0.366-0.167-0.548-0.252c-0.729-0.342-1.468-0.66-2.217-0.957
		c-0.001,0-0.002-0.001-0.003-0.001c-9.063-3.59-19.456-3.808-29.115,0.164c-14.795,6.085-23.839,20.304-24.092,35.37
		c-0.012-0.003-0.024-0.006-0.036-0.01c-8.27-2.527-17.39-2.312-25.831,1.16c-19.595,8.059-28.985,30.56-20.933,50.159l2.344,5.705
		c-0.462-0.146-0.922-0.296-1.393-0.418l-33.729-8.71c-7.163-1.85-14.622-0.799-20.996,2.958L22.364,240.4
		c-6.374,3.758-10.906,9.774-12.755,16.938l-8.717,33.731c-1.85,7.165-0.799,14.622,2.958,20.996l17.691,30.009
		c3.757,6.374,9.774,10.904,16.939,12.755l33.729,8.71c2.309,0.597,4.65,0.892,6.975,0.892c4.886,0,9.702-1.304,14.022-3.85
		l30.01-17.691c6.374-3.758,10.904-9.774,12.755-16.939l8.056-31.19l-2.421-5.705l0,0l25.296,59.603
		c5.912,14.189,15.63,26.333,28.101,35.123c0.23,0.163,0.469,0.314,0.714,0.453l56.19,31.72l3.742,21.642
		c0.797,4.607,5.177,7.694,9.783,6.898c4.607-0.797,7.695-5.177,6.898-9.783l-4.426-25.596c-0.432-2.503-1.967-4.679-4.179-5.928
		l-59.304-33.48c-9.698-6.928-17.263-16.45-21.914-27.611l-20.204-47.607c4.693-0.115,9.286-1.072,13.667-2.874
		c14.725-6.056,23.685-20.266,23.814-35.272c3.618,1.098,7.437,1.683,11.363,1.683c5.08,0,10.053-0.986,14.783-2.932
		c11.241-4.624,19.157-13.945,22.425-24.763c5.698,3.204,12.234,4.986,19.095,4.986c5.08,0,10.053-0.986,14.783-2.932
		c4.477-1.841,8.471-4.441,11.931-7.726c2.534-0.401,5.057-1.088,7.527-2.101l23.384-9.599c3.328-1.367,7.025-1.333,10.413,0.095
		c3.605,1.52,6.415,4.399,7.91,8.107c1.331,3.298,4.502,5.3,7.853,5.3c1.054,0,2.126-0.199,3.163-0.616
		c4.335-1.749,6.432-6.681,4.684-11.016c-3.195-7.919-9.244-14.089-17.035-17.373c-7.571-3.192-15.888-3.247-23.417-0.157
		l-23.383,9.598c-2.189,0.898-4.466,1.294-6.711,1.248c-0.034,0-0.068,0.002-0.102,0.001c-5.628-0.15-11.039-3.106-14.358-8.028
		c-0.069-0.103-0.137-0.208-0.203-0.311c-0.236-0.365-0.457-0.741-0.669-1.126c-0.072-0.131-0.147-0.258-0.216-0.392
		c-0.26-0.499-0.503-1.009-0.721-1.539l-3.547-8.631c-1.895-4.611-1.899-9.635-0.014-14.145c0.668-1.597,1.547-3.057,2.607-4.35
		c1.765-2.154,4.03-3.841,6.647-4.912l6.466-2.649l1.53-0.626c0.001,0,0.001,0,0.001,0l33.679-13.796l24.363-9.98
		c7.567-3.099,15.953-3.026,23.612,0.208c1.986,0.839,3.863,1.862,5.615,3.049c5.258,3.618,9.366,8.738,11.841,14.875l17.412,43.172
		c2.948,7.309,4.061,15.284,3.215,23.064l-9.8,90.21c-0.067,0.607-0.067,1.22,0,1.827l3.948,36.387
		c0.141,1.304,0.585,2.557,1.293,3.661l81.372,126.696c2.28,3.548,0.959,6.799,0.284,8.032c-0.674,1.232-2.695,4.1-6.913,4.1
		h-186.87c-3.843,0-7.107-2.748-7.761-6.535l-3.523-20.373c-0.797-4.606-5.169-7.695-9.783-6.898
		c-4.607,0.797-7.695,5.177-6.898,9.783l3.523,20.373c2.062,11.924,12.341,20.579,24.442,20.579h186.867
		c9.076,0,17.419-4.949,21.769-12.914c4.351-7.966,4.006-17.659-0.898-25.296L416.47,346.644l-3.633-33.491l9.7-89.297
		c1.076-9.906-0.216-20.027-3.679-29.415c-0.102-0.565-0.26-1.13-0.483-1.684l-17.412-43.171c-1.188-2.947-2.654-5.717-4.321-8.332
		l6.686-3.917l36.396,9.4c8.254,2.132,16.85,0.922,24.198-3.409l27.216-16.044c7.346-4.332,12.567-11.263,14.7-19.521l5.645-21.858
		C513.126,79.528,510.791,72.848,505.529,68.887z M138.462,286.961c-0.064-0.047-0.13-0.093-0.194-0.141
		C138.333,286.868,138.398,286.914,138.462,286.961z M137.184,285.978c-0.186-0.148-0.372-0.295-0.555-0.446
		c0.096,0.079,0.2,0.149,0.296,0.228C137.012,285.831,137.096,285.907,137.184,285.978z M128.586,284.339
		c0.109,1.231,0.009,2.46-0.299,3.652l-8.71,33.728c-0.72,2.788-2.482,5.127-4.961,6.589l-30.01,17.691
		c-2.479,1.462-5.379,1.87-8.166,1.151l-33.728-8.71c-2.788-0.72-5.127-2.482-6.589-4.961l-17.691-30.009
		c-1.462-2.479-1.87-5.38-1.151-8.166l8.712-33.729c0.72-2.786,2.482-5.126,4.961-6.588l30.009-17.691
		c2.479-1.462,5.38-1.869,8.166-1.15l33.729,8.71c1.258,0.325,2.443,0.876,3.521,1.638c2.714,1.917,6.298,2.069,9.164,0.39
		l0.271-0.159l9.79,23.827c1.192,2.9,2.721,5.616,4.54,8.102C128.985,280.272,128.403,282.279,128.586,284.339z M132.299,281.321
		c0.389,0.444,0.802,0.866,1.212,1.29c0.006,0.006,0.011,0.011,0.017,0.018c0.193,0.2,0.374,0.413,0.572,0.608
		C133.477,282.62,132.878,281.981,132.299,281.321z M130.299,278.851c0.498,0.672,1.021,1.32,1.561,1.957
		C131.321,280.171,130.797,279.522,130.299,278.851z M134.491,283.611c0.192,0.185,0.397,0.355,0.593,0.537
		c0.31,0.291,0.625,0.576,0.943,0.855c0.08,0.069,0.155,0.144,0.235,0.213C135.654,284.699,135.064,284.164,134.491,283.611z
		 M169.526,275.962c-2.622,1.078-5.37,1.624-8.171,1.624c-3.207,0-6.286-0.709-9.066-1.995c-0.143-0.079-0.272-0.179-0.42-0.249
		c-1.178-0.564-2.291-1.231-3.334-1.986c-0.041-0.029-0.082-0.059-0.122-0.088c-0.323-0.237-0.626-0.497-0.936-0.75
		c-2.587-2.185-4.683-4.987-6.032-8.273l-19.466-47.375c-4.506-10.968,0.749-23.559,11.714-28.07
		c2.622-1.078,5.371-1.624,8.171-1.624c2.616,0,5.143,0.476,7.495,1.346c0.198,0.076,0.396,0.146,0.591,0.227
		c0.211,0.086,0.418,0.178,0.626,0.27c3.916,1.77,7.329,4.695,9.628,8.595c0.032,0.054,0.069,0.103,0.102,0.155l14.85,36.141
		c0.609,1.484,1.324,2.9,2.094,4.273l3.99,9.71C185.747,258.859,180.491,271.451,169.526,275.962z M219.486,239.441
		c-2.677,1.1-5.484,1.659-8.344,1.659c-7.707,0-14.686-3.974-18.65-10.363l-15.06-36.653c-0.607-1.477-1.317-2.886-2.085-4.251
		l-3.654-8.894c-4.601-11.198,0.765-24.054,11.961-28.659c2.677-1.1,5.484-1.659,8.344-1.659c3.618,0,7.072,0.887,10.135,2.476
		c0.362,0.192,0.726,0.38,1.077,0.592c0.081,0.047,0.159,0.099,0.24,0.149c3.417,2.127,6.288,5.207,8.152,9.077
		c0.073,0.152,0.158,0.295,0.239,0.44c0.161,0.437,0.321,0.874,0.499,1.307l19.122,46.537c0.184,0.449,0.4,0.877,0.599,1.317
		C235.465,223.277,230.109,235.071,219.486,239.441z M253.101,167.445c-3.632,8.684-3.642,18.312-0.027,27.11l3.547,8.631
		c0.283,0.69,0.592,1.361,0.913,2.024c0.102,0.21,0.207,0.415,0.311,0.623c0.236,0.463,0.481,0.919,0.735,1.368
		c0.123,0.218,0.242,0.438,0.369,0.652c0.328,0.554,0.669,1.098,1.024,1.629c0.221,0.333,0.456,0.653,0.687,0.978
		c0.148,0.207,0.296,0.413,0.448,0.615c0.291,0.389,0.588,0.772,0.894,1.148c0.005,0.006,0.009,0.011,0.015,0.017
		c1.892,2.32,4.041,4.386,6.417,6.132c-0.328,0.015-0.658,0.023-0.988,0.023c-8.335,0-15.824-4.643-19.56-11.968
		c-0.24-0.695-0.498-1.387-0.78-2.075l-19.122-46.537c-0.185-0.449-0.401-0.879-0.6-1.318c-3.405-10.76,1.952-22.553,12.574-26.921
		c2.677-1.1,5.484-1.659,8.344-1.659c3.275,0,6.418,0.723,9.257,2.038c0.138,0.065,0.277,0.129,0.412,0.196
		c0.315,0.153,0.623,0.317,0.93,0.485c4.297,2.408,7.645,6.154,9.546,10.78l3.134,7.628l-0.026,0.01
		C263.181,152.479,256.626,159.012,253.101,167.445z M302.599,136.332l-15.222,6.235l-3.779-9.195
		c-4.601-11.198,0.765-24.054,11.961-28.659c2.677-1.1,5.484-1.659,8.344-1.659c3.279,0,6.423,0.725,9.263,2.04
		c0.133,0.063,0.267,0.124,0.4,0.19c0.317,0.155,0.63,0.319,0.939,0.49c4.295,2.408,7.643,6.153,9.543,10.778l3.867,9.41
		L302.599,136.332z M335.383,102.2c-0.07-0.096-0.14-0.193-0.21-0.289C335.243,102.007,335.313,102.104,335.383,102.2z
		 M338.631,107.511c-0.106-0.211-0.223-0.412-0.333-0.621C338.407,107.099,338.525,107.301,338.631,107.511z M337.135,104.831
		c-0.106-0.175-0.217-0.344-0.325-0.517C336.919,104.486,337.029,104.656,337.135,104.831z M386.821,130.028
		c-0.085-0.071-0.168-0.146-0.253-0.217C386.653,129.882,386.736,129.956,386.821,130.028z M389.97,132.924
		c-0.103-0.103-0.205-0.205-0.309-0.307C389.765,132.719,389.867,132.821,389.97,132.924z"/>
	<path style="fill:#1A1A1A;" d="M102.27,264.053c-2.467-4.183-6.414-7.154-11.114-8.368l-17.033-4.398
		c-4.702-1.217-9.594-0.525-13.778,1.941l-15.154,8.934c-4.184,2.467-7.155,6.414-8.37,11.114l-4.398,17.031
		c-1.214,4.703-0.525,9.596,1.941,13.778l8.933,15.154c2.466,4.183,6.413,7.155,11.115,8.371l17.031,4.398
		c1.516,0.392,3.051,0.586,4.576,0.586c3.206,0,6.367-0.855,9.201-2.527l15.152-8.933c4.185-2.466,7.156-6.414,8.371-11.115
		l4.398-17.031l0,0c1.214-4.702,0.525-9.594-1.941-13.778L102.27,264.053z M96.754,288.753l-4.398,17.031
		c-0.084,0.324-0.288,0.595-0.576,0.764l-15.155,8.934c-0.288,0.168-0.625,0.216-0.947,0.133l-17.03-4.398
		c-0.325-0.084-0.596-0.288-0.766-0.576l-8.934-15.156c-0.169-0.287-0.216-0.623-0.133-0.946l4.398-17.032
		c0.084-0.323,0.288-0.595,0.576-0.764l15.152-8.933c0.195-0.115,0.413-0.174,0.634-0.174c0.105,0,0.211,0.014,0.315,0.041
		l17.033,4.398c0.318,0.082,0.597,0.292,0.764,0.576l8.933,15.154C96.789,288.093,96.838,288.429,96.754,288.753z"/>
</g>
<g>
</g>
<g>
</g>
<g>
</g>
<g>
</g>
<g>
</g>
<g>
</g>
<g>
</g>
<g>
</g>
<g>
</g>
<g>
</g>
<g>
</g>
<g>
</g>
<g>
</g>
<g>
</g>
<g>
</g>
</svg>
